M48
;Layer_Color=9474304
;FILE_FORMAT=2:5
INCH,LZ
;TYPE=PLATED
T01F00S00C0.01200
T02F00S00C0.02800
T04F00S00C0.04331
T05F00S00C0.04724
;TYPE=NON_PLATED
T06F00S00C0.03937
T07F00S00C0.04921
%
T01
X0161Y00171
X016095Y002195
X01016Y00705
T02
X00346Y0015
X01363Y00208
X01836Y00225
X0168275Y003075
X01772Y00453
X01741Y00545
X01781Y0062
X01636Y0057
X0156352Y005525
X014785Y00443
X01422
X01414Y00355
X0137405Y0039495
X01271Y005
X01186Y00625
X01216Y007
X01306Y0082
X0143858Y008079
X0144894Y002434
X0123Y0024
X00936Y002875
X01991Y0042423
Y0048073
X00341Y00785
T04
X0123309Y0008921
X0133309
X0143309
X0153309
X0163309
X0173309
X0183309
X0193309
X0161635Y0065524
X0151635
X0141635
T05
X0073722Y0027807
Y0037807
Y0047807
Y0057807
Y0067807
T06
X0203643Y0035012
Y0052335
T07
X0216439Y0035012
Y0052728
M30
