G04*
G04 #@! TF.GenerationSoftware,Altium Limited,Altium Designer,24.3.1 (35)*
G04*
G04 Layer_Color=8388736*
%FSLAX44Y44*%
%MOMM*%
G71*
G04*
G04 #@! TF.SameCoordinates,DD5606FB-0AE3-4311-A501-CF171F200833*
G04*
G04*
G04 #@! TF.FilePolarity,Negative*
G04*
G01*
G75*
%ADD16R,0.8000X0.8000*%
G04:AMPARAMS|DCode=27|XSize=1.3571mm|YSize=0.5721mm|CornerRadius=0.2861mm|HoleSize=0mm|Usage=FLASHONLY|Rotation=0.000|XOffset=0mm|YOffset=0mm|HoleType=Round|Shape=RoundedRectangle|*
%AMROUNDEDRECTD27*
21,1,1.3571,0.0000,0,0,0.0*
21,1,0.7850,0.5721,0,0,0.0*
1,1,0.5721,0.3925,0.0000*
1,1,0.5721,-0.3925,0.0000*
1,1,0.5721,-0.3925,0.0000*
1,1,0.5721,0.3925,0.0000*
%
%ADD27ROUNDEDRECTD27*%
%ADD28R,1.3571X0.5721*%
G04:AMPARAMS|DCode=31|XSize=0.676mm|YSize=0.616mm|CornerRadius=0.1811mm|HoleSize=0mm|Usage=FLASHONLY|Rotation=90.000|XOffset=0mm|YOffset=0mm|HoleType=Round|Shape=RoundedRectangle|*
%AMROUNDEDRECTD31*
21,1,0.6760,0.2538,0,0,90.0*
21,1,0.3138,0.6160,0,0,90.0*
1,1,0.3622,0.1269,0.1569*
1,1,0.3622,0.1269,-0.1569*
1,1,0.3622,-0.1269,-0.1569*
1,1,0.3622,-0.1269,0.1569*
%
%ADD31ROUNDEDRECTD31*%
%ADD32R,2.8860X1.5260*%
%ADD33R,0.6760X1.2760*%
%ADD34R,1.4560X0.9960*%
%ADD35R,1.0760X0.6760*%
%ADD36R,1.5260X2.8860*%
%ADD37R,4.6480X1.9810*%
G04:AMPARAMS|DCode=38|XSize=1.6mm|YSize=3.632mm|CornerRadius=0.419mm|HoleSize=0mm|Usage=FLASHONLY|Rotation=270.000|XOffset=0mm|YOffset=0mm|HoleType=Round|Shape=RoundedRectangle|*
%AMROUNDEDRECTD38*
21,1,1.6000,2.7940,0,0,270.0*
21,1,0.7620,3.6320,0,0,270.0*
1,1,0.8380,-1.3970,-0.3810*
1,1,0.8380,-1.3970,0.3810*
1,1,0.8380,1.3970,0.3810*
1,1,0.8380,1.3970,-0.3810*
%
%ADD38ROUNDEDRECTD38*%
%ADD39R,3.6320X1.6000*%
%ADD40R,4.6480X1.9824*%
%ADD41R,0.8360X2.4760*%
%ADD42R,2.0760X1.2760*%
%ADD43O,2.6160X1.3460*%
%ADD44R,2.6160X1.3460*%
%ADD45C,1.6760*%
G04:AMPARAMS|DCode=46|XSize=1.676mm|YSize=1.676mm|CornerRadius=0.438mm|HoleSize=0mm|Usage=FLASHONLY|Rotation=180.000|XOffset=0mm|YOffset=0mm|HoleType=Round|Shape=RoundedRectangle|*
%AMROUNDEDRECTD46*
21,1,1.6760,0.8000,0,0,180.0*
21,1,0.8000,1.6760,0,0,180.0*
1,1,0.8760,-0.4000,0.4000*
1,1,0.8760,0.4000,0.4000*
1,1,0.8760,0.4000,-0.4000*
1,1,0.8760,-0.4000,-0.4000*
%
%ADD46ROUNDEDRECTD46*%
%ADD47O,3.3260X1.7010*%
%ADD48C,1.3260*%
%ADD49C,1.0760*%
D16*
X351297Y193059D02*
D03*
Y208059D02*
D03*
D27*
X239259Y103930D02*
D03*
X220249Y94430D02*
D03*
X239259Y63930D02*
D03*
X220249Y54430D02*
D03*
D28*
Y113430D02*
D03*
Y73430D02*
D03*
D31*
X379204Y144780D02*
D03*
X370604D02*
D03*
X459754Y68930D02*
D03*
X451154D02*
D03*
D32*
X279754Y138230D02*
D03*
Y109630D02*
D03*
D33*
X429204Y126930D02*
D03*
X416504D02*
D03*
X403804D02*
D03*
X391104D02*
D03*
X378404D02*
D03*
X365704D02*
D03*
X353004D02*
D03*
X340304D02*
D03*
Y70930D02*
D03*
X353004D02*
D03*
X365704D02*
D03*
X378404D02*
D03*
X391104D02*
D03*
X403804D02*
D03*
X416504D02*
D03*
X429204D02*
D03*
D34*
X329754Y180980D02*
D03*
Y161880D02*
D03*
X305562Y211480D02*
D03*
Y192380D02*
D03*
X292254Y54380D02*
D03*
Y73480D02*
D03*
X267254Y54380D02*
D03*
Y73480D02*
D03*
X279754Y192126D02*
D03*
Y211226D02*
D03*
D35*
X438504Y168430D02*
D03*
Y158930D02*
D03*
Y149430D02*
D03*
X466004D02*
D03*
Y168430D02*
D03*
D36*
X429336Y201676D02*
D03*
X400736D02*
D03*
X489776D02*
D03*
X461175D02*
D03*
D37*
X30480Y38862D02*
D03*
D38*
X115570Y170942D02*
D03*
D39*
Y70942D02*
D03*
Y95942D02*
D03*
Y120942D02*
D03*
Y145942D02*
D03*
D40*
X30480Y201422D02*
D03*
D41*
X220824Y194660D02*
D03*
Y155660D02*
D03*
X233524Y194660D02*
D03*
Y155660D02*
D03*
X246224Y194660D02*
D03*
Y155660D02*
D03*
D42*
X523754Y101430D02*
D03*
Y146430D02*
D03*
Y121430D02*
D03*
Y76430D02*
D03*
D43*
X187254Y70630D02*
D03*
Y96030D02*
D03*
Y121430D02*
D03*
Y146830D02*
D03*
D44*
Y172230D02*
D03*
D45*
X364005Y22659D02*
D03*
X414805D02*
D03*
X465605D02*
D03*
X440205D02*
D03*
X389405D02*
D03*
X338605D02*
D03*
X313205D02*
D03*
X410554Y166430D02*
D03*
X385154D02*
D03*
D46*
X491005Y22659D02*
D03*
X359754Y166430D02*
D03*
D47*
X549754Y169930D02*
D03*
Y52930D02*
D03*
D48*
Y133930D02*
D03*
Y88930D02*
D03*
D49*
X517254D02*
D03*
Y132930D02*
D03*
M02*
