G04*
G04 #@! TF.GenerationSoftware,Altium Limited,Altium Designer,24.3.1 (35)*
G04*
G04 Layer_Physical_Order=2*
G04 Layer_Color=16711680*
%FSLAX44Y44*%
%MOMM*%
G71*
G04*
G04 #@! TF.SameCoordinates,DD5606FB-0AE3-4311-A501-CF171F200833*
G04*
G04*
G04 #@! TF.FilePolarity,Positive*
G04*
G01*
G75*
%ADD50C,0.3048*%
%ADD52C,1.0160*%
%ADD53C,0.8890*%
%ADD54C,0.5080*%
%ADD55C,0.6350*%
%ADD56O,2.5400X1.2700*%
%ADD57R,2.5400X1.2700*%
%ADD58C,1.6000*%
G04:AMPARAMS|DCode=59|XSize=1.6mm|YSize=1.6mm|CornerRadius=0.4mm|HoleSize=0mm|Usage=FLASHONLY|Rotation=180.000|XOffset=0mm|YOffset=0mm|HoleType=Round|Shape=RoundedRectangle|*
%AMROUNDEDRECTD59*
21,1,1.6000,0.8000,0,0,180.0*
21,1,0.8000,1.6000,0,0,180.0*
1,1,0.8000,-0.4000,0.4000*
1,1,0.8000,0.4000,0.4000*
1,1,0.8000,0.4000,-0.4000*
1,1,0.8000,-0.4000,-0.4000*
%
%ADD59ROUNDEDRECTD59*%
%ADD60O,3.2500X1.6250*%
%ADD61C,1.2500*%
%ADD62C,1.0000*%
%ADD63C,1.2700*%
%ADD64C,0.6096*%
%ADD65R,0.8000X0.3500*%
%ADD66R,0.8000X0.4000*%
%ADD67R,2.3000X2.2000*%
%ADD68R,1.6000X0.5500*%
G36*
X574294Y151113D02*
X558004D01*
X557360Y150985D01*
X556814Y150620D01*
X556449Y150074D01*
X556321Y149430D01*
Y140333D01*
X555051Y139807D01*
X554605Y140252D01*
X552804Y141293D01*
X550794Y141831D01*
X548714D01*
X546704Y141293D01*
X544903Y140252D01*
X543432Y138781D01*
X542391Y136980D01*
X541853Y134970D01*
Y132890D01*
X542391Y130880D01*
X543432Y129079D01*
X543724Y128787D01*
X543238Y127613D01*
X539754D01*
X539110Y127485D01*
X538564Y127120D01*
X538199Y126574D01*
X538071Y125930D01*
Y95930D01*
X538199Y95286D01*
X538564Y94740D01*
X539110Y94375D01*
X539754Y94247D01*
X542234D01*
X542967Y92977D01*
X542391Y91980D01*
X541853Y89970D01*
Y87890D01*
X542391Y85880D01*
X543432Y84079D01*
X544903Y82608D01*
X546704Y81567D01*
X548714Y81029D01*
X550794D01*
X552804Y81567D01*
X554605Y82608D01*
X555051Y83053D01*
X556321Y82527D01*
Y72430D01*
X556449Y71786D01*
X556814Y71240D01*
X557360Y70875D01*
X558004Y70747D01*
X574294D01*
Y6430D01*
X7112D01*
Y228854D01*
X574294D01*
Y151113D01*
D02*
G37*
%LPC*%
G36*
X416306Y225995D02*
X346202D01*
X344963Y225749D01*
X343913Y225047D01*
X334646Y215780D01*
X332777Y216281D01*
X330671D01*
X328636Y215736D01*
X326811Y214682D01*
X325322Y213193D01*
X324268Y211368D01*
X323723Y209333D01*
Y207227D01*
X324224Y205358D01*
X315143Y196277D01*
X253288D01*
X252049Y196031D01*
X250999Y195329D01*
X205737Y150067D01*
X200923D01*
X200593Y150865D01*
X199310Y152536D01*
X197639Y153819D01*
X195693Y154625D01*
X193604Y154900D01*
X180904D01*
X178815Y154625D01*
X176869Y153819D01*
X175198Y152536D01*
X173915Y150865D01*
X173109Y148919D01*
X172834Y146830D01*
X173109Y144741D01*
X173915Y142795D01*
X175198Y141124D01*
X176869Y139841D01*
X178815Y139035D01*
X180904Y138760D01*
X193604D01*
X195693Y139035D01*
X197639Y139841D01*
X199310Y141124D01*
X200593Y142795D01*
X200923Y143593D01*
X204248D01*
X204734Y142420D01*
X202435Y140120D01*
X201733Y139070D01*
X201487Y137831D01*
Y126386D01*
X200217Y125955D01*
X199310Y127136D01*
X197639Y128419D01*
X195693Y129225D01*
X193604Y129500D01*
X180904D01*
X178815Y129225D01*
X176869Y128419D01*
X175198Y127136D01*
X173915Y125465D01*
X173109Y123519D01*
X172834Y121430D01*
X173109Y119341D01*
X173915Y117395D01*
X175198Y115724D01*
X176869Y114441D01*
X178815Y113635D01*
X180904Y113360D01*
X193604D01*
X195693Y113635D01*
X197639Y114441D01*
X199310Y115724D01*
X200593Y117395D01*
X200923Y118193D01*
X202938D01*
X204177Y118439D01*
X205228Y119141D01*
X207013Y120926D01*
X207715Y121977D01*
X207961Y123216D01*
Y136490D01*
X252354Y180883D01*
X253431Y180164D01*
X253365Y180005D01*
Y178949D01*
X235455Y161039D01*
X234753Y159989D01*
X234507Y158750D01*
Y80395D01*
X232831Y79427D01*
X231342Y77938D01*
X230288Y76113D01*
X229743Y74078D01*
Y71972D01*
X230288Y69937D01*
X231342Y68112D01*
X232831Y66623D01*
X234656Y65569D01*
X236691Y65024D01*
X238797D01*
X240832Y65569D01*
X242657Y66623D01*
X244146Y68112D01*
X245200Y69937D01*
X245745Y71972D01*
Y74078D01*
X245200Y76113D01*
X244146Y77938D01*
X242657Y79427D01*
X240981Y80395D01*
Y157409D01*
X257943Y174371D01*
X258999D01*
X260726Y175086D01*
X262048Y176408D01*
X262763Y178135D01*
Y180005D01*
X262048Y181732D01*
X261597Y182183D01*
X262123Y183453D01*
X298633D01*
X301364Y180722D01*
X300863Y178853D01*
Y176747D01*
X301408Y174712D01*
X302462Y172887D01*
X303951Y171398D01*
X305776Y170344D01*
X307811Y169799D01*
X309917D01*
X311952Y170344D01*
X313777Y171398D01*
X315266Y172887D01*
X316320Y174712D01*
X316682Y176063D01*
X316714D01*
X317953Y176309D01*
X319003Y177011D01*
X355036Y213044D01*
X414797D01*
X419779Y208061D01*
Y172294D01*
X418509Y171953D01*
X418277Y172356D01*
X416480Y174153D01*
X414279Y175423D01*
X411825Y176081D01*
X410504D01*
X391285Y195301D01*
X389879Y196380D01*
X388241Y197058D01*
X386484Y197289D01*
X357124D01*
X355367Y197058D01*
X353730Y196380D01*
X352323Y195301D01*
X293903Y136881D01*
X292824Y135475D01*
X292146Y133837D01*
X291915Y132080D01*
Y96538D01*
X238996Y43619D01*
X227458D01*
X225483Y45594D01*
Y70940D01*
X225252Y72697D01*
X224573Y74335D01*
X223495Y75741D01*
X201442Y97793D01*
X201399Y98119D01*
X200593Y100065D01*
X199310Y101736D01*
X197639Y103019D01*
X195693Y103825D01*
X193604Y104100D01*
X180904D01*
X178815Y103825D01*
X176869Y103019D01*
X175198Y101736D01*
X173915Y100065D01*
X173109Y98119D01*
X172834Y96030D01*
X173109Y93941D01*
X173915Y91995D01*
X175198Y90324D01*
X176869Y89041D01*
X178815Y88235D01*
X180904Y87960D01*
X192073D01*
X211905Y68128D01*
Y42782D01*
X212136Y41024D01*
X212815Y39387D01*
X213893Y37981D01*
X219716Y32158D01*
X219643Y31644D01*
X219246Y30888D01*
X202294D01*
X201457Y31725D01*
Y65979D01*
X201094Y67805D01*
X201399Y68541D01*
X201674Y70630D01*
X201399Y72719D01*
X200593Y74665D01*
X199310Y76336D01*
X197639Y77619D01*
X195693Y78425D01*
X193604Y78700D01*
X180904D01*
X178815Y78425D01*
X176869Y77619D01*
X175198Y76336D01*
X173915Y74665D01*
X173109Y72719D01*
X172834Y70630D01*
X173109Y68541D01*
X173915Y66595D01*
X175198Y64924D01*
X176869Y63641D01*
X178815Y62835D01*
X180904Y62560D01*
X191616D01*
Y29687D01*
X191991Y27804D01*
X193057Y26208D01*
X196777Y22488D01*
X198373Y21421D01*
X200256Y21047D01*
X251012D01*
X252894Y21421D01*
X254491Y22488D01*
X318693Y86691D01*
X319760Y88287D01*
X320135Y90170D01*
Y115719D01*
X323414Y118999D01*
X323887D01*
X325922Y119544D01*
X327747Y120598D01*
X329236Y122087D01*
X330290Y123912D01*
X330835Y125947D01*
Y128042D01*
X358918Y156125D01*
X359281Y156668D01*
X363754D01*
X365959Y157107D01*
X367828Y158356D01*
X369077Y160225D01*
X369516Y162430D01*
Y170430D01*
X369077Y172635D01*
X367828Y174504D01*
X365959Y175753D01*
X363754Y176192D01*
X355754D01*
X353830Y175809D01*
X353114Y176781D01*
X353082Y176856D01*
X359936Y183711D01*
X383672D01*
X400903Y166480D01*
Y165159D01*
X401561Y162705D01*
X402831Y160504D01*
X404628Y158707D01*
X406829Y157437D01*
X407644Y157218D01*
X408023Y155802D01*
X400056Y147835D01*
X398187Y148336D01*
X396081D01*
X394046Y147791D01*
X392221Y146737D01*
X390732Y145248D01*
X390697Y145188D01*
X389427Y145528D01*
Y157753D01*
X391080Y158707D01*
X392877Y160504D01*
X394147Y162705D01*
X394805Y165159D01*
Y167701D01*
X394147Y170155D01*
X392877Y172356D01*
X391080Y174153D01*
X388879Y175423D01*
X386425Y176081D01*
X383883D01*
X381429Y175423D01*
X379228Y174153D01*
X377431Y172356D01*
X376161Y170155D01*
X375503Y167701D01*
Y165159D01*
X376161Y162705D01*
X377431Y160504D01*
X379228Y158707D01*
X380881Y157753D01*
Y121968D01*
X381206Y120333D01*
X381945Y119227D01*
X380959Y118417D01*
X380452Y118924D01*
X378627Y119978D01*
X376592Y120523D01*
X374486D01*
X372451Y119978D01*
X370626Y118924D01*
X369137Y117435D01*
X368998Y117196D01*
X367729D01*
X367590Y117435D01*
X366101Y118924D01*
X364276Y119978D01*
X362241Y120523D01*
X360135D01*
X358100Y119978D01*
X356275Y118924D01*
X354786Y117435D01*
X353732Y115610D01*
X353187Y113575D01*
Y111469D01*
X353690Y109590D01*
X351921Y107821D01*
X350062Y108319D01*
X347955D01*
X345920Y107773D01*
X344096Y106720D01*
X342606Y105230D01*
X341553Y103406D01*
X341007Y101371D01*
Y99264D01*
X341553Y97229D01*
X342606Y95405D01*
X344096Y93915D01*
X345920Y92862D01*
X347955Y92317D01*
X350062D01*
X350328Y92388D01*
X351227Y91490D01*
X351155Y91223D01*
Y89117D01*
X351700Y87082D01*
X352754Y85257D01*
X354243Y83768D01*
X356068Y82714D01*
X358103Y82169D01*
X360209D01*
X362244Y82714D01*
X364069Y83768D01*
X365558Y85257D01*
X366612Y87082D01*
X367157Y89117D01*
Y91223D01*
X366656Y93092D01*
X375981Y102417D01*
X376683Y103467D01*
X376909Y104606D01*
X378627Y105066D01*
X380452Y106120D01*
X381941Y107609D01*
X382315Y108256D01*
X383585Y107916D01*
Y99041D01*
X383910Y97406D01*
X384836Y96019D01*
X405773Y75083D01*
X407159Y74157D01*
X408794Y73832D01*
X420647D01*
X421016Y73192D01*
X422505Y71703D01*
X424330Y70649D01*
X426365Y70104D01*
X428472D01*
X430507Y70649D01*
X432331Y71703D01*
X433821Y73192D01*
X434874Y75017D01*
X435419Y77052D01*
Y79158D01*
X434874Y81193D01*
X433821Y83018D01*
X432331Y84507D01*
X430507Y85561D01*
X428472Y86106D01*
X426365D01*
X424330Y85561D01*
X422505Y84507D01*
X421016Y83018D01*
X420647Y82378D01*
X410564D01*
X405913Y87029D01*
X406399Y88203D01*
X462125D01*
X463363Y88449D01*
X464414Y89151D01*
X474602Y99339D01*
X475304Y100390D01*
X475550Y101628D01*
Y106783D01*
X476833Y108066D01*
X478103Y107540D01*
Y98529D01*
X497405D01*
Y103604D01*
X498675Y103945D01*
X499312Y102842D01*
X500801Y101352D01*
X502626Y100299D01*
X504661Y99754D01*
X506767D01*
X508802Y100299D01*
X510627Y101352D01*
X512116Y102842D01*
X513170Y104666D01*
X513715Y106701D01*
Y108808D01*
X513170Y110843D01*
X512116Y112667D01*
X510627Y114157D01*
X510387Y114295D01*
Y115565D01*
X510627Y115703D01*
X512116Y117193D01*
X513170Y119017D01*
X513715Y121052D01*
Y123159D01*
X513170Y125194D01*
X512301Y126698D01*
X513170Y127608D01*
X514687Y126732D01*
X516378Y126279D01*
X518130D01*
X519821Y126732D01*
X521338Y127608D01*
X522576Y128846D01*
X523452Y130363D01*
X523905Y132054D01*
Y133806D01*
X523452Y135497D01*
X522576Y137014D01*
X521338Y138252D01*
X519821Y139128D01*
X518130Y139581D01*
X516378D01*
X514687Y139128D01*
X513170Y138252D01*
X511932Y137014D01*
X511056Y135497D01*
X510603Y133806D01*
Y132054D01*
X511056Y130363D01*
X511723Y129207D01*
X510707Y128427D01*
X510627Y128508D01*
X508802Y129561D01*
X506767Y130106D01*
X504661D01*
X502626Y129561D01*
X500801Y128508D01*
X499312Y127018D01*
X498675Y125916D01*
X497405Y126256D01*
Y131331D01*
X489854D01*
X489637Y131476D01*
X487754Y131851D01*
X472492D01*
X471263Y132672D01*
X468884Y133145D01*
X457319D01*
X449934Y140531D01*
X449670Y141518D01*
X448616Y143343D01*
X447127Y144832D01*
X445302Y145886D01*
X443267Y146431D01*
X441161D01*
X439126Y145886D01*
X437301Y144832D01*
X435812Y143343D01*
X434758Y141518D01*
X434213Y139483D01*
Y137377D01*
X434404Y136663D01*
X430233Y132492D01*
X429307Y131106D01*
X428982Y129471D01*
Y125725D01*
X427267D01*
Y118923D01*
X430464D01*
X431283Y118376D01*
X432918Y118051D01*
X434553Y118376D01*
X435372Y118923D01*
X438569D01*
Y125725D01*
X437528D01*
Y127701D01*
X440447Y130620D01*
X441161Y130429D01*
X442456D01*
X450350Y122535D01*
X452366Y121188D01*
X454745Y120715D01*
X457245D01*
Y107870D01*
X456772Y107397D01*
X454835D01*
X453200Y107072D01*
X451814Y106146D01*
X451433Y105765D01*
X450506Y104378D01*
X450181Y102743D01*
X450506Y101108D01*
X450660Y100877D01*
X450062Y99757D01*
X407097D01*
Y105431D01*
X408267Y105673D01*
Y105673D01*
X410517D01*
X411429Y105063D01*
X412668Y104817D01*
X413918D01*
X415157Y105063D01*
X416069Y105673D01*
X419569D01*
Y112975D01*
X413274D01*
X412560Y113688D01*
X412084Y114554D01*
X412560Y115420D01*
X413731Y116590D01*
X414433Y117641D01*
X414491Y117931D01*
X415157Y118063D01*
X416069Y118673D01*
X419569D01*
Y125975D01*
X408267D01*
Y120331D01*
X403541D01*
X402303Y120085D01*
X401252Y119383D01*
X396491Y114622D01*
X395789Y113572D01*
X395543Y112333D01*
Y99059D01*
X394370Y98573D01*
X392131Y100811D01*
Y119264D01*
X391806Y120900D01*
X390880Y122286D01*
X389427Y123738D01*
Y135142D01*
X390697Y135482D01*
X390732Y135422D01*
X392221Y133933D01*
X394046Y132879D01*
X396081Y132334D01*
X398187D01*
X400222Y132879D01*
X402047Y133933D01*
X403537Y135422D01*
X404590Y137247D01*
X405135Y139282D01*
Y141388D01*
X404634Y143257D01*
X406273Y144896D01*
X407543Y144370D01*
Y143727D01*
X408088Y141692D01*
X409142Y139867D01*
X410631Y138378D01*
X412456Y137324D01*
X414491Y136779D01*
X416597D01*
X418632Y137324D01*
X420457Y138378D01*
X421946Y139867D01*
X423000Y141692D01*
X423545Y143727D01*
Y145833D01*
X423000Y147868D01*
X422121Y149391D01*
X430533Y157803D01*
X431235Y158853D01*
X431481Y160092D01*
Y210820D01*
X431235Y212059D01*
X430533Y213109D01*
X418595Y225047D01*
X417545Y225749D01*
X416306Y225995D01*
D02*
G37*
G36*
X438569Y112725D02*
X427267D01*
Y105923D01*
X438569D01*
Y112725D01*
D02*
G37*
G36*
X518130Y95581D02*
X516378D01*
X514687Y95128D01*
X513170Y94252D01*
X511932Y93014D01*
X511056Y91497D01*
X510603Y89806D01*
Y88054D01*
X511056Y86363D01*
X511932Y84846D01*
X513170Y83608D01*
X514687Y82732D01*
X516378Y82279D01*
X518130D01*
X519821Y82732D01*
X521338Y83608D01*
X522576Y84846D01*
X523452Y86363D01*
X523905Y88054D01*
Y89806D01*
X523452Y91497D01*
X522576Y93014D01*
X521338Y94252D01*
X519821Y95128D01*
X518130Y95581D01*
D02*
G37*
G36*
X313473Y68961D02*
X311367D01*
X309332Y68416D01*
X307507Y67362D01*
X306018Y65873D01*
X304964Y64048D01*
X304419Y62013D01*
Y59907D01*
X304964Y57872D01*
X306018Y56047D01*
X307507Y54558D01*
X309332Y53504D01*
X311367Y52959D01*
X313473D01*
X315508Y53504D01*
X317031Y54383D01*
X320871Y50543D01*
X321921Y49841D01*
X323160Y49595D01*
X338832D01*
X339800Y47919D01*
X341289Y46430D01*
X343114Y45376D01*
X345149Y44831D01*
X347255D01*
X349290Y45376D01*
X351115Y46430D01*
X352604Y47919D01*
X353658Y49744D01*
X354203Y51779D01*
Y53885D01*
X353658Y55920D01*
X352604Y57745D01*
X351115Y59234D01*
X349290Y60288D01*
X347255Y60833D01*
X345149D01*
X343114Y60288D01*
X341289Y59234D01*
X339800Y57745D01*
X338832Y56069D01*
X324501D01*
X320421Y60149D01*
Y62013D01*
X319876Y64048D01*
X318822Y65873D01*
X317333Y67362D01*
X315508Y68416D01*
X313473Y68961D01*
D02*
G37*
G36*
X369084Y69825D02*
X366977D01*
X364942Y69280D01*
X363118Y68226D01*
X361628Y66736D01*
X360575Y64912D01*
X360029Y62877D01*
Y60771D01*
X360575Y58736D01*
X361628Y56911D01*
X363118Y55421D01*
X364942Y54368D01*
X366977Y53823D01*
X369084D01*
X371119Y54368D01*
X372943Y55421D01*
X374433Y56911D01*
X375486Y58736D01*
X375735Y59664D01*
X404420D01*
X404906Y58491D01*
X404829Y58415D01*
X404114Y56688D01*
Y54818D01*
X404829Y53091D01*
X406151Y51769D01*
X407878Y51054D01*
X408934D01*
X410909Y49079D01*
X410189Y48003D01*
X409875Y48133D01*
X408005D01*
X406278Y47418D01*
X405532Y46671D01*
X359380D01*
X358141Y46425D01*
X357090Y45723D01*
X342768Y31400D01*
X342330Y31653D01*
X339876Y32310D01*
X337334D01*
X334880Y31653D01*
X332679Y30382D01*
X330882Y28585D01*
X329612Y26385D01*
X328954Y23930D01*
Y21389D01*
X329612Y18934D01*
X330882Y16734D01*
X332679Y14937D01*
X334880Y13666D01*
X337334Y13008D01*
X339876D01*
X342330Y13666D01*
X344531Y14937D01*
X346328Y16734D01*
X347598Y18934D01*
X348256Y21389D01*
Y23930D01*
X347598Y26385D01*
X347346Y26822D01*
X360720Y40197D01*
X405097D01*
X405610Y39612D01*
X405299Y38688D01*
X405057Y38317D01*
X403944Y38096D01*
X402894Y37394D01*
X395606Y30106D01*
X395331Y30382D01*
X393130Y31653D01*
X390676Y32310D01*
X388134D01*
X385680Y31653D01*
X383479Y30382D01*
X381682Y28585D01*
X380412Y26385D01*
X379754Y23930D01*
Y21389D01*
X380412Y18934D01*
X381682Y16734D01*
X383479Y14937D01*
X385680Y13666D01*
X388134Y13008D01*
X390676D01*
X393130Y13666D01*
X395331Y14937D01*
X397128Y16734D01*
X398398Y18934D01*
X399056Y21389D01*
Y23930D01*
X398957Y24301D01*
X406524Y31868D01*
X408912D01*
X409253Y30598D01*
X408879Y30382D01*
X407082Y28585D01*
X405812Y26385D01*
X405154Y23930D01*
Y21389D01*
X405812Y18934D01*
X407082Y16734D01*
X408879Y14937D01*
X411080Y13666D01*
X413534Y13008D01*
X416076D01*
X418530Y13666D01*
X420731Y14937D01*
X422528Y16734D01*
X423798Y18934D01*
X424456Y21389D01*
Y23930D01*
X423798Y26385D01*
X422528Y28585D01*
X420731Y30382D01*
X418530Y31653D01*
X417313Y31979D01*
X416934Y33395D01*
X420119Y36580D01*
X420821Y37631D01*
X421067Y38870D01*
Y46736D01*
X420821Y47975D01*
X420119Y49025D01*
X413512Y55632D01*
Y56688D01*
X412797Y58415D01*
X412720Y58491D01*
X413206Y59664D01*
X424022D01*
X456864Y26822D01*
X456612Y26385D01*
X455954Y23930D01*
Y21389D01*
X456612Y18934D01*
X457882Y16734D01*
X459679Y14937D01*
X461880Y13666D01*
X464334Y13008D01*
X466876D01*
X469330Y13666D01*
X471531Y14937D01*
X473328Y16734D01*
X474598Y18934D01*
X475256Y21389D01*
Y23930D01*
X474598Y26385D01*
X473328Y28585D01*
X471531Y30382D01*
X469330Y31653D01*
X466876Y32310D01*
X464334D01*
X461880Y31653D01*
X461442Y31400D01*
X427652Y65191D01*
X426602Y65892D01*
X425363Y66139D01*
X374778D01*
X374433Y66736D01*
X372943Y68226D01*
X371119Y69280D01*
X369084Y69825D01*
D02*
G37*
G36*
X441476Y32310D02*
X438934D01*
X436480Y31653D01*
X434279Y30382D01*
X432482Y28585D01*
X431212Y26385D01*
X430554Y23930D01*
Y21389D01*
X431212Y18934D01*
X432482Y16734D01*
X434279Y14937D01*
X436480Y13666D01*
X438934Y13008D01*
X441476D01*
X443930Y13666D01*
X446131Y14937D01*
X447928Y16734D01*
X449198Y18934D01*
X449856Y21389D01*
Y23930D01*
X449198Y26385D01*
X447928Y28585D01*
X446131Y30382D01*
X443930Y31653D01*
X441476Y32310D01*
D02*
G37*
G36*
X365276D02*
X362734D01*
X360280Y31653D01*
X358079Y30382D01*
X356282Y28585D01*
X355012Y26385D01*
X354354Y23930D01*
Y21389D01*
X355012Y18934D01*
X356282Y16734D01*
X358079Y14937D01*
X360280Y13666D01*
X362734Y13008D01*
X365276D01*
X367730Y13666D01*
X369931Y14937D01*
X371728Y16734D01*
X372998Y18934D01*
X373656Y21389D01*
Y23930D01*
X372998Y26385D01*
X371728Y28585D01*
X369931Y30382D01*
X367730Y31653D01*
X365276Y32310D01*
D02*
G37*
G36*
X314476D02*
X311934D01*
X309480Y31653D01*
X307279Y30382D01*
X305482Y28585D01*
X304212Y26385D01*
X303554Y23930D01*
Y21389D01*
X304212Y18934D01*
X305482Y16734D01*
X307279Y14937D01*
X309480Y13666D01*
X311934Y13008D01*
X314476D01*
X316930Y13666D01*
X319131Y14937D01*
X320928Y16734D01*
X322198Y18934D01*
X322856Y21389D01*
Y23930D01*
X322198Y26385D01*
X320928Y28585D01*
X319131Y30382D01*
X316930Y31653D01*
X314476Y32310D01*
D02*
G37*
G36*
X495005Y32421D02*
X487005D01*
X484800Y31983D01*
X482931Y30733D01*
X481682Y28864D01*
X481243Y26659D01*
Y18659D01*
X481682Y16454D01*
X482931Y14585D01*
X484800Y13336D01*
X487005Y12898D01*
X495005D01*
X497210Y13336D01*
X499079Y14585D01*
X500328Y16454D01*
X500767Y18659D01*
Y26659D01*
X500328Y28864D01*
X499079Y30733D01*
X497210Y31983D01*
X495005Y32421D01*
D02*
G37*
%LPD*%
D50*
X425363Y62902D02*
X465605Y22659D01*
X369108Y62902D02*
X425363D01*
X368031Y61824D02*
X369108Y62902D01*
X479726Y112156D02*
X486528D01*
X487754Y110930D01*
Y94930D02*
X490026Y93704D01*
Y77406D02*
Y93704D01*
Y77406D02*
X491254Y67930D01*
X487754Y110930D02*
X499927D01*
X503102Y107754D01*
X505714D01*
X491254Y67930D02*
X546254D01*
X479726Y117704D02*
X486528D01*
X487754Y118930D01*
X499927D01*
X503102Y122106D01*
X505714D01*
X491254Y153930D02*
X546254D01*
X315032Y60960D02*
X323160Y52832D01*
X312420Y60960D02*
X315032D01*
X323160Y52832D02*
X346202D01*
X359380Y43434D02*
X408940D01*
X338605Y22659D02*
X359380Y43434D01*
X405183Y35105D02*
X414066D01*
X387353Y17275D02*
X405183Y35105D01*
X186737Y146313D02*
X187254Y146830D01*
X416306Y222758D02*
X428244Y210820D01*
X331724Y208280D02*
X346202Y222758D01*
X416306D01*
X237744Y158750D02*
X258064Y179070D01*
X237744Y73025D02*
Y158750D01*
X373692Y104706D02*
Y110675D01*
X349008Y100318D02*
Y100330D01*
X361188Y112510D02*
Y112522D01*
X373692Y110675D02*
X375539Y112522D01*
X359156Y90170D02*
X373692Y104706D01*
X349008Y100330D02*
X361188Y112510D01*
X405645Y112014D02*
X409656D01*
X398780Y96201D02*
X403541Y91440D01*
X398780Y112333D02*
X403541Y117094D01*
Y91440D02*
X462125D01*
X398780Y96201D02*
Y112333D01*
X403860Y98306D02*
Y110229D01*
X405645Y96520D02*
X460020D01*
X403860Y110229D02*
X405645Y112014D01*
X403860Y98306D02*
X405645Y96520D01*
X403541Y117094D02*
X409656D01*
X412668Y108054D02*
X413918D01*
X411442Y109280D02*
Y110229D01*
X412668Y121054D02*
X413918D01*
X409656Y117094D02*
X411442Y118879D01*
X409656Y112014D02*
X411442Y110229D01*
Y118879D02*
Y119828D01*
X412668Y121054D01*
X411442Y109280D02*
X412668Y108054D01*
X460020Y96520D02*
X467233Y103733D01*
X476579Y112390D02*
X479492D01*
X472313Y108124D02*
X476579Y112390D01*
X479492D02*
X479726Y112156D01*
X474475Y117470D02*
X479492D01*
X467233Y110228D02*
X474475Y117470D01*
X467233Y103733D02*
Y110228D01*
X462125Y91440D02*
X472313Y101628D01*
Y108124D01*
X479492Y117470D02*
X479726Y117704D01*
X353695Y216281D02*
X416138D01*
X316714Y179300D02*
X353695Y216281D01*
X416138D02*
X423016Y209402D01*
Y163088D02*
Y209402D01*
X308864Y177800D02*
X310364Y179300D01*
X316714D01*
X411104Y154305D02*
X414233D01*
X423016Y163088D01*
X397134Y140335D02*
X411104Y154305D01*
X415544Y147392D02*
X428244Y160092D01*
Y210820D01*
X415544Y144780D02*
Y147392D01*
X299974Y186690D02*
X308864Y177800D01*
X253583Y186690D02*
X299974D01*
X253288Y193040D02*
X316484D01*
X331724Y208280D01*
X187254Y146830D02*
X207078D01*
X253288Y193040D01*
X204724Y137831D02*
X253583Y186690D01*
X204724Y123216D02*
Y137831D01*
X187254Y121430D02*
X202938D01*
X204724Y123216D01*
X392824Y139941D02*
X396740D01*
X397134Y140335D01*
X414066Y35105D02*
X417830Y38870D01*
Y46736D01*
X408813Y55753D02*
X417830Y46736D01*
D52*
X187179Y95955D02*
X187254Y96030D01*
X241808Y36830D02*
X298704Y93726D01*
Y132080D02*
X357124Y190500D01*
X298704Y93726D02*
Y132080D01*
X224646Y36830D02*
X241808D01*
X386484Y190500D02*
X410554Y166430D01*
X357124Y190500D02*
X386484D01*
X218694Y42782D02*
Y70940D01*
Y42782D02*
X224646Y36830D01*
X187254Y96030D02*
X193604D01*
X218694Y70940D01*
D53*
X461518Y126930D02*
X468884D01*
X454745D02*
X461518D01*
X443245Y138430D02*
X454745Y126930D01*
X442214Y138430D02*
X443245D01*
D54*
X433255Y122661D02*
Y129471D01*
X432918Y122324D02*
X433255Y122661D01*
Y129471D02*
X442214Y138430D01*
X385154Y121968D02*
X387858Y119264D01*
Y99041D02*
Y119264D01*
Y99041D02*
X408794Y78105D01*
X385154Y121968D02*
Y166430D01*
X408794Y78105D02*
X427418D01*
X458542Y103124D02*
X461518Y106100D01*
Y126930D01*
X454835Y103124D02*
X458542D01*
X454454Y102743D02*
X454835Y103124D01*
D55*
X187245Y70621D02*
X187254Y70630D01*
X191886D01*
X200256Y25968D02*
X251012D01*
X315214Y90170D01*
X355438Y162114D02*
X359754Y166430D01*
X322834Y127000D02*
X355438Y159604D01*
Y162114D01*
X322834Y127000D02*
X322834D01*
X315214Y90170D02*
Y117757D01*
X468884Y126930D02*
X487754D01*
X315214Y117757D02*
X322834Y125377D01*
Y127000D01*
X196537Y29687D02*
Y65979D01*
Y29687D02*
X200256Y25968D01*
X191886Y70630D02*
X196537Y65979D01*
D56*
X187254Y70630D02*
D03*
Y96030D02*
D03*
Y121430D02*
D03*
Y146830D02*
D03*
D57*
Y172230D02*
D03*
D58*
X364005Y22659D02*
D03*
X414805D02*
D03*
X465605D02*
D03*
X440205D02*
D03*
X389405D02*
D03*
X338605D02*
D03*
X313205D02*
D03*
X410554Y166430D02*
D03*
X385154D02*
D03*
D59*
X491005Y22659D02*
D03*
X359754Y166430D02*
D03*
D60*
X549754Y169930D02*
D03*
Y52930D02*
D03*
D61*
Y133930D02*
D03*
Y88930D02*
D03*
D62*
X517254D02*
D03*
Y132930D02*
D03*
D63*
X365400Y205207D02*
D03*
X505714Y122106D02*
D03*
Y107754D02*
D03*
X346202Y52832D02*
D03*
X466344Y57150D02*
D03*
X301244Y158750D02*
D03*
X237744Y73025D02*
D03*
X361188Y112522D02*
D03*
X375539D02*
D03*
X359156Y90170D02*
D03*
X349008Y100318D02*
D03*
X427418Y78105D02*
D03*
X450088Y115062D02*
D03*
X368031Y61824D02*
D03*
X312420Y60960D02*
D03*
X322834Y127000D02*
D03*
X87884Y38100D02*
D03*
X86614Y199390D02*
D03*
X452374Y157480D02*
D03*
X442214Y138430D02*
D03*
X415544Y144780D02*
D03*
X308864Y177800D02*
D03*
X397134Y140335D02*
D03*
X331724Y208280D02*
D03*
D64*
X258064Y179070D02*
D03*
X408813Y55753D02*
D03*
X408940Y43434D02*
D03*
D65*
X432918Y109324D02*
D03*
Y122324D02*
D03*
Y115824D02*
D03*
D66*
X413918Y122324D02*
D03*
Y109324D02*
D03*
D67*
X491254Y67930D02*
D03*
Y153930D02*
D03*
X546254Y67930D02*
D03*
Y153930D02*
D03*
D68*
X487754Y94930D02*
D03*
Y102930D02*
D03*
Y110930D02*
D03*
Y118930D02*
D03*
Y126930D02*
D03*
M02*
