M48
;Layer_Color=9474304
;FILE_FORMAT=2:5
INCH,LZ
;TYPE=PLATED
T01F00S00C0.01200
T03F00S00C0.02800
T04F00S00C0.04000
%
T01
X00371Y00146
X0037Y0022074
Y0024774
X00335Y0027
X00338Y00206
X00359Y00405
X00374Y00636
X00347Y00669
X00318Y00816
X00327Y0084794
X00374Y00856
X00382Y00819
X00284Y00793
X00276Y00946
X0049223Y0089865
X00483Y00842
X00578Y0085207
X00588Y00823
Y00789
X00591Y00749
X0059Y00716
X00701Y0065
X0077Y00651
X00773Y00614
X0073077Y0056003
X00767Y00503
X00838Y00518
X00914Y00537
X0095Y0053
X0089Y00596
X00918Y00626
X0098Y00645
X01025
X0104Y00603
X0105Y00447
X01047Y00408
Y00373
X01048Y00334
X01003
X01002Y00373
Y00408
X01092
Y00373
X01095Y00447
X0114
X01235Y00573
X0129Y0037
X0129132Y0033677
X0124979Y0031732
X01401Y00341
X01515Y0035
X0155
X01581
X01703Y00561
X0173528Y0057772
X01841Y00631
X01892Y00642
X0193241Y0063641
X01914Y0075
X01896Y005295
Y004975
X01863Y00484
X01862Y00545
X01937Y00397
X01966Y00425
X01688Y0094
X01156Y00799
X01108Y00766
X01036Y0082556
X00921Y00829
X00865Y0079
Y00765
Y0074
X0084
Y00765
Y0079
X00815
Y00765
Y0074
X00858Y00652
X00967Y00711
X0088Y0089
X00839Y00883
X0082Y00365
Y0033
Y00295
Y0026
Y00225
X00865
Y0026
Y00295
Y0033
Y00365
X00775
Y0033
Y00295
Y0026
Y00225
X00615Y00196
X0059Y0017
X0056
X00493Y00171
X0056Y0029
X00605
X00643
X00995
X0045714Y0065775
X02071Y0067
X02103Y00697
X021Y00731
X0207Y00752
X02048Y00779
X0218257Y0075
X022495
X0222Y0072
X0219909Y006762
X02213Y00613
X02185Y00588
X0223Y0054026
Y005
X0219Y0044
Y004
X02207Y0035
X0221521Y0030921
X0228214
X0234907
X02416
X0248293
X0254954Y00298
X02583
X02658Y0029553
Y00329
X0265675Y0036187
Y0039534
Y004288
Y0046227
Y0049573
Y005292
Y0056266
Y0059613
Y0062959
Y0066306
Y0069652
Y0072999
Y0076345
X026174Y0077015
X02624Y00847
X026918Y008648
X02448Y00893
X02408Y00937
X0238335Y0075
X0231643
X0228467Y0068866
X023516
X0242Y00697
X0241641Y0063902
X02384Y0056
Y005
X02449
Y0056
X0252582Y0052961
Y0059457
X02527Y00464
X0251468Y0037055
X0244775
X0238082
X0231389
X0224696
X02099Y00371
X02065Y00365
X0206179Y0042921
X02062Y00484
X0202598Y0048138
X02023Y00546
X02059Y00545
X02013Y0042
X0204Y0031
X02307Y00464
Y0052961
Y0059457
X0248631Y0068863
X025168Y007418
X0244987
X02416Y00425
X02454Y00124
X02481
X02543Y00198
X02651Y00199
X026898Y002108
T03
X00375Y0045
Y005
Y0055
X0138Y00519
Y00469
T04
X0036Y0006
Y0102
X0046
X0056
X0066
X0076
X0086
X0096
X0106
X0116
X0126
X0136
X0146
X0156
X0166
X0176
X0186
X0196
Y0006
X0186
X0176
X0166
X0156
X0146
X0136
X0126
X0116
X0106
X0096
X0086
X0076
X0066
X0056
X0046
X0206
X0216
X0226
X0236
X0246
X0256
X0266
Y0102
X0256
X0246
X0236
X0226
X0216
X0206
M30
