G04*
G04 #@! TF.GenerationSoftware,Altium Limited,Altium Designer,24.3.1 (35)*
G04*
G04 Layer_Physical_Order=2*
G04 Layer_Color=16711680*
%FSLAX25Y25*%
%MOIN*%
G70*
G04*
G04 #@! TF.SameCoordinates,18358673-9EB0-4F65-8AD0-3A3BFD57A4A7*
G04*
G04*
G04 #@! TF.FilePolarity,Positive*
G04*
G01*
G75*
%ADD11C,0.01000*%
G04:AMPARAMS|DCode=52|XSize=39.37mil|YSize=86.61mil|CornerRadius=19.68mil|HoleSize=0mil|Usage=FLASHONLY|Rotation=270.000|XOffset=0mil|YOffset=0mil|HoleType=Round|Shape=RoundedRectangle|*
%AMROUNDEDRECTD52*
21,1,0.03937,0.04724,0,0,270.0*
21,1,0.00000,0.08661,0,0,270.0*
1,1,0.03937,-0.02362,0.00000*
1,1,0.03937,-0.02362,0.00000*
1,1,0.03937,0.02362,0.00000*
1,1,0.03937,0.02362,0.00000*
%
%ADD52ROUNDEDRECTD52*%
G04:AMPARAMS|DCode=53|XSize=39.37mil|YSize=70.87mil|CornerRadius=19.68mil|HoleSize=0mil|Usage=FLASHONLY|Rotation=270.000|XOffset=0mil|YOffset=0mil|HoleType=Round|Shape=RoundedRectangle|*
%AMROUNDEDRECTD53*
21,1,0.03937,0.03150,0,0,270.0*
21,1,0.00000,0.07087,0,0,270.0*
1,1,0.03937,-0.01575,0.00000*
1,1,0.03937,-0.01575,0.00000*
1,1,0.03937,0.01575,0.00000*
1,1,0.03937,0.01575,0.00000*
%
%ADD53ROUNDEDRECTD53*%
%ADD58C,0.03000*%
%ADD59C,0.02000*%
%ADD60C,0.04000*%
%ADD61C,0.00603*%
%ADD63C,0.00623*%
%ADD64R,0.04000X0.04000*%
%ADD65C,0.04000*%
%ADD66C,0.06400*%
%ADD67R,0.06400X0.06400*%
%ADD68C,0.02400*%
%ADD69C,0.01200*%
G36*
X271000Y0D02*
X1000D01*
Y108000D01*
X271000D01*
Y0D01*
D02*
G37*
%LPC*%
G36*
X246275Y106200D02*
X245725D01*
X245179Y106128D01*
X244647Y105986D01*
X244138Y105775D01*
X243662Y105500D01*
X243225Y105165D01*
X242835Y104775D01*
X242500Y104338D01*
X242225Y103862D01*
X242014Y103353D01*
X241872Y102821D01*
X241800Y102275D01*
Y101725D01*
X241872Y101179D01*
X242014Y100647D01*
X242225Y100138D01*
X242500Y99662D01*
X242835Y99225D01*
X243225Y98835D01*
X243662Y98500D01*
X244138Y98225D01*
X244647Y98014D01*
X245179Y97872D01*
X245725Y97800D01*
X246275D01*
X246821Y97872D01*
X247353Y98014D01*
X247862Y98225D01*
X248338Y98500D01*
X248775Y98835D01*
X249165Y99225D01*
X249500Y99662D01*
X249775Y100138D01*
X249986Y100647D01*
X250128Y101179D01*
X250200Y101725D01*
Y102275D01*
X250128Y102821D01*
X249986Y103353D01*
X249775Y103862D01*
X249500Y104338D01*
X249165Y104775D01*
X248775Y105165D01*
X248338Y105500D01*
X247862Y105775D01*
X247353Y105986D01*
X246821Y106128D01*
X246275Y106200D01*
D02*
G37*
G36*
X36275D02*
X35725D01*
X35179Y106128D01*
X34647Y105986D01*
X34138Y105775D01*
X33662Y105500D01*
X33225Y105165D01*
X32836Y104775D01*
X32500Y104338D01*
X32225Y103862D01*
X32014Y103353D01*
X31872Y102821D01*
X31800Y102275D01*
Y101725D01*
X31872Y101179D01*
X32014Y100647D01*
X32225Y100138D01*
X32500Y99662D01*
X32836Y99225D01*
X33050Y99010D01*
X32843Y98510D01*
X30003D01*
X29709Y98481D01*
X29426Y98396D01*
X29166Y98256D01*
X28937Y98069D01*
X28750Y97840D01*
X28611Y97580D01*
X28525Y97297D01*
X28503Y97072D01*
X27822Y96391D01*
X27777Y96400D01*
X27423D01*
X27075Y96331D01*
X26747Y96195D01*
X26453Y95998D01*
X26202Y95747D01*
X26005Y95453D01*
X25869Y95125D01*
X25800Y94777D01*
Y94423D01*
X25869Y94075D01*
X26005Y93747D01*
X26202Y93453D01*
X26453Y93202D01*
X26747Y93005D01*
X27075Y92869D01*
X27423Y92800D01*
X27777D01*
X28125Y92869D01*
X28453Y93005D01*
X28747Y93202D01*
X28998Y93453D01*
X29195Y93747D01*
X29331Y94075D01*
X29400Y94423D01*
Y94777D01*
X29391Y94822D01*
X30065Y95496D01*
X39373D01*
X45966Y88902D01*
X46195Y88715D01*
X46455Y88575D01*
X46738Y88490D01*
X47032Y88461D01*
X47525D01*
X47545Y88432D01*
X47790Y88187D01*
X48070Y87984D01*
X48379Y87827D01*
X48708Y87720D01*
X49050Y87665D01*
X49396D01*
X49738Y87720D01*
X50068Y87827D01*
X50376Y87984D01*
X50656Y88187D01*
X50901Y88432D01*
X51105Y88713D01*
X51262Y89021D01*
X51369Y89350D01*
X51423Y89692D01*
Y90039D01*
X51369Y90381D01*
X51262Y90710D01*
X51105Y91019D01*
X50901Y91299D01*
X50656Y91544D01*
X50376Y91747D01*
X50068Y91904D01*
X49738Y92011D01*
X49396Y92066D01*
X49050D01*
X48708Y92011D01*
X48379Y91904D01*
X48070Y91747D01*
X47790Y91544D01*
X47722Y91475D01*
X47657D01*
X41063Y98069D01*
X40834Y98256D01*
X40574Y98396D01*
X40291Y98481D01*
X39997Y98510D01*
X39157D01*
X38950Y99010D01*
X39165Y99225D01*
X39500Y99662D01*
X39775Y100138D01*
X39986Y100647D01*
X40128Y101179D01*
X40200Y101725D01*
Y102275D01*
X40128Y102821D01*
X39986Y103353D01*
X39775Y103862D01*
X39500Y104338D01*
X39165Y104775D01*
X38775Y105165D01*
X38338Y105500D01*
X37862Y105775D01*
X37353Y105986D01*
X36821Y106128D01*
X36275Y106200D01*
D02*
G37*
G36*
X256275D02*
X255725D01*
X255179Y106128D01*
X254647Y105986D01*
X254138Y105775D01*
X253662Y105500D01*
X253225Y105165D01*
X252835Y104775D01*
X252500Y104338D01*
X252225Y103862D01*
X252014Y103353D01*
X251872Y102821D01*
X251800Y102275D01*
Y101725D01*
X251872Y101179D01*
X252014Y100647D01*
X252095Y100451D01*
X251747Y100103D01*
X251626Y100029D01*
X251327Y99773D01*
X247761Y96208D01*
X240800D01*
X240408Y96177D01*
X240025Y96085D01*
X239662Y95934D01*
X239326Y95729D01*
X239027Y95473D01*
X238771Y95174D01*
X238566Y94839D01*
X238459Y94580D01*
X238149Y94457D01*
X237892Y94439D01*
X237507Y94824D01*
Y98078D01*
X237862Y98225D01*
X238338Y98500D01*
X238775Y98835D01*
X239164Y99225D01*
X239500Y99662D01*
X239775Y100138D01*
X239986Y100647D01*
X240128Y101179D01*
X240200Y101725D01*
Y102275D01*
X240128Y102821D01*
X239986Y103353D01*
X239775Y103862D01*
X239500Y104338D01*
X239164Y104775D01*
X238775Y105165D01*
X238338Y105500D01*
X237862Y105775D01*
X237353Y105986D01*
X236821Y106128D01*
X236275Y106200D01*
X235725D01*
X235179Y106128D01*
X234647Y105986D01*
X234138Y105775D01*
X233662Y105500D01*
X233225Y105165D01*
X232836Y104775D01*
X232500Y104338D01*
X232225Y103862D01*
X232014Y103353D01*
X231872Y102821D01*
X231800Y102275D01*
Y101725D01*
X231872Y101179D01*
X232014Y100647D01*
X232225Y100138D01*
X232500Y99662D01*
X232836Y99225D01*
X233225Y98835D01*
X233662Y98500D01*
X234138Y98225D01*
X234493Y98078D01*
Y95664D01*
X234031Y95472D01*
X229625Y99878D01*
X229775Y100138D01*
X229986Y100647D01*
X230128Y101179D01*
X230200Y101725D01*
Y102275D01*
X230128Y102821D01*
X229986Y103353D01*
X229775Y103862D01*
X229500Y104338D01*
X229165Y104775D01*
X228775Y105165D01*
X228338Y105500D01*
X227862Y105775D01*
X227353Y105986D01*
X226821Y106128D01*
X226275Y106200D01*
X225725D01*
X225179Y106128D01*
X224647Y105986D01*
X224138Y105775D01*
X223662Y105500D01*
X223225Y105165D01*
X222835Y104775D01*
X222500Y104338D01*
X222225Y103862D01*
X222014Y103353D01*
X221872Y102821D01*
X221800Y102275D01*
Y101725D01*
X221872Y101179D01*
X222014Y100647D01*
X222225Y100138D01*
X222500Y99662D01*
X222772Y99307D01*
X222693Y99020D01*
X222546Y98807D01*
X219454D01*
X219307Y99020D01*
X219228Y99307D01*
X219500Y99662D01*
X219775Y100138D01*
X219986Y100647D01*
X220128Y101179D01*
X220200Y101725D01*
Y102275D01*
X220128Y102821D01*
X219986Y103353D01*
X219775Y103862D01*
X219500Y104338D01*
X219164Y104775D01*
X218775Y105165D01*
X218338Y105500D01*
X217862Y105775D01*
X217353Y105986D01*
X216821Y106128D01*
X216275Y106200D01*
X215725D01*
X215179Y106128D01*
X214647Y105986D01*
X214138Y105775D01*
X213662Y105500D01*
X213225Y105165D01*
X212836Y104775D01*
X212500Y104338D01*
X212225Y103862D01*
X212014Y103353D01*
X211872Y102821D01*
X211800Y102275D01*
Y101725D01*
X211872Y101179D01*
X212014Y100647D01*
X212225Y100138D01*
X212500Y99662D01*
X212836Y99225D01*
X213225Y98835D01*
X213662Y98500D01*
X214138Y98225D01*
X214593Y98037D01*
Y97886D01*
X214622Y97592D01*
X214707Y97309D01*
X214708Y97307D01*
X214412Y96807D01*
X213324D01*
X209839Y100293D01*
X209986Y100647D01*
X210128Y101179D01*
X210200Y101725D01*
Y102275D01*
X210128Y102821D01*
X209986Y103353D01*
X209775Y103862D01*
X209500Y104338D01*
X209165Y104775D01*
X208775Y105165D01*
X208338Y105500D01*
X207862Y105775D01*
X207353Y105986D01*
X206821Y106128D01*
X206275Y106200D01*
X205725D01*
X205179Y106128D01*
X204647Y105986D01*
X204138Y105775D01*
X203662Y105500D01*
X203225Y105165D01*
X202835Y104775D01*
X202500Y104338D01*
X202225Y103862D01*
X202014Y103353D01*
X201872Y102821D01*
X201800Y102275D01*
Y101725D01*
X201872Y101179D01*
X201989Y100743D01*
X201742Y100243D01*
X200258D01*
X200011Y100743D01*
X200128Y101179D01*
X200200Y101725D01*
Y102275D01*
X200128Y102821D01*
X199986Y103353D01*
X199775Y103862D01*
X199500Y104338D01*
X199164Y104775D01*
X198775Y105165D01*
X198338Y105500D01*
X197862Y105775D01*
X197353Y105986D01*
X196821Y106128D01*
X196275Y106200D01*
X195725D01*
X195179Y106128D01*
X194647Y105986D01*
X194138Y105775D01*
X193662Y105500D01*
X193225Y105165D01*
X192835Y104775D01*
X192500Y104338D01*
X192225Y103862D01*
X192014Y103353D01*
X191872Y102821D01*
X191800Y102275D01*
Y101725D01*
X191872Y101179D01*
X192014Y100647D01*
X192225Y100138D01*
X192500Y99662D01*
X192835Y99225D01*
X193225Y98835D01*
X193345Y98743D01*
X193176Y98243D01*
X191888D01*
X189839Y100293D01*
X189986Y100647D01*
X190128Y101179D01*
X190200Y101725D01*
Y102275D01*
X190128Y102821D01*
X189986Y103353D01*
X189775Y103862D01*
X189500Y104338D01*
X189164Y104775D01*
X188775Y105165D01*
X188338Y105500D01*
X187862Y105775D01*
X187353Y105986D01*
X186821Y106128D01*
X186275Y106200D01*
X185725D01*
X185179Y106128D01*
X184647Y105986D01*
X184138Y105775D01*
X183662Y105500D01*
X183225Y105165D01*
X182835Y104775D01*
X182500Y104338D01*
X182225Y103862D01*
X182014Y103353D01*
X181872Y102821D01*
X181800Y102275D01*
Y101725D01*
X181872Y101179D01*
X182014Y100647D01*
X182225Y100138D01*
X182500Y99662D01*
X182835Y99225D01*
X183225Y98835D01*
X183662Y98500D01*
X184138Y98225D01*
X184647Y98014D01*
X185179Y97872D01*
X185725Y97800D01*
X186275D01*
X186821Y97872D01*
X187353Y98014D01*
X187707Y98161D01*
X189328Y96541D01*
X189136Y96079D01*
X184053D01*
X179839Y100293D01*
X179986Y100647D01*
X180128Y101179D01*
X180200Y101725D01*
Y102275D01*
X180128Y102821D01*
X179986Y103353D01*
X179775Y103862D01*
X179500Y104338D01*
X179165Y104775D01*
X178775Y105165D01*
X178338Y105500D01*
X177862Y105775D01*
X177353Y105986D01*
X176821Y106128D01*
X176275Y106200D01*
X175725D01*
X175179Y106128D01*
X174647Y105986D01*
X174138Y105775D01*
X173662Y105500D01*
X173225Y105165D01*
X172836Y104775D01*
X172500Y104338D01*
X172225Y103862D01*
X172014Y103353D01*
X171872Y102821D01*
X171800Y102275D01*
Y101725D01*
X171872Y101179D01*
X172014Y100647D01*
X172225Y100138D01*
X172500Y99662D01*
X172836Y99225D01*
X173225Y98835D01*
X173662Y98500D01*
X174138Y98225D01*
X174647Y98014D01*
X175179Y97872D01*
X175725Y97800D01*
X176275D01*
X176821Y97872D01*
X177353Y98014D01*
X177707Y98161D01*
X181328Y94541D01*
X181136Y94079D01*
X176053D01*
X169839Y100293D01*
X169986Y100647D01*
X170128Y101179D01*
X170200Y101725D01*
Y102275D01*
X170128Y102821D01*
X169986Y103353D01*
X169775Y103862D01*
X169500Y104338D01*
X169165Y104775D01*
X168775Y105165D01*
X168338Y105500D01*
X167862Y105775D01*
X167353Y105986D01*
X166821Y106128D01*
X166275Y106200D01*
X165725D01*
X165179Y106128D01*
X164647Y105986D01*
X164138Y105775D01*
X163662Y105500D01*
X163225Y105165D01*
X162836Y104775D01*
X162500Y104338D01*
X162225Y103862D01*
X162014Y103353D01*
X161872Y102821D01*
X161800Y102275D01*
Y101725D01*
X161872Y101179D01*
X162014Y100647D01*
X162225Y100138D01*
X162500Y99662D01*
X162836Y99225D01*
X163225Y98835D01*
X163662Y98500D01*
X164138Y98225D01*
X164647Y98014D01*
X165179Y97872D01*
X165725Y97800D01*
X166275D01*
X166821Y97872D01*
X167353Y98014D01*
X167707Y98161D01*
X173328Y92541D01*
X173136Y92079D01*
X168053D01*
X159839Y100293D01*
X159986Y100647D01*
X160128Y101179D01*
X160200Y101725D01*
Y102275D01*
X160128Y102821D01*
X159986Y103353D01*
X159775Y103862D01*
X159500Y104338D01*
X159165Y104775D01*
X158775Y105165D01*
X158338Y105500D01*
X157862Y105775D01*
X157353Y105986D01*
X156821Y106128D01*
X156275Y106200D01*
X155725D01*
X155179Y106128D01*
X154647Y105986D01*
X154138Y105775D01*
X153662Y105500D01*
X153225Y105165D01*
X152836Y104775D01*
X152500Y104338D01*
X152225Y103862D01*
X152014Y103353D01*
X151872Y102821D01*
X151800Y102275D01*
Y101725D01*
X151872Y101179D01*
X152014Y100647D01*
X152225Y100138D01*
X152500Y99662D01*
X152836Y99225D01*
X153153Y98907D01*
X153096Y98626D01*
X152962Y98407D01*
X151724D01*
X149839Y100293D01*
X149986Y100647D01*
X150128Y101179D01*
X150200Y101725D01*
Y102275D01*
X150128Y102821D01*
X149986Y103353D01*
X149775Y103862D01*
X149500Y104338D01*
X149164Y104775D01*
X148775Y105165D01*
X148338Y105500D01*
X147862Y105775D01*
X147353Y105986D01*
X146821Y106128D01*
X146275Y106200D01*
X145725D01*
X145179Y106128D01*
X144647Y105986D01*
X144138Y105775D01*
X143662Y105500D01*
X143225Y105165D01*
X142835Y104775D01*
X142500Y104338D01*
X142225Y103862D01*
X142014Y103353D01*
X141872Y102821D01*
X141800Y102275D01*
Y101725D01*
X141872Y101179D01*
X142014Y100647D01*
X142225Y100138D01*
X142500Y99662D01*
X142835Y99225D01*
X143225Y98835D01*
X143662Y98500D01*
X144138Y98225D01*
X144647Y98014D01*
X145179Y97872D01*
X145725Y97800D01*
X146275D01*
X146821Y97872D01*
X147353Y98014D01*
X147707Y98161D01*
X149399Y96469D01*
X149208Y96007D01*
X142224D01*
X139086Y99146D01*
X139164Y99225D01*
X139500Y99662D01*
X139775Y100138D01*
X139986Y100647D01*
X140128Y101179D01*
X140200Y101725D01*
Y102275D01*
X140128Y102821D01*
X139986Y103353D01*
X139775Y103862D01*
X139500Y104338D01*
X139164Y104775D01*
X138775Y105165D01*
X138338Y105500D01*
X137862Y105775D01*
X137353Y105986D01*
X136821Y106128D01*
X136275Y106200D01*
X135725D01*
X135179Y106128D01*
X134647Y105986D01*
X134138Y105775D01*
X133662Y105500D01*
X133225Y105165D01*
X132835Y104775D01*
X132500Y104338D01*
X132225Y103862D01*
X132014Y103353D01*
X131872Y102821D01*
X131800Y102275D01*
Y101725D01*
X131872Y101179D01*
X132014Y100647D01*
X132225Y100138D01*
X132500Y99662D01*
X132835Y99225D01*
X133225Y98835D01*
X133662Y98500D01*
X134138Y98225D01*
X134647Y98014D01*
X135179Y97872D01*
X135725Y97800D01*
X136168D01*
X139599Y94369D01*
X139408Y93907D01*
X136124D01*
X129810Y100222D01*
X129986Y100647D01*
X130128Y101179D01*
X130200Y101725D01*
Y102275D01*
X130128Y102821D01*
X129986Y103353D01*
X129775Y103862D01*
X129500Y104338D01*
X129165Y104775D01*
X128775Y105165D01*
X128338Y105500D01*
X127862Y105775D01*
X127353Y105986D01*
X126821Y106128D01*
X126275Y106200D01*
X125725D01*
X125179Y106128D01*
X124647Y105986D01*
X124138Y105775D01*
X123662Y105500D01*
X123225Y105165D01*
X122836Y104775D01*
X122500Y104338D01*
X122225Y103862D01*
X122014Y103353D01*
X121872Y102821D01*
X121800Y102275D01*
Y101725D01*
X121872Y101179D01*
X122014Y100647D01*
X122225Y100138D01*
X122500Y99662D01*
X122772Y99307D01*
X122693Y99020D01*
X122546Y98807D01*
X121324D01*
X119839Y100293D01*
X119986Y100647D01*
X120128Y101179D01*
X120200Y101725D01*
Y102275D01*
X120128Y102821D01*
X119986Y103353D01*
X119775Y103862D01*
X119500Y104338D01*
X119165Y104775D01*
X118775Y105165D01*
X118338Y105500D01*
X117862Y105775D01*
X117353Y105986D01*
X116821Y106128D01*
X116275Y106200D01*
X115725D01*
X115179Y106128D01*
X114647Y105986D01*
X114138Y105775D01*
X113662Y105500D01*
X113225Y105165D01*
X112836Y104775D01*
X112500Y104338D01*
X112225Y103862D01*
X112014Y103353D01*
X111872Y102821D01*
X111800Y102275D01*
Y101725D01*
X111872Y101179D01*
X112014Y100647D01*
X112225Y100138D01*
X112500Y99662D01*
X112836Y99225D01*
X113225Y98835D01*
X113662Y98500D01*
X114138Y98225D01*
X114647Y98014D01*
X115179Y97872D01*
X115725Y97800D01*
X116275D01*
X116821Y97872D01*
X117353Y98014D01*
X117707Y98161D01*
X118599Y97269D01*
X118408Y96807D01*
X113324D01*
X109839Y100293D01*
X109986Y100647D01*
X110128Y101179D01*
X110200Y101725D01*
Y102275D01*
X110128Y102821D01*
X109986Y103353D01*
X109775Y103862D01*
X109500Y104338D01*
X109165Y104775D01*
X108775Y105165D01*
X108338Y105500D01*
X107862Y105775D01*
X107353Y105986D01*
X106821Y106128D01*
X106275Y106200D01*
X105725D01*
X105179Y106128D01*
X104647Y105986D01*
X104138Y105775D01*
X103662Y105500D01*
X103225Y105165D01*
X102836Y104775D01*
X102500Y104338D01*
X102225Y103862D01*
X102014Y103353D01*
X101872Y102821D01*
X101800Y102275D01*
Y101725D01*
X101872Y101179D01*
X102014Y100647D01*
X102225Y100138D01*
X102500Y99662D01*
X102836Y99225D01*
X103225Y98835D01*
X103662Y98500D01*
X104138Y98225D01*
X104647Y98014D01*
X105179Y97872D01*
X105725Y97800D01*
X106275D01*
X106821Y97872D01*
X107353Y98014D01*
X107707Y98161D01*
X110599Y95269D01*
X110408Y94807D01*
X105324D01*
X99839Y100293D01*
X99986Y100647D01*
X100128Y101179D01*
X100200Y101725D01*
Y102275D01*
X100128Y102821D01*
X99986Y103353D01*
X99775Y103862D01*
X99500Y104338D01*
X99164Y104775D01*
X98775Y105165D01*
X98338Y105500D01*
X97862Y105775D01*
X97353Y105986D01*
X96821Y106128D01*
X96275Y106200D01*
X95725D01*
X95179Y106128D01*
X94647Y105986D01*
X94138Y105775D01*
X93662Y105500D01*
X93225Y105165D01*
X92835Y104775D01*
X92500Y104338D01*
X92225Y103862D01*
X92014Y103353D01*
X91872Y102821D01*
X91800Y102275D01*
Y101725D01*
X91872Y101179D01*
X92014Y100647D01*
X92225Y100138D01*
X92500Y99662D01*
X92835Y99225D01*
X93225Y98835D01*
X93662Y98500D01*
X94138Y98225D01*
X94647Y98014D01*
X95179Y97872D01*
X95725Y97800D01*
X96275D01*
X96821Y97872D01*
X97353Y98014D01*
X97707Y98161D01*
X98899Y96969D01*
X98708Y96507D01*
X93624D01*
X89839Y100293D01*
X89986Y100647D01*
X90128Y101179D01*
X90200Y101725D01*
Y102275D01*
X90128Y102821D01*
X89986Y103353D01*
X89775Y103862D01*
X89500Y104338D01*
X89165Y104775D01*
X88775Y105165D01*
X88338Y105500D01*
X87862Y105775D01*
X87353Y105986D01*
X86821Y106128D01*
X86275Y106200D01*
X85725D01*
X85179Y106128D01*
X84647Y105986D01*
X84138Y105775D01*
X83662Y105500D01*
X83225Y105165D01*
X82836Y104775D01*
X82500Y104338D01*
X82225Y103862D01*
X82014Y103353D01*
X81872Y102821D01*
X81800Y102275D01*
Y101725D01*
X81872Y101179D01*
X82014Y100647D01*
X82225Y100138D01*
X82500Y99662D01*
X82836Y99225D01*
X83225Y98835D01*
X83662Y98500D01*
X83823Y98407D01*
X83689Y97907D01*
X80624D01*
X79882Y98649D01*
X79770Y98860D01*
X79582Y99088D01*
X79286Y99384D01*
X79500Y99662D01*
X79775Y100138D01*
X79986Y100647D01*
X80128Y101179D01*
X80200Y101725D01*
Y102275D01*
X80128Y102821D01*
X79986Y103353D01*
X79775Y103862D01*
X79500Y104338D01*
X79164Y104775D01*
X78775Y105165D01*
X78338Y105500D01*
X77862Y105775D01*
X77353Y105986D01*
X76821Y106128D01*
X76275Y106200D01*
X75725D01*
X75179Y106128D01*
X74647Y105986D01*
X74138Y105775D01*
X73662Y105500D01*
X73225Y105165D01*
X72835Y104775D01*
X72500Y104338D01*
X72225Y103862D01*
X72014Y103353D01*
X71872Y102821D01*
X71800Y102275D01*
Y101725D01*
X71872Y101179D01*
X72014Y100647D01*
X72225Y100138D01*
X72500Y99662D01*
X72772Y99307D01*
X72693Y99020D01*
X72546Y98807D01*
X71324D01*
X69839Y100293D01*
X69986Y100647D01*
X70128Y101179D01*
X70200Y101725D01*
Y102275D01*
X70128Y102821D01*
X69986Y103353D01*
X69775Y103862D01*
X69500Y104338D01*
X69165Y104775D01*
X68775Y105165D01*
X68338Y105500D01*
X67862Y105775D01*
X67353Y105986D01*
X66821Y106128D01*
X66275Y106200D01*
X65725D01*
X65179Y106128D01*
X64647Y105986D01*
X64138Y105775D01*
X63662Y105500D01*
X63225Y105165D01*
X62836Y104775D01*
X62500Y104338D01*
X62225Y103862D01*
X62014Y103353D01*
X61872Y102821D01*
X61800Y102275D01*
Y101725D01*
X61872Y101179D01*
X62014Y100647D01*
X62225Y100138D01*
X62500Y99662D01*
X62836Y99225D01*
X63225Y98835D01*
X63662Y98500D01*
X64138Y98225D01*
X64647Y98014D01*
X65179Y97872D01*
X65725Y97800D01*
X66275D01*
X66821Y97872D01*
X67353Y98014D01*
X67707Y98161D01*
X69634Y96234D01*
X69863Y96047D01*
X70123Y95907D01*
X70406Y95822D01*
X70700Y95793D01*
X75647D01*
X78106Y93334D01*
X78334Y93147D01*
X78595Y93007D01*
X78878Y92922D01*
X79172Y92893D01*
X87319D01*
X88568Y91644D01*
X88329Y91175D01*
X88173Y91200D01*
X87827D01*
X87485Y91146D01*
X87155Y91039D01*
X86847Y90882D01*
X86567Y90678D01*
X86322Y90433D01*
X86118Y90153D01*
X85961Y89845D01*
X85854Y89515D01*
X85800Y89173D01*
Y88827D01*
X85854Y88485D01*
X85961Y88156D01*
X86118Y87847D01*
X86322Y87567D01*
X86567Y87322D01*
X86847Y87118D01*
X87155Y86961D01*
X87485Y86854D01*
X87827Y86800D01*
X88173D01*
X88515Y86854D01*
X88845Y86961D01*
X89153Y87118D01*
X89433Y87322D01*
X89604Y87493D01*
X96890D01*
X100149Y84234D01*
X100377Y84047D01*
X100638Y83908D01*
X100921Y83822D01*
X101215Y83793D01*
X106608D01*
X106799Y83331D01*
X97405Y73936D01*
X97309Y73944D01*
X96907Y74145D01*
Y80200D01*
X96881Y80529D01*
X96803Y80851D01*
X96677Y81156D01*
X96504Y81438D01*
X96289Y81690D01*
X93590Y84390D01*
X93338Y84604D01*
X93056Y84777D01*
X92751Y84903D01*
X92430Y84981D01*
X92100Y85006D01*
X91770Y84981D01*
X91449Y84903D01*
X91144Y84777D01*
X90862Y84604D01*
X90610Y84390D01*
X90396Y84138D01*
X90223Y83856D01*
X90097Y83551D01*
X90019Y83230D01*
X89994Y82900D01*
X90019Y82570D01*
X90097Y82249D01*
X90223Y81944D01*
X90396Y81662D01*
X90610Y81410D01*
X92694Y79327D01*
Y74851D01*
X90483Y72640D01*
X90268Y72389D01*
X90095Y72107D01*
X89969Y71801D01*
X89892Y71480D01*
X89866Y71150D01*
Y70916D01*
X73210D01*
X72951Y70896D01*
X72800Y70908D01*
X72408Y70877D01*
X72025Y70785D01*
X71662Y70634D01*
X71326Y70429D01*
X71027Y70173D01*
X67627Y66773D01*
X67371Y66474D01*
X67166Y66138D01*
X67015Y65775D01*
X66923Y65392D01*
X66892Y65000D01*
X66923Y64608D01*
X67015Y64225D01*
X67166Y63862D01*
X67371Y63526D01*
X67627Y63227D01*
X67926Y62971D01*
X68261Y62766D01*
X68625Y62615D01*
X69008Y62523D01*
X69400Y62492D01*
X69792Y62523D01*
X70175Y62615D01*
X70539Y62766D01*
X70874Y62971D01*
X71173Y63227D01*
X74403Y66457D01*
X74670Y66450D01*
X74959Y65978D01*
X74961Y65944D01*
X74854Y65615D01*
X74800Y65273D01*
Y64927D01*
X74854Y64585D01*
X74961Y64255D01*
X75118Y63947D01*
X75322Y63667D01*
X75328Y63661D01*
X75490Y63262D01*
X75347Y62963D01*
X75271Y62874D01*
X75066Y62538D01*
X74915Y62175D01*
X74823Y61792D01*
X74792Y61400D01*
Y58470D01*
X74445Y58219D01*
X74300Y58186D01*
X74216Y58237D01*
X73852Y58388D01*
X73470Y58480D01*
X73077Y58511D01*
X72685Y58480D01*
X72302Y58388D01*
X71939Y58237D01*
X71603Y58032D01*
X71304Y57776D01*
X71049Y57477D01*
X70843Y57141D01*
X70692Y56778D01*
X70600Y56395D01*
X70570Y56003D01*
X70600Y55611D01*
X70692Y55228D01*
X70843Y54864D01*
X71049Y54529D01*
X71304Y54230D01*
X74116Y51418D01*
Y50376D01*
X74147Y49984D01*
X74239Y49602D01*
X74360Y49307D01*
X74274Y49084D01*
X74067Y48807D01*
X62300D01*
X62006Y48778D01*
X61723Y48693D01*
X61463Y48553D01*
X61234Y48366D01*
X60376Y47507D01*
X46363D01*
X46352Y47519D01*
X46166Y48007D01*
X68128Y69969D01*
X68435Y70329D01*
X68681Y70731D01*
X68862Y71167D01*
X68972Y71627D01*
X69009Y72097D01*
Y88033D01*
X68972Y88503D01*
X68862Y88963D01*
X68681Y89399D01*
X68435Y89801D01*
X68128Y90161D01*
X59469Y98820D01*
Y99621D01*
X59500Y99662D01*
X59775Y100138D01*
X59986Y100647D01*
X60128Y101179D01*
X60200Y101725D01*
Y102275D01*
X60128Y102821D01*
X59986Y103353D01*
X59775Y103862D01*
X59500Y104338D01*
X59165Y104775D01*
X58775Y105165D01*
X58338Y105500D01*
X57862Y105775D01*
X57353Y105986D01*
X56821Y106128D01*
X56275Y106200D01*
X55725D01*
X55179Y106128D01*
X54647Y105986D01*
X54138Y105775D01*
X53662Y105500D01*
X53225Y105165D01*
X52836Y104775D01*
X52500Y104338D01*
X52225Y103862D01*
X52014Y103353D01*
X51872Y102821D01*
X51800Y102275D01*
Y101725D01*
X51872Y101179D01*
X52014Y100647D01*
X52225Y100138D01*
X52500Y99662D01*
X52836Y99225D01*
X53225Y98835D01*
X53450Y98663D01*
Y97573D01*
X53487Y97103D01*
X53597Y96644D01*
X53778Y96207D01*
X54025Y95805D01*
X54331Y95446D01*
X62991Y86786D01*
Y73344D01*
X42656Y53009D01*
X40385D01*
X40312Y53070D01*
X40214Y53212D01*
X40107Y53509D01*
X40119Y53533D01*
X40181Y53634D01*
X40227Y53743D01*
X40280Y53848D01*
X40317Y53961D01*
X40362Y54070D01*
X40390Y54185D01*
X40426Y54298D01*
X40445Y54414D01*
X40472Y54529D01*
X40481Y54647D01*
X40500Y54764D01*
Y54882D01*
X40509Y55000D01*
Y63500D01*
X40472Y63971D01*
X40405Y64249D01*
X40372Y64671D01*
X40262Y65130D01*
X40081Y65566D01*
X40059Y65602D01*
X40455Y65914D01*
X41659Y64710D01*
X41887Y64522D01*
X42148Y64383D01*
X42431Y64297D01*
X42725Y64268D01*
X44110D01*
X44281Y64097D01*
X44561Y63894D01*
X44870Y63736D01*
X45199Y63629D01*
X45541Y63575D01*
X45887D01*
X46229Y63629D01*
X46559Y63736D01*
X46867Y63894D01*
X47147Y64097D01*
X47392Y64342D01*
X47596Y64622D01*
X47753Y64931D01*
X47860Y65260D01*
X47914Y65602D01*
Y65948D01*
X47860Y66290D01*
X47753Y66620D01*
X47596Y66928D01*
X47392Y67208D01*
X47147Y67453D01*
X46867Y67657D01*
X46559Y67814D01*
X46229Y67921D01*
X45887Y67975D01*
X45541D01*
X45199Y67921D01*
X44870Y67814D01*
X44561Y67657D01*
X44281Y67453D01*
X44110Y67282D01*
X43349D01*
X31302Y79330D01*
X31074Y79517D01*
X30813Y79656D01*
X30530Y79742D01*
X30305Y79764D01*
X30252Y79817D01*
X30079Y79949D01*
X29995Y80153D01*
X29798Y80447D01*
X29547Y80698D01*
X29253Y80895D01*
X28925Y81031D01*
X28577Y81100D01*
X28223D01*
X27875Y81031D01*
X27547Y80895D01*
X27253Y80698D01*
X27002Y80447D01*
X26805Y80153D01*
X26669Y79825D01*
X26600Y79477D01*
Y79123D01*
X26669Y78775D01*
X26805Y78447D01*
X27002Y78153D01*
X27253Y77902D01*
X27547Y77705D01*
X27875Y77569D01*
X28223Y77500D01*
X28577D01*
X28908Y77566D01*
X28983Y77426D01*
X29170Y77198D01*
X36414Y69955D01*
X36102Y69559D01*
X36066Y69581D01*
X35630Y69762D01*
X35171Y69872D01*
X34700Y69909D01*
X34229Y69872D01*
X33770Y69762D01*
X33334Y69581D01*
X32931Y69335D01*
X32572Y69028D01*
X32265Y68669D01*
X32019Y68266D01*
X31838Y67830D01*
X31728Y67371D01*
X31691Y66900D01*
X31728Y66429D01*
X31838Y65970D01*
X32019Y65534D01*
X32265Y65131D01*
X32572Y64772D01*
X34491Y62853D01*
Y55000D01*
X34500Y54882D01*
Y54764D01*
X34519Y54647D01*
X34528Y54529D01*
X34555Y54414D01*
X34574Y54298D01*
X34610Y54185D01*
X34638Y54070D01*
X34683Y53961D01*
X34720Y53848D01*
X34773Y53743D01*
X34819Y53634D01*
X34881Y53533D01*
X34934Y53428D01*
X35004Y53332D01*
X35065Y53231D01*
X35142Y53141D01*
X35212Y53046D01*
X35295Y52962D01*
X35372Y52872D01*
X35430Y52823D01*
X35474Y52743D01*
X35491Y52632D01*
Y52368D01*
X35474Y52257D01*
X35430Y52178D01*
X35372Y52128D01*
X35295Y52038D01*
X35212Y51954D01*
X35142Y51859D01*
X35065Y51769D01*
X35004Y51668D01*
X34934Y51572D01*
X34881Y51467D01*
X34819Y51366D01*
X34773Y51257D01*
X34720Y51152D01*
X34683Y51039D01*
X34638Y50930D01*
X34610Y50815D01*
X34574Y50703D01*
X34555Y50586D01*
X34528Y50471D01*
X34519Y50353D01*
X34500Y50236D01*
Y50118D01*
X34491Y50000D01*
X34500Y49882D01*
Y49764D01*
X34519Y49647D01*
X34528Y49529D01*
X34555Y49414D01*
X34574Y49297D01*
X34610Y49185D01*
X34638Y49070D01*
X34683Y48961D01*
X34720Y48848D01*
X34773Y48743D01*
X34819Y48634D01*
X34881Y48533D01*
X34897Y48500D01*
X34798Y48214D01*
X34712Y48079D01*
X34621Y48000D01*
X34500D01*
Y46129D01*
X34308Y46011D01*
X33949Y45704D01*
X33772Y45528D01*
X33465Y45169D01*
X33219Y44766D01*
X33038Y44330D01*
X32928Y43871D01*
X32891Y43400D01*
Y40500D01*
X32928Y40029D01*
X33038Y39570D01*
X33219Y39134D01*
X33465Y38731D01*
X33772Y38372D01*
X34131Y38065D01*
X34534Y37819D01*
X34970Y37638D01*
X35429Y37528D01*
X35900Y37491D01*
X36371Y37528D01*
X36830Y37638D01*
X37266Y37819D01*
X37669Y38065D01*
X38028Y38372D01*
X38335Y38731D01*
X38581Y39134D01*
X38762Y39570D01*
X38872Y40029D01*
X38909Y40500D01*
Y41378D01*
X39532Y42000D01*
X40500D01*
Y42968D01*
X42024Y44493D01*
X61000D01*
X61294Y44522D01*
X61577Y44607D01*
X61837Y44747D01*
X62066Y44934D01*
X62924Y45793D01*
X93118D01*
X93412Y45822D01*
X93695Y45908D01*
X93956Y46047D01*
X94184Y46234D01*
X101197Y53247D01*
X101384Y53475D01*
X101524Y53736D01*
X101610Y54019D01*
X101639Y54313D01*
Y61507D01*
X102432Y62300D01*
X102673D01*
X103015Y62354D01*
X103345Y62461D01*
X103653Y62618D01*
X103933Y62822D01*
X104178Y63067D01*
X104382Y63347D01*
X104539Y63656D01*
X104646Y63985D01*
X104700Y64327D01*
Y64673D01*
X104646Y65015D01*
X104539Y65345D01*
X104382Y65653D01*
X104178Y65933D01*
X103933Y66178D01*
X103653Y66382D01*
X103345Y66539D01*
X103015Y66646D01*
X102673Y66700D01*
X102327D01*
X101985Y66646D01*
X101655Y66539D01*
X101347Y66382D01*
X101067Y66178D01*
X100822Y65933D01*
X100618Y65653D01*
X100524Y65468D01*
X100312Y65414D01*
X100188D01*
X99976Y65468D01*
X99882Y65653D01*
X99678Y65933D01*
X99433Y66178D01*
X99153Y66382D01*
X98844Y66539D01*
X98515Y66646D01*
X98173Y66700D01*
X97827D01*
X97485Y66646D01*
X97155Y66539D01*
X96847Y66382D01*
X96567Y66178D01*
X96322Y65933D01*
X96118Y65653D01*
X95961Y65345D01*
X95854Y65015D01*
X95800Y64673D01*
Y64327D01*
X95854Y63985D01*
X95961Y63656D01*
X96118Y63347D01*
X96322Y63067D01*
X96567Y62822D01*
X96624Y62780D01*
Y56756D01*
X95068Y55200D01*
X94827D01*
X94485Y55146D01*
X94156Y55039D01*
X93847Y54882D01*
X93833Y54872D01*
X93350Y54855D01*
X93178Y54996D01*
X93078Y55133D01*
X92833Y55378D01*
X92553Y55582D01*
X92244Y55739D01*
X91915Y55846D01*
X91573Y55900D01*
X91227D01*
X90885Y55846D01*
X90556Y55739D01*
X90247Y55582D01*
X89967Y55378D01*
X89910Y55321D01*
X79334Y65898D01*
X79105Y66085D01*
X79125Y66630D01*
X79172Y66703D01*
X89292D01*
Y62600D01*
X89323Y62208D01*
X89415Y61825D01*
X89566Y61462D01*
X89771Y61126D01*
X90027Y60827D01*
X90326Y60571D01*
X90662Y60366D01*
X91025Y60215D01*
X91408Y60123D01*
X91800Y60092D01*
X92192Y60123D01*
X92575Y60215D01*
X92939Y60366D01*
X93274Y60571D01*
X93573Y60827D01*
X93829Y61126D01*
X94034Y61462D01*
X94185Y61825D01*
X94277Y62208D01*
X94308Y62600D01*
Y68810D01*
X94277Y69202D01*
X94185Y69585D01*
X94079Y69841D01*
Y70278D01*
X94446Y70645D01*
X94745Y70605D01*
X95003Y70495D01*
X95105Y70247D01*
X95302Y69953D01*
X95553Y69702D01*
X95847Y69505D01*
X96175Y69369D01*
X96523Y69300D01*
X96877D01*
X97225Y69369D01*
X97553Y69505D01*
X97847Y69702D01*
X98098Y69953D01*
X98295Y70247D01*
X98431Y70575D01*
X98462Y70730D01*
X109524Y81793D01*
X113186D01*
X113497Y81293D01*
X113446Y81190D01*
X113409Y81178D01*
X113148Y81039D01*
X112920Y80852D01*
X110868Y78800D01*
X110627D01*
X110285Y78746D01*
X109956Y78639D01*
X109647Y78482D01*
X109367Y78278D01*
X109122Y78033D01*
X108918Y77753D01*
X108761Y77444D01*
X108654Y77115D01*
X108600Y76773D01*
Y76427D01*
X108654Y76085D01*
X108761Y75756D01*
X108918Y75447D01*
X109122Y75167D01*
X109367Y74922D01*
X109647Y74718D01*
X109956Y74561D01*
X110285Y74454D01*
X110627Y74400D01*
X110973D01*
X111315Y74454D01*
X111644Y74561D01*
X111953Y74718D01*
X112233Y74922D01*
X112478Y75167D01*
X112682Y75447D01*
X112839Y75756D01*
X112946Y76085D01*
X113000Y76427D01*
Y76668D01*
X114391Y78059D01*
X114447Y78018D01*
X114755Y77861D01*
X115085Y77754D01*
X115427Y77700D01*
X115773D01*
X116115Y77754D01*
X116445Y77861D01*
X116753Y78018D01*
X117033Y78222D01*
X117278Y78467D01*
X117482Y78747D01*
X117639Y79056D01*
X117640Y79060D01*
X118211Y79197D01*
X123174Y74234D01*
X123402Y74047D01*
X123663Y73908D01*
X123945Y73822D01*
X124240Y73793D01*
X150520D01*
X156857Y67456D01*
X157085Y67268D01*
X157346Y67129D01*
X157629Y67043D01*
X157923Y67014D01*
X166959D01*
X171939Y62034D01*
X172168Y61847D01*
X172428Y61708D01*
X172711Y61622D01*
X173005Y61593D01*
X178509D01*
X178717Y61093D01*
X174203Y56580D01*
X173034D01*
X172715Y56898D01*
X172487Y57085D01*
X172226Y57225D01*
X172191Y57235D01*
X172182Y57253D01*
X171978Y57533D01*
X171733Y57778D01*
X171453Y57982D01*
X171144Y58139D01*
X170815Y58246D01*
X170473Y58300D01*
X170127D01*
X169785Y58246D01*
X169456Y58139D01*
X169147Y57982D01*
X168867Y57778D01*
X168622Y57533D01*
X168418Y57253D01*
X168261Y56945D01*
X168154Y56615D01*
X168100Y56273D01*
Y55927D01*
X168154Y55585D01*
X168261Y55256D01*
X168350Y55082D01*
X168190Y54711D01*
X168066Y54582D01*
X145389D01*
X138181Y61790D01*
X137951Y61967D01*
X137683Y62078D01*
X137396Y62116D01*
X137395Y62116D01*
X115020D01*
X114733Y62078D01*
X114465Y61967D01*
X114235Y61790D01*
X114235Y61790D01*
X93760Y41315D01*
X72969D01*
X72682Y41278D01*
X72414Y41167D01*
X72184Y40990D01*
X72184Y40990D01*
X69197Y38003D01*
X53292D01*
X53292Y38003D01*
X53004Y37965D01*
X52737Y37854D01*
X52507Y37678D01*
X52506Y37678D01*
X40040Y25211D01*
X39121D01*
X39000Y25332D01*
Y25471D01*
X38923Y25858D01*
X38772Y26222D01*
X38554Y26549D01*
X38275Y26828D01*
X37947Y27047D01*
X37583Y27198D01*
X37197Y27274D01*
X36803D01*
X36417Y27198D01*
X36053Y27047D01*
X35725Y26828D01*
X35447Y26549D01*
X35228Y26222D01*
X35077Y25858D01*
X35000Y25471D01*
Y25077D01*
X35077Y24691D01*
X35228Y24327D01*
X35447Y23999D01*
X35690Y23674D01*
X35447Y23349D01*
X35228Y23022D01*
X35077Y22658D01*
X35000Y22271D01*
Y21877D01*
X35077Y21491D01*
X35228Y21127D01*
X35447Y20799D01*
X35725Y20521D01*
X36053Y20302D01*
X36417Y20151D01*
X36803Y20074D01*
X37197D01*
X37583Y20151D01*
X37947Y20302D01*
X38275Y20521D01*
X38554Y20799D01*
X38663Y20963D01*
X40458D01*
X40459Y20963D01*
X40746Y21001D01*
X41014Y21112D01*
X41244Y21289D01*
X54333Y34378D01*
X70238D01*
X70238Y34378D01*
X70526Y34416D01*
X70794Y34527D01*
X71024Y34703D01*
X74011Y37690D01*
X94801D01*
X94801Y37690D01*
X95089Y37728D01*
X95357Y37839D01*
X95587Y38016D01*
X116062Y58491D01*
X121076D01*
X121214Y58367D01*
X121411Y57990D01*
X121354Y57815D01*
X121300Y57473D01*
Y57127D01*
X121354Y56785D01*
X121461Y56455D01*
X121618Y56147D01*
X121822Y55867D01*
X122067Y55622D01*
X122347Y55418D01*
X122655Y55261D01*
X122985Y55154D01*
X123164Y55126D01*
X123472Y54817D01*
Y33336D01*
X123301Y33165D01*
X123098Y32885D01*
X122941Y32576D01*
X122834Y32247D01*
X122779Y31905D01*
Y31559D01*
X122834Y31217D01*
X122941Y30887D01*
X123098Y30579D01*
X123301Y30299D01*
X123546Y30054D01*
X123826Y29850D01*
X124135Y29693D01*
X124464Y29586D01*
X124806Y29532D01*
X125153D01*
X125495Y29586D01*
X125824Y29693D01*
X126132Y29850D01*
X126413Y30054D01*
X126657Y30299D01*
X126861Y30579D01*
X127018Y30887D01*
X127125Y31217D01*
X127179Y31559D01*
Y31905D01*
X127139Y32159D01*
X127283Y32301D01*
X127578Y32402D01*
X127857Y32124D01*
X128184Y31905D01*
X128548Y31754D01*
X128935Y31677D01*
X129329D01*
X129715Y31754D01*
X130079Y31905D01*
X130407Y32124D01*
X130685Y32402D01*
X130904Y32730D01*
X131055Y33094D01*
X131132Y33480D01*
Y33526D01*
X137382D01*
X137382Y33526D01*
X137670Y33564D01*
X137938Y33675D01*
X138168Y33851D01*
X143602Y39286D01*
X155381D01*
X155381Y39286D01*
X155669Y39324D01*
X155937Y39435D01*
X156167Y39611D01*
X160041Y43486D01*
X173190D01*
X173190Y43486D01*
X173478Y43524D01*
X173746Y43635D01*
X173976Y43811D01*
X179755Y49591D01*
X187159D01*
X187268Y49576D01*
X187600D01*
Y49553D01*
X187677Y49167D01*
X187828Y48803D01*
X188047Y48475D01*
X188325Y48197D01*
X188653Y47978D01*
X189017Y47827D01*
X189403Y47750D01*
X189797D01*
X190183Y47827D01*
X190547Y47978D01*
X190875Y48197D01*
X191154Y48475D01*
X191372Y48803D01*
X191523Y49167D01*
X191600Y49553D01*
Y49947D01*
X191523Y50333D01*
X191372Y50697D01*
X191154Y51025D01*
X190910Y51350D01*
X191154Y51675D01*
X191372Y52003D01*
X191523Y52367D01*
X191600Y52753D01*
Y53147D01*
X191523Y53533D01*
X191372Y53897D01*
X191154Y54225D01*
X190875Y54504D01*
X190547Y54722D01*
X190183Y54873D01*
X189797Y54950D01*
X189403D01*
X189017Y54873D01*
X188653Y54722D01*
X188325Y54504D01*
X188047Y54225D01*
X187828Y53897D01*
X187677Y53533D01*
X187614Y53215D01*
X179444D01*
X179253Y53677D01*
X181266Y55690D01*
X194421D01*
X200229Y49882D01*
X200229Y49882D01*
X200459Y49706D01*
X200599Y49648D01*
X200791Y49264D01*
X200825Y49086D01*
X200675Y48722D01*
X200598Y48335D01*
Y47941D01*
X200675Y47555D01*
X200825Y47191D01*
X201044Y46864D01*
X201323Y46585D01*
X201650Y46366D01*
X202014Y46215D01*
X202401Y46139D01*
X202795D01*
X203181Y46215D01*
X203545Y46366D01*
X203873Y46585D01*
X204151Y46864D01*
X204370Y47191D01*
X204521Y47555D01*
X204598Y47941D01*
Y48335D01*
X204521Y48722D01*
X204370Y49086D01*
X204151Y49413D01*
X203873Y49692D01*
X203631Y49853D01*
Y50243D01*
X203593Y50531D01*
X203483Y50798D01*
X203306Y51029D01*
X203306Y51029D01*
X203187Y51147D01*
X203234Y51638D01*
X203411Y51868D01*
X203522Y52136D01*
X203560Y52424D01*
Y53036D01*
X203575Y53047D01*
X203854Y53325D01*
X204072Y53653D01*
X204223Y54017D01*
X204300Y54403D01*
Y54797D01*
X204223Y55183D01*
X204178Y55293D01*
X204480Y55793D01*
X209876D01*
X226979Y38689D01*
X227208Y38502D01*
X227468Y38362D01*
X227751Y38276D01*
X228045Y38247D01*
X228967D01*
X229107Y38121D01*
X229301Y37747D01*
X229243Y37570D01*
X229189Y37228D01*
Y36882D01*
X229243Y36540D01*
X229350Y36210D01*
X229508Y35902D01*
X229711Y35622D01*
X229882Y35451D01*
Y33047D01*
X229382Y32792D01*
X229367Y32803D01*
X229059Y32960D01*
X228729Y33067D01*
X228387Y33121D01*
X228041D01*
X227699Y33067D01*
X227370Y32960D01*
X227061Y32803D01*
X226781Y32599D01*
X226704Y32522D01*
X226204Y32729D01*
Y35451D01*
X226374Y35622D01*
X226578Y35902D01*
X226735Y36210D01*
X226842Y36540D01*
X226896Y36882D01*
Y37228D01*
X226842Y37570D01*
X226735Y37899D01*
X226578Y38208D01*
X226374Y38488D01*
X226130Y38733D01*
X225849Y38936D01*
X225541Y39094D01*
X225212Y39201D01*
X224869Y39255D01*
X224523D01*
X224181Y39201D01*
X223852Y39094D01*
X223543Y38936D01*
X223263Y38733D01*
X223018Y38488D01*
X222815Y38208D01*
X222657Y37899D01*
X222551Y37570D01*
X222496Y37228D01*
Y37022D01*
X222367Y36900D01*
X222213Y36816D01*
X222008Y36769D01*
X221853Y36882D01*
X221545Y37039D01*
X221215Y37146D01*
X220873Y37200D01*
X220527D01*
X220185Y37146D01*
X219855Y37039D01*
X219547Y36882D01*
X219267Y36678D01*
X219022Y36433D01*
X218818Y36153D01*
X218661Y35844D01*
X218554Y35515D01*
X218526Y35336D01*
X215797Y32607D01*
X208129D01*
X207835Y32578D01*
X207552Y32493D01*
X207292Y32353D01*
X207063Y32166D01*
X202205Y27307D01*
X199102D01*
X198911Y27769D01*
X205621Y34479D01*
X205656Y34461D01*
X205985Y34354D01*
X206327Y34300D01*
X206673D01*
X207015Y34354D01*
X207345Y34461D01*
X207653Y34618D01*
X207933Y34822D01*
X208178Y35067D01*
X208400Y35340D01*
X208850Y35166D01*
X209055Y35061D01*
X209385Y34954D01*
X209727Y34900D01*
X210073D01*
X210415Y34954D01*
X210745Y35061D01*
X211053Y35218D01*
X211333Y35422D01*
X211578Y35667D01*
X211782Y35947D01*
X211939Y36255D01*
X212046Y36585D01*
X212100Y36927D01*
Y37273D01*
X212046Y37615D01*
X211939Y37944D01*
X211782Y38253D01*
X211578Y38533D01*
X211333Y38778D01*
X211053Y38982D01*
X210745Y39139D01*
X210415Y39246D01*
X210073Y39300D01*
X209832D01*
X208866Y40266D01*
X208637Y40453D01*
X208377Y40593D01*
X208094Y40678D01*
X207800Y40707D01*
X207725D01*
X207562Y41207D01*
X207612Y41243D01*
X207857Y41488D01*
X208060Y41768D01*
X208218Y42077D01*
X208325Y42406D01*
X208379Y42748D01*
Y43094D01*
X208325Y43436D01*
X208218Y43766D01*
X208060Y44074D01*
X207857Y44355D01*
X207612Y44599D01*
X207332Y44803D01*
X207023Y44960D01*
X206694Y45067D01*
X206352Y45121D01*
X206006D01*
X205664Y45067D01*
X205334Y44960D01*
X205026Y44803D01*
X204746Y44599D01*
X204501Y44355D01*
X204297Y44074D01*
X204140Y43766D01*
X204033Y43436D01*
X203979Y43094D01*
X203770Y42978D01*
X203182Y43153D01*
X202978Y43433D01*
X202733Y43678D01*
X202453Y43882D01*
X202145Y44039D01*
X201815Y44146D01*
X201473Y44200D01*
X201127D01*
X200785Y44146D01*
X200455Y44039D01*
X200147Y43882D01*
X199867Y43678D01*
X199622Y43433D01*
X199418Y43153D01*
X199275Y42871D01*
X199220Y42856D01*
X198755Y42958D01*
X198746Y43015D01*
X198639Y43345D01*
X198482Y43653D01*
X198278Y43933D01*
X198033Y44178D01*
X197753Y44382D01*
X197444Y44539D01*
X197115Y44646D01*
X196773Y44700D01*
X196427D01*
X196085Y44646D01*
X195756Y44539D01*
X195447Y44382D01*
X195167Y44178D01*
X194996Y44007D01*
X192300D01*
X192006Y43978D01*
X191723Y43892D01*
X191463Y43753D01*
X191234Y43566D01*
X188176Y40507D01*
X167200D01*
X166906Y40478D01*
X166623Y40393D01*
X166363Y40253D01*
X166134Y40066D01*
X156876Y30807D01*
X140800D01*
X140506Y30778D01*
X140223Y30692D01*
X139963Y30553D01*
X139734Y30366D01*
X136304Y26936D01*
X111680D01*
X111386Y26907D01*
X111103Y26821D01*
X110843Y26682D01*
X110615Y26494D01*
X104128Y20007D01*
X65672D01*
X65377Y19978D01*
X65095Y19893D01*
X64834Y19753D01*
X64606Y19566D01*
X64157Y19117D01*
X63689Y19356D01*
X63700Y19427D01*
Y19773D01*
X63646Y20115D01*
X63539Y20445D01*
X63382Y20753D01*
X63178Y21033D01*
X62933Y21278D01*
X62653Y21482D01*
X62344Y21639D01*
X62015Y21746D01*
X61673Y21800D01*
X61327D01*
X60985Y21746D01*
X60655Y21639D01*
X60347Y21482D01*
X60067Y21278D01*
X59822Y21033D01*
X59618Y20753D01*
X59461Y20445D01*
X59354Y20115D01*
X59300Y19773D01*
Y19686D01*
X59223Y19389D01*
X58830Y19200D01*
X58827D01*
X58485Y19146D01*
X58156Y19039D01*
X57847Y18882D01*
X57567Y18678D01*
X57500Y18611D01*
X57433Y18678D01*
X57153Y18882D01*
X56845Y19039D01*
X56515Y19146D01*
X56173Y19200D01*
X55827D01*
X55485Y19146D01*
X55155Y19039D01*
X54847Y18882D01*
X54567Y18678D01*
X54322Y18433D01*
X54118Y18153D01*
X53961Y17844D01*
X53854Y17515D01*
X53800Y17173D01*
Y16827D01*
X53854Y16485D01*
X53961Y16156D01*
X54118Y15847D01*
X54322Y15567D01*
X54567Y15322D01*
X54847Y15118D01*
X55155Y14961D01*
X55485Y14854D01*
X55827Y14800D01*
X56173D01*
X56515Y14854D01*
X56845Y14961D01*
X57153Y15118D01*
X57433Y15322D01*
X57500Y15389D01*
X57567Y15322D01*
X57847Y15118D01*
X58156Y14961D01*
X58485Y14854D01*
X58827Y14800D01*
X59133D01*
X59209Y14711D01*
X59364Y14324D01*
X57547Y12507D01*
X51000D01*
X50706Y12478D01*
X50423Y12393D01*
X50163Y12253D01*
X49934Y12066D01*
X47707Y9839D01*
X47353Y9986D01*
X46821Y10128D01*
X46275Y10200D01*
X45725D01*
X45179Y10128D01*
X44647Y9986D01*
X44138Y9775D01*
X43662Y9500D01*
X43225Y9165D01*
X42836Y8775D01*
X42500Y8338D01*
X42225Y7862D01*
X42014Y7353D01*
X41872Y6821D01*
X41800Y6275D01*
Y5725D01*
X41872Y5179D01*
X42014Y4647D01*
X42225Y4138D01*
X42500Y3662D01*
X42836Y3225D01*
X43225Y2836D01*
X43662Y2500D01*
X44138Y2225D01*
X44647Y2014D01*
X45179Y1872D01*
X45725Y1800D01*
X46275D01*
X46821Y1872D01*
X47353Y2014D01*
X47862Y2225D01*
X48338Y2500D01*
X48775Y2836D01*
X49165Y3225D01*
X49500Y3662D01*
X49775Y4138D01*
X49986Y4647D01*
X50128Y5179D01*
X50200Y5725D01*
Y6275D01*
X50128Y6821D01*
X49986Y7353D01*
X49839Y7707D01*
X51624Y9493D01*
X52846D01*
X53053Y8993D01*
X52836Y8775D01*
X52500Y8338D01*
X52225Y7862D01*
X52014Y7353D01*
X51872Y6821D01*
X51800Y6275D01*
Y5725D01*
X51872Y5179D01*
X52014Y4647D01*
X52225Y4138D01*
X52500Y3662D01*
X52836Y3225D01*
X53225Y2836D01*
X53662Y2500D01*
X54138Y2225D01*
X54647Y2014D01*
X55179Y1872D01*
X55725Y1800D01*
X56275D01*
X56821Y1872D01*
X57353Y2014D01*
X57862Y2225D01*
X58338Y2500D01*
X58775Y2836D01*
X59165Y3225D01*
X59500Y3662D01*
X59775Y4138D01*
X59986Y4647D01*
X60128Y5179D01*
X60200Y5725D01*
Y6275D01*
X60128Y6821D01*
X59986Y7353D01*
X59839Y7707D01*
X67024Y14893D01*
X92108D01*
X92299Y14431D01*
X87707Y9839D01*
X87353Y9986D01*
X86821Y10128D01*
X86275Y10200D01*
X85725D01*
X85179Y10128D01*
X84647Y9986D01*
X84138Y9775D01*
X83662Y9500D01*
X83225Y9165D01*
X82836Y8775D01*
X82500Y8338D01*
X82225Y7862D01*
X82014Y7353D01*
X81872Y6821D01*
X81800Y6275D01*
Y5725D01*
X81872Y5179D01*
X82014Y4647D01*
X82225Y4138D01*
X82500Y3662D01*
X82836Y3225D01*
X83225Y2836D01*
X83662Y2500D01*
X84138Y2225D01*
X84647Y2014D01*
X85179Y1872D01*
X85725Y1800D01*
X86275D01*
X86821Y1872D01*
X87353Y2014D01*
X87862Y2225D01*
X88338Y2500D01*
X88775Y2836D01*
X89165Y3225D01*
X89500Y3662D01*
X89775Y4138D01*
X89986Y4647D01*
X90128Y5179D01*
X90200Y5725D01*
Y6275D01*
X90128Y6821D01*
X89986Y7353D01*
X89839Y7707D01*
X95024Y12893D01*
X100108D01*
X100299Y12431D01*
X97707Y9839D01*
X97353Y9986D01*
X96821Y10128D01*
X96275Y10200D01*
X95725D01*
X95179Y10128D01*
X94647Y9986D01*
X94138Y9775D01*
X93662Y9500D01*
X93225Y9165D01*
X92835Y8775D01*
X92500Y8338D01*
X92225Y7862D01*
X92014Y7353D01*
X91872Y6821D01*
X91800Y6275D01*
Y5725D01*
X91872Y5179D01*
X92014Y4647D01*
X92225Y4138D01*
X92500Y3662D01*
X92835Y3225D01*
X93225Y2836D01*
X93662Y2500D01*
X94138Y2225D01*
X94647Y2014D01*
X95179Y1872D01*
X95725Y1800D01*
X96275D01*
X96821Y1872D01*
X97353Y2014D01*
X97862Y2225D01*
X98338Y2500D01*
X98775Y2836D01*
X99164Y3225D01*
X99500Y3662D01*
X99775Y4138D01*
X99986Y4647D01*
X100128Y5179D01*
X100200Y5725D01*
Y6275D01*
X100128Y6821D01*
X99986Y7353D01*
X99839Y7707D01*
X103024Y10893D01*
X109054D01*
X109261Y10393D01*
X108355Y9487D01*
X108338Y9500D01*
X107862Y9775D01*
X107353Y9986D01*
X106821Y10128D01*
X106275Y10200D01*
X105725D01*
X105179Y10128D01*
X104647Y9986D01*
X104138Y9775D01*
X103662Y9500D01*
X103225Y9165D01*
X102836Y8775D01*
X102500Y8338D01*
X102225Y7862D01*
X102014Y7353D01*
X101872Y6821D01*
X101800Y6275D01*
Y5725D01*
X101872Y5179D01*
X102014Y4647D01*
X102225Y4138D01*
X102500Y3662D01*
X102836Y3225D01*
X103225Y2836D01*
X103662Y2500D01*
X104138Y2225D01*
X104647Y2014D01*
X105179Y1872D01*
X105725Y1800D01*
X106275D01*
X106821Y1872D01*
X107353Y2014D01*
X107862Y2225D01*
X108338Y2500D01*
X108775Y2836D01*
X109165Y3225D01*
X109500Y3662D01*
X109775Y4138D01*
X109986Y4647D01*
X110128Y5179D01*
X110200Y5725D01*
Y6275D01*
X110128Y6821D01*
X110091Y6960D01*
X119024Y15893D01*
X128108D01*
X128299Y15431D01*
X127376Y14507D01*
X123000D01*
X122706Y14478D01*
X122423Y14392D01*
X122163Y14253D01*
X121934Y14066D01*
X117707Y9839D01*
X117353Y9986D01*
X116821Y10128D01*
X116275Y10200D01*
X115725D01*
X115179Y10128D01*
X114647Y9986D01*
X114138Y9775D01*
X113662Y9500D01*
X113225Y9165D01*
X112836Y8775D01*
X112500Y8338D01*
X112225Y7862D01*
X112014Y7353D01*
X111872Y6821D01*
X111800Y6275D01*
Y5725D01*
X111872Y5179D01*
X112014Y4647D01*
X112225Y4138D01*
X112500Y3662D01*
X112836Y3225D01*
X113225Y2836D01*
X113662Y2500D01*
X114138Y2225D01*
X114647Y2014D01*
X115179Y1872D01*
X115725Y1800D01*
X116275D01*
X116821Y1872D01*
X117353Y2014D01*
X117862Y2225D01*
X118338Y2500D01*
X118775Y2836D01*
X119165Y3225D01*
X119500Y3662D01*
X119775Y4138D01*
X119986Y4647D01*
X120128Y5179D01*
X120200Y5725D01*
Y6275D01*
X120128Y6821D01*
X119986Y7353D01*
X119839Y7707D01*
X123624Y11493D01*
X127654D01*
X127861Y10993D01*
X126960Y10091D01*
X126821Y10128D01*
X126275Y10200D01*
X125725D01*
X125179Y10128D01*
X124647Y9986D01*
X124138Y9775D01*
X123662Y9500D01*
X123225Y9165D01*
X122836Y8775D01*
X122500Y8338D01*
X122225Y7862D01*
X122014Y7353D01*
X121872Y6821D01*
X121800Y6275D01*
Y5725D01*
X121872Y5179D01*
X122014Y4647D01*
X122225Y4138D01*
X122500Y3662D01*
X122836Y3225D01*
X123225Y2836D01*
X123662Y2500D01*
X124138Y2225D01*
X124647Y2014D01*
X125179Y1872D01*
X125725Y1800D01*
X126275D01*
X126821Y1872D01*
X127353Y2014D01*
X127862Y2225D01*
X128338Y2500D01*
X128775Y2836D01*
X129165Y3225D01*
X129500Y3662D01*
X129775Y4138D01*
X129986Y4647D01*
X130128Y5179D01*
X130200Y5725D01*
Y6275D01*
X130128Y6821D01*
X129986Y7353D01*
X129775Y7862D01*
X129500Y8338D01*
X129487Y8355D01*
X133024Y11893D01*
X138528D01*
X138685Y11418D01*
X136913Y10104D01*
X136821Y10128D01*
X136275Y10200D01*
X135725D01*
X135179Y10128D01*
X134647Y9986D01*
X134138Y9775D01*
X133662Y9500D01*
X133225Y9165D01*
X132835Y8775D01*
X132500Y8338D01*
X132225Y7862D01*
X132014Y7353D01*
X131872Y6821D01*
X131800Y6275D01*
Y5725D01*
X131872Y5179D01*
X132014Y4647D01*
X132225Y4138D01*
X132500Y3662D01*
X132835Y3225D01*
X133225Y2836D01*
X133662Y2500D01*
X134138Y2225D01*
X134647Y2014D01*
X135179Y1872D01*
X135725Y1800D01*
X136275D01*
X136821Y1872D01*
X137353Y2014D01*
X137862Y2225D01*
X138338Y2500D01*
X138775Y2836D01*
X139164Y3225D01*
X139500Y3662D01*
X139775Y4138D01*
X139986Y4647D01*
X140128Y5179D01*
X140200Y5725D01*
Y6275D01*
X140128Y6821D01*
X139986Y7353D01*
X139775Y7862D01*
X139528Y8290D01*
X141148Y9492D01*
X142845D01*
X143052Y8992D01*
X142835Y8775D01*
X142500Y8338D01*
X142225Y7862D01*
X142014Y7353D01*
X141872Y6821D01*
X141800Y6275D01*
Y5725D01*
X141872Y5179D01*
X142014Y4647D01*
X142225Y4138D01*
X142500Y3662D01*
X142835Y3225D01*
X143225Y2836D01*
X143662Y2500D01*
X144138Y2225D01*
X144647Y2014D01*
X145179Y1872D01*
X145725Y1800D01*
X146275D01*
X146821Y1872D01*
X147353Y2014D01*
X147862Y2225D01*
X148338Y2500D01*
X148775Y2836D01*
X149164Y3225D01*
X149500Y3662D01*
X149775Y4138D01*
X149986Y4647D01*
X150128Y5179D01*
X150200Y5725D01*
Y6275D01*
X150128Y6821D01*
X149986Y7353D01*
X149839Y7707D01*
X153824Y11693D01*
X158908D01*
X159099Y11231D01*
X157707Y9839D01*
X157353Y9986D01*
X156821Y10128D01*
X156275Y10200D01*
X155725D01*
X155179Y10128D01*
X154647Y9986D01*
X154138Y9775D01*
X153662Y9500D01*
X153225Y9165D01*
X152836Y8775D01*
X152500Y8338D01*
X152225Y7862D01*
X152014Y7353D01*
X151872Y6821D01*
X151800Y6275D01*
Y5725D01*
X151872Y5179D01*
X152014Y4647D01*
X152225Y4138D01*
X152500Y3662D01*
X152836Y3225D01*
X153225Y2836D01*
X153662Y2500D01*
X154138Y2225D01*
X154647Y2014D01*
X155179Y1872D01*
X155725Y1800D01*
X156275D01*
X156821Y1872D01*
X157353Y2014D01*
X157862Y2225D01*
X158338Y2500D01*
X158775Y2836D01*
X159165Y3225D01*
X159500Y3662D01*
X159775Y4138D01*
X159986Y4647D01*
X160128Y5179D01*
X160200Y5725D01*
Y6275D01*
X160128Y6821D01*
X159986Y7353D01*
X159839Y7707D01*
X161824Y9693D01*
X163092D01*
X163262Y9193D01*
X163225Y9165D01*
X162836Y8775D01*
X162500Y8338D01*
X162225Y7862D01*
X162014Y7353D01*
X161872Y6821D01*
X161800Y6275D01*
Y5725D01*
X161872Y5179D01*
X162014Y4647D01*
X162225Y4138D01*
X162500Y3662D01*
X162836Y3225D01*
X163225Y2836D01*
X163662Y2500D01*
X164138Y2225D01*
X164647Y2014D01*
X165179Y1872D01*
X165725Y1800D01*
X166275D01*
X166821Y1872D01*
X167353Y2014D01*
X167862Y2225D01*
X168338Y2500D01*
X168775Y2836D01*
X169165Y3225D01*
X169500Y3662D01*
X169775Y4138D01*
X169986Y4647D01*
X170128Y5179D01*
X170200Y5725D01*
Y6275D01*
X170128Y6821D01*
X169986Y7353D01*
X169839Y7707D01*
X177424Y15293D01*
X181608D01*
X181799Y14831D01*
X177038Y10070D01*
X176821Y10128D01*
X176275Y10200D01*
X175725D01*
X175179Y10128D01*
X174647Y9986D01*
X174138Y9775D01*
X173662Y9500D01*
X173225Y9165D01*
X172836Y8775D01*
X172500Y8338D01*
X172225Y7862D01*
X172014Y7353D01*
X171872Y6821D01*
X171800Y6275D01*
Y5725D01*
X171872Y5179D01*
X172014Y4647D01*
X172225Y4138D01*
X172500Y3662D01*
X172836Y3225D01*
X173225Y2836D01*
X173662Y2500D01*
X174138Y2225D01*
X174647Y2014D01*
X175179Y1872D01*
X175725Y1800D01*
X176275D01*
X176821Y1872D01*
X177353Y2014D01*
X177862Y2225D01*
X178338Y2500D01*
X178775Y2836D01*
X179165Y3225D01*
X179500Y3662D01*
X179775Y4138D01*
X179986Y4647D01*
X180128Y5179D01*
X180200Y5725D01*
Y6275D01*
X180128Y6821D01*
X179986Y7353D01*
X179775Y7862D01*
X179525Y8294D01*
X184524Y13293D01*
X190508D01*
X190699Y12831D01*
X187707Y9839D01*
X187353Y9986D01*
X186821Y10128D01*
X186275Y10200D01*
X185725D01*
X185179Y10128D01*
X184647Y9986D01*
X184138Y9775D01*
X183662Y9500D01*
X183225Y9165D01*
X182835Y8775D01*
X182500Y8338D01*
X182225Y7862D01*
X182014Y7353D01*
X181872Y6821D01*
X181800Y6275D01*
Y5725D01*
X181872Y5179D01*
X182014Y4647D01*
X182225Y4138D01*
X182500Y3662D01*
X182835Y3225D01*
X183225Y2836D01*
X183662Y2500D01*
X184138Y2225D01*
X184647Y2014D01*
X185179Y1872D01*
X185725Y1800D01*
X186275D01*
X186821Y1872D01*
X187353Y2014D01*
X187862Y2225D01*
X188338Y2500D01*
X188775Y2836D01*
X189164Y3225D01*
X189500Y3662D01*
X189775Y4138D01*
X189986Y4647D01*
X190128Y5179D01*
X190200Y5725D01*
Y6275D01*
X190128Y6821D01*
X189986Y7353D01*
X189839Y7707D01*
X193424Y11293D01*
X198508D01*
X198699Y10831D01*
X197707Y9839D01*
X197353Y9986D01*
X196821Y10128D01*
X196275Y10200D01*
X195725D01*
X195179Y10128D01*
X194647Y9986D01*
X194138Y9775D01*
X193662Y9500D01*
X193225Y9165D01*
X192835Y8775D01*
X192500Y8338D01*
X192225Y7862D01*
X192014Y7353D01*
X191872Y6821D01*
X191800Y6275D01*
Y5725D01*
X191872Y5179D01*
X192014Y4647D01*
X192225Y4138D01*
X192500Y3662D01*
X192835Y3225D01*
X193225Y2836D01*
X193662Y2500D01*
X194138Y2225D01*
X194647Y2014D01*
X195179Y1872D01*
X195725Y1800D01*
X196275D01*
X196821Y1872D01*
X197353Y2014D01*
X197862Y2225D01*
X198338Y2500D01*
X198775Y2836D01*
X199164Y3225D01*
X199500Y3662D01*
X199775Y4138D01*
X199986Y4647D01*
X200128Y5179D01*
X200200Y5725D01*
Y6275D01*
X200128Y6821D01*
X199986Y7353D01*
X199839Y7707D01*
X201424Y9293D01*
X202646D01*
X202853Y8793D01*
X202835Y8775D01*
X202500Y8338D01*
X202225Y7862D01*
X202014Y7353D01*
X201872Y6821D01*
X201800Y6275D01*
Y5725D01*
X201872Y5179D01*
X202014Y4647D01*
X202225Y4138D01*
X202500Y3662D01*
X202835Y3225D01*
X203225Y2836D01*
X203662Y2500D01*
X204138Y2225D01*
X204647Y2014D01*
X205179Y1872D01*
X205725Y1800D01*
X206275D01*
X206821Y1872D01*
X207353Y2014D01*
X207862Y2225D01*
X208338Y2500D01*
X208775Y2836D01*
X209165Y3225D01*
X209500Y3662D01*
X209775Y4138D01*
X209986Y4647D01*
X210128Y5179D01*
X210200Y5725D01*
Y6275D01*
X210128Y6821D01*
X210070Y7038D01*
X216424Y13393D01*
X220008D01*
X220199Y12931D01*
X217275Y10007D01*
X216821Y10128D01*
X216275Y10200D01*
X215725D01*
X215179Y10128D01*
X214647Y9986D01*
X214138Y9775D01*
X213662Y9500D01*
X213225Y9165D01*
X212836Y8775D01*
X212500Y8338D01*
X212225Y7862D01*
X212014Y7353D01*
X211872Y6821D01*
X211800Y6275D01*
Y5725D01*
X211872Y5179D01*
X212014Y4647D01*
X212225Y4138D01*
X212500Y3662D01*
X212836Y3225D01*
X213225Y2836D01*
X213662Y2500D01*
X214138Y2225D01*
X214647Y2014D01*
X215179Y1872D01*
X215725Y1800D01*
X216275D01*
X216821Y1872D01*
X217353Y2014D01*
X217862Y2225D01*
X218338Y2500D01*
X218775Y2836D01*
X219164Y3225D01*
X219500Y3662D01*
X219775Y4138D01*
X219986Y4647D01*
X220128Y5179D01*
X220200Y5725D01*
Y6275D01*
X220128Y6821D01*
X219986Y7353D01*
X219775Y7862D01*
X219635Y8104D01*
X222924Y11393D01*
X228608D01*
X228799Y10931D01*
X227707Y9839D01*
X227353Y9986D01*
X226821Y10128D01*
X226275Y10200D01*
X225725D01*
X225179Y10128D01*
X224647Y9986D01*
X224138Y9775D01*
X223662Y9500D01*
X223225Y9165D01*
X222835Y8775D01*
X222500Y8338D01*
X222225Y7862D01*
X222014Y7353D01*
X221872Y6821D01*
X221800Y6275D01*
Y5725D01*
X221872Y5179D01*
X222014Y4647D01*
X222225Y4138D01*
X222500Y3662D01*
X222835Y3225D01*
X223225Y2836D01*
X223662Y2500D01*
X224138Y2225D01*
X224647Y2014D01*
X225179Y1872D01*
X225725Y1800D01*
X226275D01*
X226821Y1872D01*
X227353Y2014D01*
X227862Y2225D01*
X228338Y2500D01*
X228775Y2836D01*
X229165Y3225D01*
X229500Y3662D01*
X229775Y4138D01*
X229986Y4647D01*
X230128Y5179D01*
X230200Y5725D01*
Y6275D01*
X230128Y6821D01*
X229986Y7353D01*
X229839Y7707D01*
X231124Y8993D01*
X232372D01*
X232619Y8493D01*
X232500Y8338D01*
X232225Y7862D01*
X232014Y7353D01*
X231872Y6821D01*
X231800Y6275D01*
Y5725D01*
X231872Y5179D01*
X232014Y4647D01*
X232225Y4138D01*
X232500Y3662D01*
X232836Y3225D01*
X233225Y2836D01*
X233662Y2500D01*
X234138Y2225D01*
X234647Y2014D01*
X235179Y1872D01*
X235725Y1800D01*
X236275D01*
X236821Y1872D01*
X237353Y2014D01*
X237862Y2225D01*
X238338Y2500D01*
X238775Y2836D01*
X239164Y3225D01*
X239500Y3662D01*
X239775Y4138D01*
X239986Y4647D01*
X240128Y5179D01*
X240200Y5725D01*
Y6275D01*
X240128Y6821D01*
X239986Y7353D01*
X239775Y7862D01*
X239500Y8338D01*
X239164Y8775D01*
X238782Y9158D01*
X238681Y9268D01*
X238651Y9734D01*
X242775Y13858D01*
X243171Y13547D01*
X243166Y13539D01*
X243015Y13175D01*
X242923Y12792D01*
X242892Y12400D01*
X242923Y12008D01*
X243015Y11625D01*
X243166Y11261D01*
X243371Y10926D01*
X243627Y10627D01*
X243926Y10371D01*
X244065Y10286D01*
X244104Y10015D01*
X244064Y9753D01*
X244050Y9724D01*
X243662Y9500D01*
X243225Y9165D01*
X242835Y8775D01*
X242500Y8338D01*
X242225Y7862D01*
X242014Y7353D01*
X241872Y6821D01*
X241800Y6275D01*
Y5725D01*
X241872Y5179D01*
X242014Y4647D01*
X242225Y4138D01*
X242500Y3662D01*
X242835Y3225D01*
X243225Y2836D01*
X243662Y2500D01*
X244138Y2225D01*
X244647Y2014D01*
X245179Y1872D01*
X245725Y1800D01*
X246275D01*
X246821Y1872D01*
X247353Y2014D01*
X247862Y2225D01*
X248338Y2500D01*
X248775Y2836D01*
X249165Y3225D01*
X249500Y3662D01*
X249775Y4138D01*
X249986Y4647D01*
X250128Y5179D01*
X250200Y5725D01*
Y6275D01*
X250128Y6821D01*
X249986Y7353D01*
X249775Y7862D01*
X249500Y8338D01*
X249165Y8775D01*
X248775Y9165D01*
X248478Y9392D01*
X248648Y9892D01*
X258561D01*
X261800Y6654D01*
Y1800D01*
X270200D01*
Y10200D01*
X265347D01*
X261373Y14173D01*
X261074Y14429D01*
X260738Y14634D01*
X260375Y14785D01*
X259992Y14877D01*
X259600Y14908D01*
X245400D01*
X245008Y14877D01*
X244625Y14785D01*
X244262Y14634D01*
X244253Y14629D01*
X243942Y15025D01*
X247210Y18293D01*
X252696D01*
X252867Y18122D01*
X253147Y17918D01*
X253455Y17761D01*
X253785Y17654D01*
X254127Y17600D01*
X254473D01*
X254815Y17654D01*
X255145Y17761D01*
X255453Y17918D01*
X255733Y18122D01*
X255978Y18367D01*
X256182Y18647D01*
X256339Y18956D01*
X256446Y19285D01*
X256500Y19627D01*
Y19973D01*
X256446Y20315D01*
X256339Y20644D01*
X256182Y20953D01*
X255978Y21233D01*
X255733Y21478D01*
X255453Y21682D01*
X255145Y21839D01*
X254815Y21946D01*
X254473Y22000D01*
X254127D01*
X253785Y21946D01*
X253455Y21839D01*
X253147Y21682D01*
X252867Y21478D01*
X252696Y21307D01*
X248049D01*
X247858Y21769D01*
X251359Y25270D01*
X251546Y25499D01*
X251548Y25501D01*
X252534Y26488D01*
X252721Y26716D01*
X252861Y26977D01*
X252946Y27259D01*
X252975Y27553D01*
Y35451D01*
X253146Y35622D01*
X253350Y35902D01*
X253434Y36068D01*
X253836Y36194D01*
X254024Y36185D01*
X259493Y30717D01*
Y24000D01*
X259522Y23706D01*
X259608Y23423D01*
X259747Y23163D01*
X259934Y22934D01*
X262900Y19968D01*
Y19727D01*
X262954Y19385D01*
X263061Y19056D01*
X263218Y18747D01*
X263422Y18467D01*
X263667Y18222D01*
X263947Y18018D01*
X264255Y17861D01*
X264585Y17754D01*
X264927Y17700D01*
X265273D01*
X265615Y17754D01*
X265945Y17861D01*
X266253Y18018D01*
X266533Y18222D01*
X266778Y18467D01*
X266982Y18747D01*
X267139Y19056D01*
X267246Y19385D01*
X267300Y19727D01*
Y20073D01*
X267246Y20415D01*
X267139Y20744D01*
X266982Y21053D01*
X266778Y21333D01*
X266533Y21578D01*
X266253Y21782D01*
X265945Y21939D01*
X265615Y22046D01*
X265273Y22100D01*
X265032D01*
X262507Y24624D01*
Y31341D01*
X262478Y31635D01*
X262392Y31918D01*
X262253Y32179D01*
X262066Y32407D01*
X253652Y40821D01*
X253424Y41008D01*
X253163Y41147D01*
X252880Y41233D01*
X252586Y41262D01*
X228670D01*
X212401Y57531D01*
X212592Y57993D01*
X216449D01*
X216461Y57955D01*
X216618Y57647D01*
X216822Y57367D01*
X217067Y57122D01*
X217347Y56918D01*
X217655Y56761D01*
X217985Y56654D01*
X218327Y56600D01*
X218673D01*
X219015Y56654D01*
X219344Y56761D01*
X219653Y56918D01*
X219933Y57122D01*
X220178Y57367D01*
X220382Y57647D01*
X220539Y57955D01*
X220646Y58285D01*
X220700Y58627D01*
Y58664D01*
X221107Y59079D01*
X221186Y59100D01*
X221473D01*
X221815Y59154D01*
X222145Y59261D01*
X222453Y59418D01*
X222733Y59622D01*
X222978Y59867D01*
X223182Y60147D01*
X223339Y60456D01*
X223446Y60785D01*
X223500Y61127D01*
Y61473D01*
X223446Y61815D01*
X223339Y62145D01*
X223263Y62293D01*
X223453Y62701D01*
X223553Y62793D01*
X238221D01*
X238515Y62822D01*
X238798Y62907D01*
X239058Y63047D01*
X239287Y63234D01*
X241545Y65493D01*
X243118D01*
X243412Y65522D01*
X243695Y65608D01*
X243956Y65747D01*
X244184Y65934D01*
X245606Y67356D01*
X247027D01*
X247198Y67185D01*
X247478Y66982D01*
X247787Y66825D01*
X248116Y66717D01*
X248458Y66663D01*
X248804D01*
X249147Y66717D01*
X249476Y66825D01*
X249784Y66982D01*
X250064Y67185D01*
X250309Y67430D01*
X250513Y67710D01*
X250670Y68019D01*
X250777Y68348D01*
X250831Y68690D01*
Y69036D01*
X250777Y69378D01*
X250670Y69708D01*
X250513Y70016D01*
X250309Y70297D01*
X250138Y70467D01*
Y71963D01*
X250310Y72111D01*
X250639Y72242D01*
X250836Y72141D01*
X251165Y72035D01*
X251507Y71980D01*
X251853D01*
X252196Y72035D01*
X252525Y72141D01*
X252833Y72299D01*
X253114Y72502D01*
X253358Y72747D01*
X253562Y73027D01*
X253719Y73336D01*
X253826Y73665D01*
X253880Y74007D01*
Y74353D01*
X253826Y74695D01*
X253719Y75025D01*
X253562Y75333D01*
X253358Y75613D01*
X253114Y75858D01*
X252920Y75999D01*
Y78788D01*
X252891Y79082D01*
X252805Y79364D01*
X252666Y79625D01*
X252478Y79853D01*
X245608Y86724D01*
X245628Y87024D01*
X245733Y87306D01*
X245953Y87418D01*
X246233Y87622D01*
X246478Y87867D01*
X246682Y88147D01*
X246839Y88455D01*
X246946Y88785D01*
X247000Y89127D01*
Y89473D01*
X246946Y89815D01*
X246839Y90144D01*
X246682Y90453D01*
X246508Y90692D01*
X246541Y90850D01*
X246726Y91192D01*
X248800D01*
X249192Y91223D01*
X249575Y91315D01*
X249939Y91466D01*
X250274Y91671D01*
X250573Y91927D01*
X254498Y95851D01*
X254619Y95926D01*
X254919Y96181D01*
X256577Y97840D01*
X256821Y97872D01*
X257353Y98014D01*
X257862Y98225D01*
X258338Y98500D01*
X258775Y98835D01*
X259165Y99225D01*
X259500Y99662D01*
X259775Y100138D01*
X259986Y100647D01*
X260128Y101179D01*
X260200Y101725D01*
Y102275D01*
X260128Y102821D01*
X259986Y103353D01*
X259775Y103862D01*
X259500Y104338D01*
X259165Y104775D01*
X258775Y105165D01*
X258338Y105500D01*
X257862Y105775D01*
X257353Y105986D01*
X256821Y106128D01*
X256275Y106200D01*
D02*
G37*
G36*
X39808Y90544D02*
X35942D01*
X35651Y90506D01*
X35381Y90394D01*
X35149Y90216D01*
X33698Y88765D01*
X33520Y88533D01*
X33408Y88262D01*
X33370Y87972D01*
Y87119D01*
X32983Y86777D01*
X32897Y86794D01*
X32503D01*
X32117Y86717D01*
X31753Y86567D01*
X31425Y86348D01*
X31146Y86069D01*
X30928Y85741D01*
X30777Y85378D01*
X30700Y84991D01*
Y84597D01*
X30777Y84211D01*
X30928Y83847D01*
X31146Y83519D01*
X31425Y83241D01*
X31753Y83022D01*
X32117Y82871D01*
X32503Y82794D01*
X32897D01*
X33283Y82871D01*
X33647Y83022D01*
X33975Y83241D01*
X34253Y83519D01*
X34472Y83847D01*
X34623Y84211D01*
X34700Y84597D01*
Y84991D01*
X34700Y84992D01*
X34935Y85288D01*
X34979Y85319D01*
X35456Y85123D01*
X35477Y85017D01*
X35628Y84653D01*
X35846Y84325D01*
X36125Y84047D01*
X36453Y83828D01*
X36817Y83677D01*
X37203Y83600D01*
X37597D01*
X37983Y83677D01*
X38347Y83828D01*
X38675Y84047D01*
X38954Y84325D01*
X39172Y84653D01*
X39323Y85017D01*
X39400Y85403D01*
Y85526D01*
X39900Y85733D01*
X50237Y75396D01*
X50470Y75218D01*
X50740Y75106D01*
X51030Y75067D01*
X57100D01*
Y74703D01*
X57177Y74317D01*
X57328Y73953D01*
X57547Y73625D01*
X57825Y73347D01*
X58153Y73128D01*
X58517Y72977D01*
X58903Y72900D01*
X59297D01*
X59683Y72977D01*
X60047Y73128D01*
X60375Y73347D01*
X60654Y73625D01*
X60872Y73953D01*
X61023Y74317D01*
X61100Y74703D01*
Y75097D01*
X61023Y75483D01*
X60872Y75847D01*
X60654Y76175D01*
X60375Y76454D01*
X60047Y76672D01*
X59976Y76702D01*
X59942Y77257D01*
X60075Y77346D01*
X60353Y77625D01*
X60572Y77953D01*
X60723Y78317D01*
X60800Y78703D01*
Y79097D01*
X60723Y79483D01*
X60572Y79847D01*
X60353Y80175D01*
X60075Y80453D01*
X59747Y80672D01*
X59383Y80823D01*
X58997Y80900D01*
X58603D01*
X58217Y80823D01*
X57853Y80672D01*
X57525Y80453D01*
X57247Y80175D01*
X57028Y79847D01*
X56877Y79483D01*
X56800Y79097D01*
Y78733D01*
X52084D01*
X40601Y90216D01*
X40369Y90394D01*
X40098Y90506D01*
X39808Y90544D01*
D02*
G37*
G36*
X49473Y19300D02*
X49127D01*
X48785Y19246D01*
X48456Y19139D01*
X48147Y18982D01*
X47867Y18778D01*
X47622Y18533D01*
X47418Y18253D01*
X47261Y17944D01*
X47154Y17615D01*
X47100Y17273D01*
Y17032D01*
X46176Y16107D01*
X38704D01*
X38533Y16278D01*
X38253Y16482D01*
X37944Y16639D01*
X37615Y16746D01*
X37273Y16800D01*
X36927D01*
X36585Y16746D01*
X36255Y16639D01*
X35947Y16482D01*
X35667Y16278D01*
X35422Y16033D01*
X35218Y15753D01*
X35061Y15445D01*
X34954Y15115D01*
X34900Y14773D01*
Y14427D01*
X34954Y14085D01*
X35061Y13756D01*
X35218Y13447D01*
X35422Y13167D01*
X35667Y12922D01*
X35947Y12718D01*
X36255Y12561D01*
X36585Y12454D01*
X36927Y12400D01*
X37273D01*
X37615Y12454D01*
X37944Y12561D01*
X38253Y12718D01*
X38533Y12922D01*
X38704Y13093D01*
X46800D01*
X47094Y13122D01*
X47377Y13207D01*
X47637Y13347D01*
X47866Y13534D01*
X49232Y14900D01*
X49473D01*
X49815Y14954D01*
X50144Y15061D01*
X50453Y15218D01*
X50733Y15422D01*
X50978Y15667D01*
X51182Y15947D01*
X51339Y16255D01*
X51446Y16585D01*
X51500Y16927D01*
Y17273D01*
X51446Y17615D01*
X51339Y17944D01*
X51182Y18253D01*
X50978Y18533D01*
X50733Y18778D01*
X50453Y18982D01*
X50144Y19139D01*
X49815Y19246D01*
X49473Y19300D01*
D02*
G37*
G36*
X76262Y10000D02*
X75738D01*
X75218Y9932D01*
X74712Y9796D01*
X74227Y9595D01*
X73773Y9333D01*
X73357Y9014D01*
X72986Y8643D01*
X72667Y8227D01*
X72405Y7773D01*
X72204Y7288D01*
X72068Y6782D01*
X72000Y6262D01*
Y5738D01*
X72068Y5218D01*
X72204Y4712D01*
X72405Y4227D01*
X72667Y3773D01*
X72986Y3357D01*
X73357Y2986D01*
X73773Y2667D01*
X74227Y2405D01*
X74712Y2204D01*
X75218Y2068D01*
X75738Y2000D01*
X76262D01*
X76782Y2068D01*
X77289Y2204D01*
X77773Y2405D01*
X78227Y2667D01*
X78643Y2986D01*
X79014Y3357D01*
X79333Y3773D01*
X79595Y4227D01*
X79796Y4712D01*
X79932Y5218D01*
X80000Y5738D01*
Y6262D01*
X79932Y6782D01*
X79796Y7288D01*
X79595Y7773D01*
X79333Y8227D01*
X79014Y8643D01*
X78643Y9014D01*
X78227Y9333D01*
X77773Y9595D01*
X77289Y9796D01*
X76782Y9932D01*
X76262Y10000D01*
D02*
G37*
G36*
X66262D02*
X65738D01*
X65218Y9932D01*
X64711Y9796D01*
X64227Y9595D01*
X63773Y9333D01*
X63357Y9014D01*
X62986Y8643D01*
X62667Y8227D01*
X62405Y7773D01*
X62204Y7288D01*
X62068Y6782D01*
X62000Y6262D01*
Y5738D01*
X62068Y5218D01*
X62204Y4712D01*
X62405Y4227D01*
X62667Y3773D01*
X62986Y3357D01*
X63357Y2986D01*
X63773Y2667D01*
X64227Y2405D01*
X64711Y2204D01*
X65218Y2068D01*
X65738Y2000D01*
X66262D01*
X66782Y2068D01*
X67289Y2204D01*
X67773Y2405D01*
X68227Y2667D01*
X68643Y2986D01*
X69014Y3357D01*
X69333Y3773D01*
X69595Y4227D01*
X69796Y4712D01*
X69932Y5218D01*
X70000Y5738D01*
Y6262D01*
X69932Y6782D01*
X69796Y7288D01*
X69595Y7773D01*
X69333Y8227D01*
X69014Y8643D01*
X68643Y9014D01*
X68227Y9333D01*
X67773Y9595D01*
X67289Y9796D01*
X66782Y9932D01*
X66262Y10000D01*
D02*
G37*
G36*
X36275Y10200D02*
X35725D01*
X35179Y10128D01*
X34647Y9986D01*
X34138Y9775D01*
X33662Y9500D01*
X33225Y9165D01*
X32836Y8775D01*
X32500Y8338D01*
X32225Y7862D01*
X32014Y7353D01*
X31872Y6821D01*
X31800Y6275D01*
Y5725D01*
X31872Y5179D01*
X32014Y4647D01*
X32225Y4138D01*
X32500Y3662D01*
X32836Y3225D01*
X33225Y2836D01*
X33662Y2500D01*
X34138Y2225D01*
X34647Y2014D01*
X35179Y1872D01*
X35725Y1800D01*
X36275D01*
X36821Y1872D01*
X37353Y2014D01*
X37862Y2225D01*
X38338Y2500D01*
X38775Y2836D01*
X39165Y3225D01*
X39500Y3662D01*
X39775Y4138D01*
X39986Y4647D01*
X40128Y5179D01*
X40200Y5725D01*
Y6275D01*
X40128Y6821D01*
X39986Y7353D01*
X39775Y7862D01*
X39500Y8338D01*
X39165Y8775D01*
X38775Y9165D01*
X38338Y9500D01*
X37862Y9775D01*
X37353Y9986D01*
X36821Y10128D01*
X36275Y10200D01*
D02*
G37*
%LPD*%
G36*
X189803Y76514D02*
X189722Y76433D01*
X189518Y76153D01*
X189361Y75845D01*
X189254Y75515D01*
X189200Y75173D01*
Y74827D01*
X189254Y74485D01*
X189312Y74307D01*
X189117Y73934D01*
X188977Y73807D01*
X183324D01*
X180579Y76552D01*
X180771Y77014D01*
X189596D01*
X189803Y76514D01*
D02*
G37*
G36*
X202083Y79829D02*
X202311Y79641D01*
X202572Y79502D01*
X202854Y79416D01*
X203148Y79387D01*
X211738D01*
X216057Y75068D01*
Y74827D01*
X216111Y74485D01*
X216218Y74155D01*
X216375Y73847D01*
X216579Y73567D01*
X216824Y73322D01*
X217104Y73118D01*
X217412Y72961D01*
X217741Y72854D01*
X218084Y72800D01*
X218430D01*
X218772Y72854D01*
X219101Y72961D01*
X219410Y73118D01*
X219616Y73268D01*
X219651Y73252D01*
X219961Y72844D01*
X219854Y72515D01*
X219800Y72173D01*
Y71827D01*
X219854Y71485D01*
X219961Y71156D01*
X220118Y70847D01*
X220322Y70567D01*
X220567Y70322D01*
X220847Y70118D01*
X221156Y69961D01*
X221485Y69854D01*
X221827Y69800D01*
X222173D01*
X222515Y69854D01*
X222845Y69961D01*
X223153Y70118D01*
X223433Y70322D01*
X223678Y70567D01*
X223882Y70847D01*
X224039Y71156D01*
X224146Y71485D01*
X224200Y71827D01*
Y72173D01*
X224161Y72417D01*
X224291Y72624D01*
X224568Y72833D01*
X224777Y72800D01*
X225123D01*
X225465Y72854D01*
X225794Y72961D01*
X226103Y73118D01*
X226383Y73322D01*
X226460Y73399D01*
X226960Y73192D01*
Y70470D01*
X226789Y70300D01*
X226586Y70020D01*
X226429Y69711D01*
X226322Y69382D01*
X226267Y69040D01*
Y68693D01*
X226322Y68351D01*
X226429Y68022D01*
X226586Y67713D01*
X226789Y67433D01*
X227034Y67188D01*
X227314Y66985D01*
X227623Y66828D01*
X227952Y66721D01*
X228294Y66667D01*
X228641D01*
X228983Y66721D01*
X229312Y66828D01*
X229620Y66985D01*
X229901Y67188D01*
X230146Y67433D01*
X230349Y67713D01*
X230506Y68022D01*
X230613Y68351D01*
X230667Y68693D01*
Y69040D01*
X230613Y69382D01*
X230506Y69711D01*
X230349Y70020D01*
X230146Y70300D01*
X229975Y70470D01*
Y72874D01*
X230475Y73129D01*
X230489Y73118D01*
X230798Y72961D01*
X231127Y72854D01*
X231469Y72800D01*
X231816D01*
X232158Y72854D01*
X232487Y72961D01*
X232796Y73118D01*
X233076Y73322D01*
X233153Y73399D01*
X233653Y73192D01*
Y70470D01*
X233482Y70300D01*
X233279Y70020D01*
X233121Y69711D01*
X233014Y69382D01*
X232960Y69040D01*
Y68693D01*
X233014Y68351D01*
X233121Y68022D01*
X233279Y67713D01*
X233482Y67433D01*
X233727Y67188D01*
X234007Y66985D01*
X234316Y66828D01*
X234645Y66721D01*
X234987Y66667D01*
X235333D01*
X235676Y66721D01*
X236005Y66828D01*
X236313Y66985D01*
X236594Y67188D01*
X236838Y67433D01*
X237042Y67713D01*
X237199Y68022D01*
X237306Y68351D01*
X237360Y68693D01*
Y69040D01*
X237306Y69382D01*
X237199Y69711D01*
X237042Y70020D01*
X236838Y70300D01*
X236668Y70470D01*
Y72874D01*
X237168Y73129D01*
X237182Y73118D01*
X237491Y72961D01*
X237820Y72854D01*
X238162Y72800D01*
X238509D01*
X238851Y72854D01*
X239180Y72961D01*
X239489Y73118D01*
X239769Y73322D01*
X239993Y73546D01*
X240078Y73541D01*
X240493Y73376D01*
Y71304D01*
X240322Y71133D01*
X240118Y70853D01*
X239961Y70544D01*
X239854Y70215D01*
X239800Y69873D01*
Y69527D01*
X239854Y69185D01*
X239961Y68856D01*
X240118Y68547D01*
X240143Y68513D01*
X240084Y68253D01*
X239855Y68066D01*
X237597Y65807D01*
X209523D01*
X209383Y65934D01*
X209188Y66307D01*
X209246Y66485D01*
X209300Y66827D01*
Y67173D01*
X209298Y67189D01*
X209744Y67567D01*
X209785Y67554D01*
X210127Y67500D01*
X210473D01*
X210815Y67554D01*
X211144Y67661D01*
X211453Y67818D01*
X211733Y68022D01*
X211978Y68267D01*
X212182Y68547D01*
X212339Y68856D01*
X212446Y69185D01*
X212500Y69527D01*
Y69873D01*
X212446Y70215D01*
X212339Y70544D01*
X212182Y70853D01*
X211978Y71133D01*
X211733Y71378D01*
X211699Y71403D01*
X211678Y71667D01*
X211882Y71947D01*
X212039Y72255D01*
X212146Y72585D01*
X212200Y72927D01*
Y73273D01*
X212146Y73615D01*
X212039Y73944D01*
X211882Y74253D01*
X211678Y74533D01*
X211433Y74778D01*
X211153Y74982D01*
X210844Y75139D01*
X210515Y75246D01*
X210173Y75300D01*
X209827D01*
X209700Y75280D01*
X209416Y75333D01*
X209154Y75664D01*
X209146Y75715D01*
X209039Y76044D01*
X208882Y76353D01*
X208678Y76633D01*
X208433Y76878D01*
X208153Y77082D01*
X207844Y77239D01*
X207515Y77346D01*
X207173Y77400D01*
X206827D01*
X206485Y77346D01*
X206155Y77239D01*
X205847Y77082D01*
X205567Y76878D01*
X205396Y76707D01*
X204306D01*
X196772Y84241D01*
X196943Y84777D01*
X197107Y84805D01*
X202083Y79829D01*
D02*
G37*
G36*
X88334Y52634D02*
X88563Y52447D01*
X88823Y52307D01*
X89106Y52222D01*
X89400Y52193D01*
X89796D01*
X89967Y52022D01*
X90247Y51818D01*
X90556Y51661D01*
X90885Y51554D01*
X91227Y51500D01*
X91573D01*
X91915Y51554D01*
X92244Y51661D01*
X92553Y51818D01*
X92567Y51828D01*
X93050Y51845D01*
X93222Y51704D01*
X93322Y51567D01*
X93567Y51322D01*
X93847Y51118D01*
X94013Y51034D01*
X94139Y50632D01*
X94130Y50444D01*
X92494Y48807D01*
X84010D01*
X83991Y49307D01*
X84192Y49323D01*
X84575Y49415D01*
X84939Y49566D01*
X85274Y49771D01*
X85573Y50027D01*
X85829Y50326D01*
X86034Y50661D01*
X86185Y51025D01*
X86277Y51408D01*
X86308Y51800D01*
X86277Y52192D01*
X86185Y52575D01*
X86034Y52938D01*
X85829Y53274D01*
X85573Y53573D01*
X79808Y59339D01*
Y60507D01*
X80270Y60699D01*
X88334Y52634D01*
D02*
G37*
G36*
X139483Y55362D02*
X139291Y54900D01*
X135000D01*
Y48900D01*
X135127D01*
X135314Y48639D01*
X135397Y48400D01*
X135220Y48052D01*
X135074Y47602D01*
X135000Y47136D01*
Y46664D01*
X135074Y46198D01*
X135220Y45748D01*
X135434Y45328D01*
X135712Y44946D01*
X136046Y44612D01*
X136428Y44334D01*
X136848Y44120D01*
X137297Y43974D01*
X137764Y43900D01*
X138236D01*
X138702Y43974D01*
X139152Y44120D01*
X139572Y44334D01*
X139954Y44612D01*
X140288Y44946D01*
X140566Y45328D01*
X140780Y45748D01*
X140926Y46198D01*
X141000Y46664D01*
Y47136D01*
X140926Y47602D01*
X140780Y48052D01*
X140603Y48400D01*
X140686Y48639D01*
X140873Y48900D01*
X141000D01*
Y53191D01*
X141462Y53383D01*
X143562Y51282D01*
X143563Y51282D01*
X143793Y51105D01*
X144061Y50995D01*
X144348Y50957D01*
X175341D01*
X175532Y50495D01*
X172149Y47111D01*
X159000D01*
X159000Y47111D01*
X158712Y47073D01*
X158444Y46962D01*
X158214Y46786D01*
X158214Y46786D01*
X154340Y42911D01*
X142561D01*
X142561Y42911D01*
X142273Y42873D01*
X142006Y42762D01*
X141776Y42586D01*
X141775Y42586D01*
X136341Y37151D01*
X131000D01*
Y37197D01*
X130923Y37583D01*
X130772Y37947D01*
X130553Y38275D01*
X130275Y38554D01*
X129947Y38772D01*
X129583Y38923D01*
X129197Y39000D01*
X128803D01*
X128417Y38923D01*
X128053Y38772D01*
X127725Y38554D01*
X127446Y38275D01*
X127228Y37947D01*
X127077Y37583D01*
X127000Y37197D01*
Y36803D01*
X127077Y36417D01*
X127228Y36053D01*
X127446Y35725D01*
X127558Y35614D01*
X127715Y35412D01*
X127578Y34952D01*
X127359Y34624D01*
X127209Y34260D01*
X127132Y33874D01*
Y33701D01*
X126648Y33441D01*
X126487Y33563D01*
Y55442D01*
X126458Y55736D01*
X126372Y56019D01*
X126233Y56279D01*
X126045Y56508D01*
X125663Y56890D01*
X125700Y57127D01*
Y57473D01*
X125646Y57815D01*
X125589Y57990D01*
X125786Y58367D01*
X125924Y58491D01*
X136354D01*
X139483Y55362D01*
D02*
G37*
D11*
X35900Y40500D02*
X41400Y46000D01*
X61000D02*
X62300Y47300D01*
X93118D01*
X41400Y46000D02*
X61000D01*
X124979Y31732D02*
Y55442D01*
X123500Y56921D02*
X124979Y55442D01*
X123500Y56921D02*
Y57300D01*
X179976Y60221D02*
X197650D01*
X174828Y55072D02*
X179976Y60221D01*
X178478Y76522D02*
X182700Y72300D01*
X161236Y76522D02*
X178478D01*
X154458Y83300D02*
X161236Y76522D01*
X179700Y68300D02*
X188918D01*
X193241Y63978D01*
X182700Y72300D02*
X192265D01*
X203065Y61500D01*
X117400Y85300D02*
X125400Y77300D01*
X151973D01*
X101215Y85300D02*
X117400D01*
X119000Y87300D02*
X127000Y79300D01*
X152801D01*
X102043Y87300D02*
X119000D01*
X121100Y89300D02*
X129100Y81300D01*
X153630D01*
X102872Y89300D02*
X121100D01*
X123100Y91300D02*
X131100Y83300D01*
X154458D01*
X103700Y91300D02*
X123100D01*
X125000Y93300D02*
X133000Y85300D01*
X155286D01*
X104700Y93300D02*
X125000D01*
X134100Y102000D02*
X141600Y94500D01*
X157400D02*
X165328Y86572D01*
X141600Y94500D02*
X157400D01*
X156672Y92400D02*
X164550Y84522D01*
X126000Y101900D02*
X135500Y92400D01*
X156672D01*
X156143Y90100D02*
X163722Y82522D01*
X127772Y97300D02*
X134972Y90100D01*
X156143D01*
X155715Y87700D02*
X162893Y80522D01*
X126943Y95300D02*
X134543Y87700D01*
X155715D01*
X173396Y66500D02*
X173500D01*
X173937Y66063D01*
X169375Y70522D02*
X173396Y66500D01*
X173937Y66063D02*
X185058D01*
X158751Y70522D02*
X169375D01*
X185058Y66063D02*
X186653Y64468D01*
X157923Y68522D02*
X167583D01*
X173005Y63100D02*
X184100D01*
X167583Y68522D02*
X173005Y63100D01*
X159580Y72522D02*
X175478D01*
X179700Y68300D01*
X176478Y74522D02*
X180700Y70300D01*
X191436D01*
X160408Y74522D02*
X176478D01*
X162065Y78522D02*
X191700D01*
X155286Y85300D02*
X162065Y78522D01*
X191700D02*
X203222Y67000D01*
X188800Y39000D02*
X192300Y42500D01*
X167200Y39000D02*
X188800D01*
X159157Y25300D02*
X168457Y34600D01*
X193900D01*
X158328Y27300D02*
X167828Y36800D01*
X190800D01*
X157500Y29300D02*
X167200Y39000D01*
X190800Y36800D02*
X193700Y39700D01*
X168985Y32300D02*
X195557D01*
X148828Y15300D02*
X163398D01*
X171897Y23800D01*
X203657D01*
X208957Y29100D01*
X176000Y6900D02*
X183900Y14800D01*
X206800D01*
X176800Y16800D02*
X205972D01*
X166000Y6000D02*
X176800Y16800D01*
X161200Y11200D02*
X167700D01*
X175300Y18800D02*
X204314D01*
X167700Y11200D02*
X175300Y18800D01*
X204314D02*
X210614Y25100D01*
X140385Y10802D02*
X140650Y10999D01*
X144498D02*
X144548Y11020D01*
X136532Y7944D02*
X140385Y10802D01*
X144548Y11020D02*
X148828Y15300D01*
X140650Y10999D02*
X144498D01*
X136246Y7659D02*
X136532Y7944D01*
X136000Y6000D02*
X136246Y7659D01*
X126000Y6000D02*
Y7000D01*
X132400Y13400D02*
X143228D01*
X126000Y7000D02*
X132400Y13400D01*
X116000Y6000D02*
X123000Y13000D01*
X128000D02*
X130400Y15400D01*
X123000Y13000D02*
X128000D01*
X130400Y15400D02*
X142400D01*
X147128Y17300D02*
X162569D01*
X143228Y13400D02*
X147128Y17300D01*
X146300Y19300D02*
X161741D01*
X142400Y15400D02*
X146300Y19300D01*
X145300Y21300D02*
X160912D01*
X118400Y17400D02*
X141400D01*
X145300Y21300D01*
X144128Y23300D02*
X159985D01*
X140257Y19428D02*
X144128Y23300D01*
X139400Y19400D02*
X139428Y19428D01*
X140257D01*
X116572Y19400D02*
X139400D01*
X143300Y25300D02*
X159157D01*
X115500Y21428D02*
X139428D01*
X143300Y25300D01*
X142300Y27300D02*
X158328D01*
X138428Y23428D02*
X142300Y27300D01*
X113428Y23428D02*
X138428D01*
X136928Y25428D02*
X140800Y29300D01*
X111680Y25428D02*
X136928D01*
X140800Y29300D02*
X157500D01*
X106000Y6000D02*
X107000D01*
X118400Y17400D01*
X109572Y12400D02*
X116572Y19400D01*
X102400Y12400D02*
X109572D01*
X106400Y16400D02*
X113428Y23428D01*
X66400Y16400D02*
X106400D01*
X56000Y6000D02*
X66400Y16400D01*
X104752Y18500D02*
X111680Y25428D01*
X58172Y11000D02*
X65672Y18500D01*
X104752D01*
X108472Y14400D02*
X115500Y21428D01*
X28668Y79032D02*
X29468D01*
X28400Y79300D02*
X28668Y79032D01*
X29468D02*
X30236Y78264D01*
X42725Y65775D01*
X45729D01*
X93118Y47300D02*
X100131Y54313D01*
Y62131D01*
X102500Y64500D01*
X95000Y53000D02*
X98131Y56131D01*
X98000Y64500D02*
X98131Y64369D01*
Y56131D02*
Y64369D01*
X102500Y64500D02*
X102757D01*
X88000Y89000D02*
X97515D01*
X101215Y85300D01*
X91343Y91000D02*
X98343D01*
X102043Y87300D01*
X87943Y94400D02*
X91343Y91000D01*
X88772Y96400D02*
X92172Y93000D01*
X99172D01*
X102872Y89300D01*
X100000Y95000D02*
X103700Y91300D01*
X86000Y102000D02*
X93000Y95000D01*
X100000D01*
X196578Y28078D02*
X196800Y28300D01*
X170519Y28078D02*
X196578D01*
X196800Y28300D02*
X197310D01*
X206232Y36232D02*
X206500Y36500D01*
X205242Y36232D02*
X206232D01*
X197310Y28300D02*
X205242Y36232D01*
X171069Y25800D02*
X202829D01*
X216421Y31100D02*
X220321Y35000D01*
X208129Y31100D02*
X216421D01*
X162569Y17300D02*
X171069Y25800D01*
X202829D02*
X208129Y31100D01*
X208957Y29100D02*
X219700D01*
X221521Y30921D01*
X221518Y27100D02*
X224696Y30278D01*
X204486Y21800D02*
X209786Y27100D01*
X173399Y21800D02*
X204486D01*
X209786Y27100D02*
X221518D01*
X210614Y25100D02*
X227628D01*
X231389Y25689D02*
Y37055D01*
X212272Y23100D02*
X228800D01*
X231389Y37055D02*
X231502Y36942D01*
X228800Y23100D02*
X231389Y25689D01*
X205972Y16800D02*
X212272Y23100D01*
X206800Y14800D02*
X212900Y20900D01*
X230300D01*
X234907Y25507D01*
X192800Y12800D02*
X208043D01*
X186000Y6000D02*
X192800Y12800D01*
X214143Y18900D02*
X231543D01*
X208043Y12800D02*
X214143Y18900D01*
X231543D02*
X238082Y25439D01*
X232372Y16900D02*
X241600Y26128D01*
X200800Y10800D02*
X208872D01*
X214972Y16900D01*
X232372D01*
X196000Y6000D02*
X200800Y10800D01*
X206000Y6000D02*
X206900D01*
X233200Y14900D02*
X243600Y25300D01*
X206900Y6000D02*
X215800Y14900D01*
X233200D01*
X218500Y83300D02*
X222000Y79800D01*
Y72000D02*
Y79800D01*
X194360Y84522D02*
X203682Y75200D01*
X164550Y84522D02*
X194360D01*
X203682Y75200D02*
X207000D01*
X193532Y82522D02*
X203553Y72500D01*
X163722Y82522D02*
X193532D01*
X203553Y72500D02*
X208118D01*
X192703Y80522D02*
X203525Y69700D01*
X162893Y80522D02*
X192703D01*
X169912Y30300D02*
X196482D01*
X164799Y13200D02*
X173399Y21800D01*
X153200Y13200D02*
X164799D01*
X161741Y19300D02*
X170519Y28078D01*
X160912Y21300D02*
X169912Y30300D01*
X159985Y23300D02*
X168985Y32300D01*
X77000Y65100D02*
X77268Y64832D01*
X78268D02*
X89400Y53700D01*
X77268Y64832D02*
X78268D01*
X89400Y53700D02*
X91400D01*
X236000Y5900D02*
Y6000D01*
X246585Y19800D02*
X254300D01*
X235285Y8500D02*
X246585Y19800D01*
X188932Y64468D02*
X189200Y64200D01*
X186653Y64468D02*
X188932D01*
X243118Y67000D02*
X244982Y68863D01*
X248631D01*
X171650Y55832D02*
X172409Y55072D01*
X174828D01*
X170568Y55832D02*
X171650D01*
X170300Y56100D02*
X170568Y55832D01*
X200572Y57300D02*
X210500D01*
X228045Y39755D01*
X252586D01*
X197650Y60221D02*
X200572Y57300D01*
X191436Y70300D02*
X202236Y59500D01*
X217421D01*
X218121Y58800D02*
X218500D01*
X217421Y59500D02*
X218121Y58800D01*
X203065Y61500D02*
X221100D01*
X221300Y61300D01*
X238221Y64300D02*
X240921Y67000D01*
X203093Y64300D02*
X238221D01*
X192661Y74732D02*
X203093Y64300D01*
X240921Y67000D02*
X243118D01*
X191668Y74732D02*
X192661D01*
X191400Y75000D02*
X191668Y74732D01*
X244775Y27375D02*
Y37055D01*
X243600Y26200D02*
X244775Y27375D01*
X243600Y25300D02*
Y26200D01*
X39997Y97003D02*
X47032Y89968D01*
X48932D02*
X49200Y89700D01*
X47032Y89968D02*
X48932D01*
X30003Y97003D02*
X39997D01*
X27600Y94600D02*
X30003Y97003D01*
X37100Y14600D02*
X46800D01*
X193241Y63641D02*
Y63978D01*
X51000Y11000D02*
X58172D01*
X46000Y6000D02*
X51000Y11000D01*
X46800Y14600D02*
X49300Y17100D01*
X250293Y26378D02*
X251468Y27553D01*
X250293Y26336D02*
Y26378D01*
X251468Y27553D02*
Y37055D01*
X234457Y10500D02*
X250293Y26336D01*
X230500Y10500D02*
X234457D01*
X226000Y6000D02*
X230500Y10500D01*
X248293Y27165D02*
Y30921D01*
X222300Y12900D02*
X234028D01*
X248293Y27165D01*
X96700Y71100D02*
X108900Y83300D01*
X116240D01*
X110800Y76600D02*
X113986Y79786D01*
X114686D01*
X252586Y39755D02*
X261000Y31341D01*
Y24000D02*
X265100Y19900D01*
X261000Y24000D02*
Y31341D01*
X151144Y75300D02*
X157923Y68522D01*
X116240Y83300D02*
X124240Y75300D01*
X151144D01*
X151973Y77300D02*
X158751Y70522D01*
X66000Y102000D02*
X70700Y97300D01*
X76272D02*
X79172Y94400D01*
X70700Y97300D02*
X76272D01*
X79172Y94400D02*
X87943D01*
X152801Y79300D02*
X159580Y72522D01*
X78517Y97883D02*
X80000Y96400D01*
X76000Y100539D02*
Y102000D01*
Y100539D02*
X78517Y98022D01*
Y97883D02*
Y98022D01*
X80000Y96400D02*
X88772D01*
X153630Y81300D02*
X160408Y74522D01*
X112700Y95300D02*
X126943D01*
X96000Y102000D02*
X104700Y93300D01*
X203222Y67000D02*
X207100D01*
X106000Y102000D02*
X112700Y95300D01*
X203525Y69700D02*
X210300D01*
X116000Y102000D02*
X120700Y97300D01*
X127772D01*
X208118Y72500D02*
X208451Y72832D01*
X209732D01*
X210000Y73100D01*
X126000Y101900D02*
Y102000D01*
X248631Y68581D02*
Y78740D01*
X242000Y69700D02*
Y79272D01*
X225972Y95300D02*
X242000Y79272D01*
X226000Y101372D02*
X248631Y78740D01*
X226000Y101372D02*
Y102000D01*
X251412Y74448D02*
Y78788D01*
X236000Y94200D02*
X251412Y78788D01*
X236000Y94200D02*
Y102000D01*
X175428Y92572D02*
X200243D01*
X166000Y102000D02*
X175428Y92572D01*
X196000Y101618D02*
X198883Y98736D01*
X202564D01*
X208000Y93300D01*
X192300Y42500D02*
X196600D01*
X94400Y14400D02*
X108472D01*
X86000Y6000D02*
X94400Y14400D01*
X193900Y34600D02*
X201300Y42000D01*
X96000Y6000D02*
X102400Y12400D01*
X195557Y32300D02*
X206179Y42921D01*
X196482Y30300D02*
X205382Y39200D01*
X207800D01*
X209900Y37100D01*
X220321Y35000D02*
X220700D01*
X146000Y6000D02*
X153200Y13200D01*
X224696Y30278D02*
Y37055D01*
X156000Y6000D02*
X161200Y11200D01*
X227628Y25100D02*
X228214Y25686D01*
Y30921D01*
X176000Y6000D02*
Y6900D01*
X234907Y25507D02*
Y30921D01*
X238082Y25439D02*
Y37055D01*
X241600Y26128D02*
Y30921D01*
X216000Y6600D02*
X222300Y12900D01*
X216000Y6000D02*
Y6600D01*
X134100Y102000D02*
X136000D01*
X166028Y86572D02*
X166078Y86522D01*
X165328Y86572D02*
X166028D01*
X166078Y86522D02*
X197522D01*
X203148Y80895D01*
X212362D02*
X218257Y75000D01*
X203148Y80895D02*
X212362D01*
X146000Y102000D02*
X151100Y96900D01*
X158272D01*
X166600Y88572D01*
X198300D01*
X203572Y83300D01*
X218500D01*
X167428Y90572D02*
X199415D01*
X156000Y102000D02*
X167428Y90572D01*
X204686Y85300D02*
X221543D01*
X199415Y90572D02*
X204686Y85300D01*
X224950Y75000D02*
Y81894D01*
X221543Y85300D02*
X224950Y81894D01*
X200243Y92572D02*
X205515Y87300D01*
X222372D01*
X228467Y68866D02*
Y81204D01*
X222372Y87300D02*
X228467Y81204D01*
X176000Y102000D02*
X183428Y94572D01*
X201072D01*
X206343Y89300D01*
X223200D01*
X231643Y75000D02*
Y80857D01*
X223200Y89300D02*
X231643Y80857D01*
X191264Y96736D02*
X201736D01*
X186000Y102000D02*
X191264Y96736D01*
X207172Y91300D02*
X224315D01*
X201736Y96736D02*
X207172Y91300D01*
X224315D02*
X235160Y80454D01*
Y68866D02*
Y80454D01*
X196000Y101618D02*
Y102000D01*
X208000Y93300D02*
X225143D01*
X238316Y75019D02*
X238335Y75000D01*
X236572Y81872D02*
Y81872D01*
Y81872D02*
X238316Y80127D01*
Y75019D02*
Y80127D01*
X225143Y93300D02*
X236572Y81872D01*
X238082Y37055D02*
X238194Y36942D01*
X224696Y37055D02*
X224809Y36942D01*
X228355Y68979D02*
X228467Y68866D01*
X235048Y68979D02*
X235160Y68866D01*
X216000Y102000D02*
X216100Y101900D01*
X216686Y97300D02*
X226800D01*
X216100Y97886D02*
Y101900D01*
Y97886D02*
X216686Y97300D01*
X226800D02*
X244987Y79113D01*
X212700Y95300D02*
X225972D01*
X206000Y102000D02*
X212700Y95300D01*
X244987Y74180D02*
Y79113D01*
X251412Y74448D02*
X251680Y74180D01*
D52*
X5252Y40016D02*
D03*
Y6000D02*
D03*
Y68000D02*
D03*
Y102016D02*
D03*
D53*
X21000Y40016D02*
D03*
Y6000D02*
D03*
Y68000D02*
D03*
Y102016D02*
D03*
D58*
X69400Y65000D02*
X73210Y68810D01*
X253145Y97955D02*
X256000Y100809D01*
X248800Y93700D02*
X253100Y98000D01*
X245400Y12400D02*
X248100D01*
X94800Y73978D02*
Y80200D01*
X92100Y82900D02*
X94800Y80200D01*
X73210Y68810D02*
X91800D01*
X91972D01*
X91800Y62600D02*
Y68810D01*
X91972D02*
Y71150D01*
X248100Y12400D02*
X259600D01*
X266000Y6000D01*
X240800Y93700D02*
X248800D01*
X73077Y56003D02*
X76623Y52457D01*
Y50376D02*
Y52457D01*
Y50376D02*
X76700Y50300D01*
X77300Y58300D02*
Y61400D01*
Y58300D02*
X83800Y51800D01*
X91972Y71150D02*
X94800Y73978D01*
D59*
X36077Y43576D02*
X37500Y45000D01*
D60*
Y50000D02*
X43903D01*
X66000Y72097D01*
X37500Y55000D02*
Y63500D01*
X37400Y63600D02*
X37500Y63500D01*
X35900Y40500D02*
Y43400D01*
X36077Y43576D01*
X66000Y72097D02*
Y88033D01*
X56459Y97573D02*
X66000Y88033D01*
X56459Y97573D02*
Y101541D01*
X56000Y102000D02*
X56459Y101541D01*
X34700Y66900D02*
X37400Y64200D01*
D61*
X136801Y36040D02*
X142561Y41800D01*
X137382Y34637D02*
X143142Y40397D01*
X130384Y34637D02*
X137382D01*
X130252Y36040D02*
X136801D01*
X129000Y37000D02*
X129292D01*
X130252Y36040D01*
X129424Y33677D02*
X130384Y34637D01*
X129132Y33677D02*
X129424D01*
X159581Y44597D02*
X173190D01*
X143142Y40397D02*
X155381D01*
X142561Y41800D02*
X154800D01*
X155381Y40397D02*
X159581Y44597D01*
X159000Y46000D02*
X172609D01*
X154800Y41800D02*
X159000Y46000D01*
X173190Y44597D02*
X179295Y50701D01*
X172609Y46000D02*
X178713Y52105D01*
X94801Y38802D02*
X115602Y59601D01*
X94220Y40205D02*
X115020Y61005D01*
X72969Y40205D02*
X94220D01*
X73550Y38802D02*
X94801D01*
X115602Y59601D02*
X136814D01*
X115020Y61005D02*
X137396D01*
X136814Y59601D02*
X144348Y52068D01*
X137396Y61005D02*
X144929Y53471D01*
X175491D01*
X144348Y52068D02*
X176072D01*
X36903Y22697D02*
X37526Y22074D01*
X36903Y22171D02*
Y22697D01*
Y22171D02*
X37000Y22074D01*
Y25274D02*
X37486D01*
X38661Y24100D01*
X40500D01*
X37526Y22074D02*
X40459D01*
X40500Y24100D02*
X53292Y36892D01*
X69657D01*
X72969Y40205D01*
X53873Y35489D02*
X70238D01*
X73550Y38802D01*
X40459Y22074D02*
X53873Y35489D01*
X175491Y53471D02*
X180225Y58205D01*
X195462D02*
X201596Y52071D01*
X180225Y58205D02*
X195462D01*
X201596Y52071D02*
X202096D01*
X202449Y52424D02*
Y54451D01*
X202300Y54600D02*
X202449Y54451D01*
X194881Y56801D02*
X201015Y50668D01*
X202096Y52071D02*
X202449Y52424D01*
X202520Y48216D02*
Y50243D01*
X201015Y50668D02*
X202096D01*
X202520Y50243D01*
X180806Y56801D02*
X194881D01*
X176072Y52068D02*
X180806Y56801D01*
X202520Y48216D02*
X202598Y48138D01*
X178713Y52105D02*
X187834D01*
X187849Y52090D02*
X188348D01*
X187834Y52105D02*
X187849Y52090D01*
X188348D02*
X189208Y52950D01*
X189600D01*
X179295Y50701D02*
X187253D01*
X188310Y50687D02*
X189247Y49750D01*
X189600D01*
X187253Y50701D02*
X187268Y50687D01*
X188310D01*
D63*
X36531Y86950D02*
Y88000D01*
X34491Y86585D02*
Y87972D01*
X35942Y89423D01*
X32700Y84794D02*
X34491Y86585D01*
X37400Y85600D02*
Y86081D01*
X36531Y86950D02*
X37400Y86081D01*
X39808Y89423D02*
X51620Y77612D01*
X36531Y88000D02*
X39219D01*
X35942Y89423D02*
X39808D01*
X39219Y88000D02*
X51030Y76188D01*
X57886D01*
X57586Y77612D02*
X58800Y78825D01*
Y78900D01*
X57886Y76188D02*
X59100Y74975D01*
Y74900D02*
Y74975D01*
X51620Y77612D02*
X57586D01*
D64*
X37500Y45000D02*
D03*
X138000Y51900D02*
D03*
D65*
X37500Y50000D02*
D03*
Y55000D02*
D03*
X138000Y46900D02*
D03*
D66*
X36000Y102000D02*
D03*
X46000D02*
D03*
X56000D02*
D03*
X66000D02*
D03*
X76000D02*
D03*
X86000D02*
D03*
X96000D02*
D03*
X106000D02*
D03*
X116000D02*
D03*
X126000D02*
D03*
X136000D02*
D03*
X146000D02*
D03*
X156000D02*
D03*
X166000D02*
D03*
X176000D02*
D03*
X186000D02*
D03*
X196000D02*
D03*
X206000D02*
D03*
X216000D02*
D03*
X226000D02*
D03*
X236000D02*
D03*
X246000D02*
D03*
X256000D02*
D03*
X36000Y6000D02*
D03*
X46000D02*
D03*
X56000D02*
D03*
X66000D02*
D03*
X76000D02*
D03*
X86000D02*
D03*
X96000D02*
D03*
X106000D02*
D03*
X116000D02*
D03*
X126000D02*
D03*
X136000D02*
D03*
X146000D02*
D03*
X156000D02*
D03*
X166000D02*
D03*
X176000D02*
D03*
X186000D02*
D03*
X196000D02*
D03*
X206000D02*
D03*
X216000D02*
D03*
X226000D02*
D03*
X236000D02*
D03*
X246000D02*
D03*
X256000D02*
D03*
D67*
X266000Y102000D02*
D03*
Y6000D02*
D03*
D68*
X57800Y85207D02*
D03*
X124979Y31732D02*
D03*
X129132Y33677D02*
D03*
X129000Y37000D02*
D03*
X83800Y51800D02*
D03*
X95000Y53000D02*
D03*
X105000Y44700D02*
D03*
X91400Y53700D02*
D03*
X114000Y44700D02*
D03*
X109500D02*
D03*
X100200Y40800D02*
D03*
X104800Y33400D02*
D03*
X100300D02*
D03*
X100200Y37300D02*
D03*
X104700Y40800D02*
D03*
Y37300D02*
D03*
X109200D02*
D03*
Y40800D02*
D03*
X99500Y29000D02*
D03*
X86500Y36500D02*
D03*
Y33000D02*
D03*
Y26000D02*
D03*
Y29500D02*
D03*
Y22500D02*
D03*
X248293Y30921D02*
D03*
X248100Y12400D02*
D03*
X245400D02*
D03*
X244900Y50000D02*
D03*
X244775Y37055D02*
D03*
X241600Y42500D02*
D03*
Y30921D02*
D03*
X238400Y50000D02*
D03*
X238082Y37055D02*
D03*
X234907Y30921D02*
D03*
X231389Y37055D02*
D03*
X251468D02*
D03*
X230700Y52961D02*
D03*
X224950Y75000D02*
D03*
X228467Y68866D02*
D03*
X221300Y61300D02*
D03*
X218500Y58800D02*
D03*
X218257Y75000D02*
D03*
X210300Y69700D02*
D03*
X210000Y73100D02*
D03*
X207100Y67000D02*
D03*
X207000Y75200D02*
D03*
X205900Y54500D02*
D03*
X204800Y77900D02*
D03*
X202300Y54600D02*
D03*
X83900Y88300D02*
D03*
X184100Y63100D02*
D03*
X88000Y89000D02*
D03*
X173528Y57772D02*
D03*
X170300Y56100D02*
D03*
X224696Y37055D02*
D03*
X221521Y30921D02*
D03*
X220700Y35000D02*
D03*
X228214Y30921D02*
D03*
X209900Y37100D02*
D03*
X206200Y48400D02*
D03*
X206179Y42921D02*
D03*
X202598Y48138D02*
D03*
X201300Y42000D02*
D03*
X196600Y42500D02*
D03*
X252582Y52961D02*
D03*
X251680Y74180D02*
D03*
X248631Y68863D02*
D03*
X244987Y74180D02*
D03*
X244900Y56000D02*
D03*
X244800Y89300D02*
D03*
X242000Y69700D02*
D03*
X241641Y63902D02*
D03*
X240800Y93700D02*
D03*
X238400Y56000D02*
D03*
X238335Y75000D02*
D03*
X235160Y68866D02*
D03*
X231643Y75000D02*
D03*
X230700Y59457D02*
D03*
X104000Y60300D02*
D03*
X115600Y79900D02*
D03*
X110800Y76600D02*
D03*
X103600Y82556D02*
D03*
X98000Y64500D02*
D03*
X96700Y71100D02*
D03*
X102500Y64500D02*
D03*
X92100Y82900D02*
D03*
X91800Y62600D02*
D03*
X89000Y59600D02*
D03*
X86500Y79000D02*
D03*
Y76500D02*
D03*
Y74000D02*
D03*
X85800Y65200D02*
D03*
X84000Y79000D02*
D03*
Y76500D02*
D03*
Y74000D02*
D03*
X81500Y79000D02*
D03*
Y76500D02*
D03*
Y74000D02*
D03*
X77000Y65100D02*
D03*
X70100Y65000D02*
D03*
X77300Y61400D02*
D03*
X123500Y57300D02*
D03*
X82000Y36500D02*
D03*
Y33000D02*
D03*
Y26000D02*
D03*
Y29500D02*
D03*
Y22500D02*
D03*
X77500Y36500D02*
D03*
Y33000D02*
D03*
Y22500D02*
D03*
Y26000D02*
D03*
Y29500D02*
D03*
X76700Y50300D02*
D03*
X73077Y56003D02*
D03*
X64300Y29000D02*
D03*
X59100Y74900D02*
D03*
X59000Y71600D02*
D03*
X58800Y82300D02*
D03*
Y78900D02*
D03*
X49223Y89865D02*
D03*
X48300Y84200D02*
D03*
X45714Y65775D02*
D03*
X38200Y81900D02*
D03*
X56000Y29000D02*
D03*
X60500D02*
D03*
X33500Y27000D02*
D03*
X37000Y24774D02*
D03*
Y22074D02*
D03*
X33800Y20600D02*
D03*
X61500Y19600D02*
D03*
X49300Y17100D02*
D03*
X59000Y17000D02*
D03*
X56000D02*
D03*
X37100Y14600D02*
D03*
X28400Y79300D02*
D03*
X35900Y40500D02*
D03*
X37400Y63600D02*
D03*
X32700Y84794D02*
D03*
X31800Y81600D02*
D03*
X37400Y85600D02*
D03*
X27600Y94600D02*
D03*
X34700Y66900D02*
D03*
X268980Y21080D02*
D03*
X265800Y32900D02*
D03*
Y29553D02*
D03*
X265100Y19900D02*
D03*
X258300Y29800D02*
D03*
X254954D02*
D03*
X254300Y19800D02*
D03*
X155000Y35000D02*
D03*
X151500D02*
D03*
X158100D02*
D03*
X140100Y34100D02*
D03*
X204000Y31000D02*
D03*
X206500Y36500D02*
D03*
X219909Y67620D02*
D03*
X222000Y72000D02*
D03*
X219000Y44000D02*
D03*
Y40000D02*
D03*
X223000Y54026D02*
D03*
Y50000D02*
D03*
X230700Y46400D02*
D03*
X189600Y52950D02*
D03*
Y49750D02*
D03*
X186300Y48400D02*
D03*
X193700Y39700D02*
D03*
X189200Y64200D02*
D03*
X191400Y75000D02*
D03*
X168800Y94000D02*
D03*
X193241Y63641D02*
D03*
X186200Y54500D02*
D03*
X265675Y36187D02*
D03*
Y42880D02*
D03*
Y49573D02*
D03*
Y46227D02*
D03*
Y39534D02*
D03*
Y52920D02*
D03*
X269180Y86480D02*
D03*
X252700Y46400D02*
D03*
X265675Y62959D02*
D03*
Y72999D02*
D03*
Y56266D02*
D03*
Y66306D02*
D03*
Y59613D02*
D03*
Y69652D02*
D03*
Y76345D02*
D03*
X262400Y84700D02*
D03*
X261740Y77015D02*
D03*
X252582Y59457D02*
D03*
D69*
X219000Y40000D02*
Y44000D01*
X214000Y36000D02*
X215000D01*
X219000Y40000D01*
X206634Y33634D02*
X211634D01*
X214000Y36000D01*
X204000Y31000D02*
X206634Y33634D01*
M02*
