G04*
G04 #@! TF.GenerationSoftware,Altium Limited,Altium Designer,24.3.1 (35)*
G04*
G04 Layer_Color=16711935*
%FSLAX25Y25*%
%MOIN*%
G70*
G04*
G04 #@! TF.SameCoordinates,18358673-9EB0-4F65-8AD0-3A3BFD57A4A7*
G04*
G04*
G04 #@! TF.FilePolarity,Negative*
G04*
G01*
G75*
%ADD50R,0.04400X0.04400*%
%ADD51C,0.04400*%
G04:AMPARAMS|DCode=52|XSize=39.37mil|YSize=86.61mil|CornerRadius=19.68mil|HoleSize=0mil|Usage=FLASHONLY|Rotation=270.000|XOffset=0mil|YOffset=0mil|HoleType=Round|Shape=RoundedRectangle|*
%AMROUNDEDRECTD52*
21,1,0.03937,0.04724,0,0,270.0*
21,1,0.00000,0.08661,0,0,270.0*
1,1,0.03937,-0.02362,0.00000*
1,1,0.03937,-0.02362,0.00000*
1,1,0.03937,0.02362,0.00000*
1,1,0.03937,0.02362,0.00000*
%
%ADD52ROUNDEDRECTD52*%
G04:AMPARAMS|DCode=53|XSize=39.37mil|YSize=70.87mil|CornerRadius=19.68mil|HoleSize=0mil|Usage=FLASHONLY|Rotation=270.000|XOffset=0mil|YOffset=0mil|HoleType=Round|Shape=RoundedRectangle|*
%AMROUNDEDRECTD53*
21,1,0.03937,0.03150,0,0,270.0*
21,1,0.00000,0.07087,0,0,270.0*
1,1,0.03937,-0.01575,0.00000*
1,1,0.03937,-0.01575,0.00000*
1,1,0.03937,0.01575,0.00000*
1,1,0.03937,0.01575,0.00000*
%
%ADD53ROUNDEDRECTD53*%
%ADD54C,0.06800*%
%ADD55R,0.06800X0.06800*%
D50*
X37500Y45000D02*
D03*
X138000Y51900D02*
D03*
D51*
X37500Y50000D02*
D03*
Y55000D02*
D03*
X138000Y46900D02*
D03*
D52*
X5252Y40016D02*
D03*
Y6000D02*
D03*
Y68000D02*
D03*
Y102016D02*
D03*
D53*
X21000Y40016D02*
D03*
Y6000D02*
D03*
Y68000D02*
D03*
Y102016D02*
D03*
D54*
X36000Y102000D02*
D03*
X46000D02*
D03*
X56000D02*
D03*
X66000D02*
D03*
X76000D02*
D03*
X86000D02*
D03*
X96000D02*
D03*
X106000D02*
D03*
X116000D02*
D03*
X126000D02*
D03*
X136000D02*
D03*
X146000D02*
D03*
X156000D02*
D03*
X166000D02*
D03*
X176000D02*
D03*
X186000D02*
D03*
X196000D02*
D03*
X206000D02*
D03*
X216000D02*
D03*
X226000D02*
D03*
X236000D02*
D03*
X246000D02*
D03*
X256000D02*
D03*
X36000Y6000D02*
D03*
X46000D02*
D03*
X56000D02*
D03*
X66000D02*
D03*
X76000D02*
D03*
X86000D02*
D03*
X96000D02*
D03*
X106000D02*
D03*
X116000D02*
D03*
X126000D02*
D03*
X136000D02*
D03*
X146000D02*
D03*
X156000D02*
D03*
X166000D02*
D03*
X176000D02*
D03*
X186000D02*
D03*
X196000D02*
D03*
X206000D02*
D03*
X216000D02*
D03*
X226000D02*
D03*
X236000D02*
D03*
X246000D02*
D03*
X256000D02*
D03*
D55*
X266000Y102000D02*
D03*
Y6000D02*
D03*
M02*
