G04*
G04 #@! TF.GenerationSoftware,Altium Limited,Altium Designer,24.3.1 (35)*
G04*
G04 Layer_Color=32896*
%FSLAX25Y25*%
%MOIN*%
G70*
G04*
G04 #@! TF.SameCoordinates,18358673-9EB0-4F65-8AD0-3A3BFD57A4A7*
G04*
G04*
G04 #@! TF.FilePolarity,Positive*
G04*
G01*
G75*
%ADD11C,0.01000*%
%ADD12C,0.00600*%
D11*
X271000Y99500D02*
Y104500D01*
Y107000D01*
Y97000D02*
Y99500D01*
X31000Y107000D02*
X271000Y107000D01*
X31000Y97000D02*
Y107000D01*
Y97000D02*
X271000Y97000D01*
Y3500D02*
Y8500D01*
Y11000D01*
Y1000D02*
Y3500D01*
X31000Y11000D02*
X271000Y11000D01*
X31000Y1000D02*
Y11000D01*
Y1000D02*
X271000Y1000D01*
D12*
X266599Y13600D02*
Y16266D01*
X267932Y14933D02*
X265266D01*
X267932Y17599D02*
X268599Y18265D01*
Y19598D01*
X267932Y20265D01*
X267266D01*
X266599Y19598D01*
Y18932D01*
Y19598D01*
X265933Y20265D01*
X265266D01*
X264600Y19598D01*
Y18265D01*
X265266Y17599D01*
X268599Y21597D02*
X265933D01*
X264600Y22930D01*
X265933Y24263D01*
X268599D01*
X267932Y25596D02*
X268599Y26263D01*
Y27595D01*
X267932Y28262D01*
X267266D01*
X266599Y27595D01*
Y26929D01*
Y27595D01*
X265933Y28262D01*
X265266D01*
X264600Y27595D01*
Y26263D01*
X265266Y25596D01*
X78599Y13600D02*
X74600D01*
Y15599D01*
X75266Y16266D01*
X77932D01*
X78599Y15599D01*
Y13600D01*
X76599Y17599D02*
Y20265D01*
X77932Y18932D02*
X75266D01*
X88599Y13600D02*
Y14933D01*
Y14266D01*
X84600D01*
Y13600D01*
Y14933D01*
X88599Y18932D02*
Y17599D01*
X87932Y16932D01*
X85267D01*
X84600Y17599D01*
Y18932D01*
X85267Y19598D01*
X87932D01*
X88599Y18932D01*
X84600Y23597D02*
Y20931D01*
X87266Y23597D01*
X87932D01*
X88599Y22930D01*
Y21597D01*
X87932Y20931D01*
X84600Y24930D02*
Y26263D01*
Y25596D01*
X88599D01*
X87932Y24930D01*
X178599Y13600D02*
Y14933D01*
Y14266D01*
X174600D01*
Y13600D01*
Y14933D01*
X178599Y18932D02*
Y17599D01*
X177932Y16932D01*
X175267D01*
X174600Y17599D01*
Y18932D01*
X175267Y19598D01*
X177932D01*
X178599Y18932D01*
X174600Y22930D02*
X178599D01*
X176599Y20931D01*
Y23597D01*
X177932Y24930D02*
X178599Y25596D01*
Y26929D01*
X177932Y27595D01*
X175267D01*
X174600Y26929D01*
Y25596D01*
X175267Y24930D01*
X177932D01*
X98599Y13600D02*
Y14933D01*
Y14266D01*
X94600D01*
Y13600D01*
Y14933D01*
X98599Y18932D02*
Y17599D01*
X97932Y16932D01*
X95266D01*
X94600Y17599D01*
Y18932D01*
X95266Y19598D01*
X97932D01*
X98599Y18932D01*
X94600Y23597D02*
Y20931D01*
X97266Y23597D01*
X97932D01*
X98599Y22930D01*
Y21597D01*
X97932Y20931D01*
X98599Y27595D02*
X97932Y26263D01*
X96599Y24930D01*
X95266D01*
X94600Y25596D01*
Y26929D01*
X95266Y27595D01*
X95933D01*
X96599Y26929D01*
Y24930D01*
X108599Y13600D02*
Y14933D01*
Y14266D01*
X104600D01*
Y13600D01*
Y14933D01*
X108599Y18932D02*
Y17599D01*
X107932Y16932D01*
X105266D01*
X104600Y17599D01*
Y18932D01*
X105266Y19598D01*
X107932D01*
X108599Y18932D01*
X107932Y20931D02*
X108599Y21597D01*
Y22930D01*
X107932Y23597D01*
X107266D01*
X106599Y22930D01*
Y22264D01*
Y22930D01*
X105933Y23597D01*
X105266D01*
X104600Y22930D01*
Y21597D01*
X105266Y20931D01*
X107932Y24930D02*
X108599Y25596D01*
Y26929D01*
X107932Y27595D01*
X107266D01*
X106599Y26929D01*
Y26263D01*
Y26929D01*
X105933Y27595D01*
X105266D01*
X104600Y26929D01*
Y25596D01*
X105266Y24930D01*
X118599Y13600D02*
Y14933D01*
Y14266D01*
X114600D01*
Y13600D01*
Y14933D01*
X118599Y18932D02*
Y17599D01*
X117932Y16932D01*
X115267D01*
X114600Y17599D01*
Y18932D01*
X115267Y19598D01*
X117932D01*
X118599Y18932D01*
X117932Y20931D02*
X118599Y21597D01*
Y22930D01*
X117932Y23597D01*
X117266D01*
X116599Y22930D01*
Y22264D01*
Y22930D01*
X115933Y23597D01*
X115267D01*
X114600Y22930D01*
Y21597D01*
X115267Y20931D01*
X114600Y26929D02*
X118599D01*
X116599Y24930D01*
Y27595D01*
X128599Y13600D02*
Y14933D01*
Y14266D01*
X124600D01*
Y13600D01*
Y14933D01*
X128599Y18932D02*
Y17599D01*
X127932Y16932D01*
X125267D01*
X124600Y17599D01*
Y18932D01*
X125267Y19598D01*
X127932D01*
X128599Y18932D01*
X127932Y20931D02*
X128599Y21597D01*
Y22930D01*
X127932Y23597D01*
X127266D01*
X126599Y22930D01*
Y22264D01*
Y22930D01*
X125933Y23597D01*
X125267D01*
X124600Y22930D01*
Y21597D01*
X125267Y20931D01*
X128599Y27595D02*
Y24930D01*
X126599D01*
X127266Y26263D01*
Y26929D01*
X126599Y27595D01*
X125267D01*
X124600Y26929D01*
Y25596D01*
X125267Y24930D01*
X138599Y13600D02*
Y14933D01*
Y14266D01*
X134600D01*
Y13600D01*
Y14933D01*
X138599Y18932D02*
Y17599D01*
X137932Y16932D01*
X135266D01*
X134600Y17599D01*
Y18932D01*
X135266Y19598D01*
X137932D01*
X138599Y18932D01*
X137932Y20931D02*
X138599Y21597D01*
Y22930D01*
X137932Y23597D01*
X137266D01*
X136599Y22930D01*
Y22264D01*
Y22930D01*
X135933Y23597D01*
X135266D01*
X134600Y22930D01*
Y21597D01*
X135266Y20931D01*
X138599Y27595D02*
X137932Y26263D01*
X136599Y24930D01*
X135266D01*
X134600Y25596D01*
Y26929D01*
X135266Y27595D01*
X135933D01*
X136599Y26929D01*
Y24930D01*
X148599Y13600D02*
Y14933D01*
Y14266D01*
X144600D01*
Y13600D01*
Y14933D01*
X148599Y18932D02*
Y17599D01*
X147932Y16932D01*
X145266D01*
X144600Y17599D01*
Y18932D01*
X145266Y19598D01*
X147932D01*
X148599Y18932D01*
X147932Y20931D02*
X148599Y21597D01*
Y22930D01*
X147932Y23597D01*
X147266D01*
X146599Y22930D01*
Y22264D01*
Y22930D01*
X145933Y23597D01*
X145266D01*
X144600Y22930D01*
Y21597D01*
X145266Y20931D01*
X148599Y24930D02*
Y27595D01*
X147932D01*
X145266Y24930D01*
X144600D01*
X158599Y13600D02*
Y14933D01*
Y14266D01*
X154600D01*
Y13600D01*
Y14933D01*
X158599Y18932D02*
Y17599D01*
X157932Y16932D01*
X155266D01*
X154600Y17599D01*
Y18932D01*
X155266Y19598D01*
X157932D01*
X158599Y18932D01*
X157932Y20931D02*
X158599Y21597D01*
Y22930D01*
X157932Y23597D01*
X157266D01*
X156599Y22930D01*
Y22264D01*
Y22930D01*
X155933Y23597D01*
X155266D01*
X154600Y22930D01*
Y21597D01*
X155266Y20931D01*
X157932Y24930D02*
X158599Y25596D01*
Y26929D01*
X157932Y27595D01*
X157266D01*
X156599Y26929D01*
X155933Y27595D01*
X155266D01*
X154600Y26929D01*
Y25596D01*
X155266Y24930D01*
X155933D01*
X156599Y25596D01*
X157266Y24930D01*
X157932D01*
X156599Y25596D02*
Y26929D01*
X168599Y13600D02*
Y14933D01*
Y14266D01*
X164600D01*
Y13600D01*
Y14933D01*
X168599Y18932D02*
Y17599D01*
X167932Y16932D01*
X165267D01*
X164600Y17599D01*
Y18932D01*
X165267Y19598D01*
X167932D01*
X168599Y18932D01*
X167932Y20931D02*
X168599Y21597D01*
Y22930D01*
X167932Y23597D01*
X167266D01*
X166599Y22930D01*
Y22264D01*
Y22930D01*
X165933Y23597D01*
X165267D01*
X164600Y22930D01*
Y21597D01*
X165267Y20931D01*
Y24930D02*
X164600Y25596D01*
Y26929D01*
X165267Y27595D01*
X167932D01*
X168599Y26929D01*
Y25596D01*
X167932Y24930D01*
X167266D01*
X166599Y25596D01*
Y27595D01*
X264600Y36599D02*
X266599Y34600D01*
X268599Y36599D01*
X266599Y38599D02*
Y41265D01*
Y42597D02*
Y45263D01*
Y46596D02*
Y49262D01*
X264600Y50595D02*
X268599D01*
Y52594D01*
X267932Y53261D01*
X266599D01*
X265933Y52594D01*
Y50595D01*
X268599Y54594D02*
Y55926D01*
Y55260D01*
X264600D01*
Y54594D01*
Y55926D01*
Y57926D02*
X268599D01*
X264600Y60592D01*
X268599D01*
X264600Y61924D02*
Y63257D01*
Y62591D01*
X268599D01*
X267932Y61924D01*
X266599Y65257D02*
Y67923D01*
Y69256D02*
Y71921D01*
Y73254D02*
Y75920D01*
X264600Y77253D02*
X266599Y79252D01*
X268599Y77253D01*
X248599Y16266D02*
Y13600D01*
X244600D01*
Y16266D01*
X246599Y13600D02*
Y14933D01*
X244600Y17599D02*
X248599D01*
X244600Y20265D01*
X248599D01*
X257932Y16266D02*
X258599Y15599D01*
Y14266D01*
X257932Y13600D01*
X255266D01*
X254600Y14266D01*
Y15599D01*
X255266Y16266D01*
X256599D01*
Y14933D01*
X254600Y17599D02*
X258599D01*
X254600Y20265D01*
X258599D01*
Y21597D02*
X254600D01*
Y23597D01*
X255266Y24263D01*
X257932D01*
X258599Y23597D01*
Y21597D01*
X68599Y13600D02*
X64600D01*
Y15599D01*
X65267Y16266D01*
X67932D01*
X68599Y15599D01*
Y13600D01*
X66599Y17599D02*
Y20265D01*
X188599Y13600D02*
Y14933D01*
Y14266D01*
X184600D01*
Y13600D01*
Y14933D01*
X188599Y18932D02*
Y17599D01*
X187932Y16932D01*
X185266D01*
X184600Y17599D01*
Y18932D01*
X185266Y19598D01*
X187932D01*
X188599Y18932D01*
X184600Y22930D02*
X188599D01*
X186599Y20931D01*
Y23597D01*
X184600Y24930D02*
Y26263D01*
Y25596D01*
X188599D01*
X187932Y24930D01*
X198599Y13600D02*
Y14933D01*
Y14266D01*
X194600D01*
Y13600D01*
Y14933D01*
X198599Y18932D02*
Y17599D01*
X197932Y16932D01*
X195266D01*
X194600Y17599D01*
Y18932D01*
X195266Y19598D01*
X197932D01*
X198599Y18932D01*
X194600Y22930D02*
X198599D01*
X196599Y20931D01*
Y23597D01*
X194600Y27595D02*
Y24930D01*
X197266Y27595D01*
X197932D01*
X198599Y26929D01*
Y25596D01*
X197932Y24930D01*
X228599Y13600D02*
Y14933D01*
Y14266D01*
X224600D01*
Y13600D01*
Y14933D01*
X228599Y18932D02*
Y17599D01*
X227932Y16932D01*
X225267D01*
X224600Y17599D01*
Y18932D01*
X225267Y19598D01*
X227932D01*
X228599Y18932D01*
X224600Y22930D02*
X228599D01*
X226599Y20931D01*
Y23597D01*
X228599Y27595D02*
Y24930D01*
X226599D01*
X227266Y26263D01*
Y26929D01*
X226599Y27595D01*
X225267D01*
X224600Y26929D01*
Y25596D01*
X225267Y24930D01*
X48599Y13600D02*
Y14933D01*
Y14266D01*
X44600D01*
Y13600D01*
Y14933D01*
X48599Y18932D02*
Y17599D01*
X47932Y16932D01*
X45267D01*
X44600Y17599D01*
Y18932D01*
X45267Y19598D01*
X47932D01*
X48599Y18932D01*
X44600Y22930D02*
X48599D01*
X46599Y20931D01*
Y23597D01*
X48599Y24930D02*
Y27595D01*
X47932D01*
X45267Y24930D01*
X44600D01*
X59599Y13600D02*
Y14933D01*
Y14266D01*
X55600D01*
Y13600D01*
Y14933D01*
X59599Y18932D02*
Y17599D01*
X58932Y16932D01*
X56266D01*
X55600Y17599D01*
Y18932D01*
X56266Y19598D01*
X58932D01*
X59599Y18932D01*
X55600Y22930D02*
X59599D01*
X57599Y20931D01*
Y23597D01*
X58932Y24930D02*
X59599Y25596D01*
Y26929D01*
X58932Y27595D01*
X58266D01*
X57599Y26929D01*
X56933Y27595D01*
X56266D01*
X55600Y26929D01*
Y25596D01*
X56266Y24930D01*
X56933D01*
X57599Y25596D01*
X58266Y24930D01*
X58932D01*
X57599Y25596D02*
Y26929D01*
X33600Y13600D02*
X37599D01*
X33600Y16266D01*
X37599D01*
X36932Y20265D02*
X37599Y19598D01*
Y18265D01*
X36932Y17599D01*
X34266D01*
X33600Y18265D01*
Y19598D01*
X34266Y20265D01*
X238599Y13600D02*
Y14933D01*
Y14266D01*
X234600D01*
Y13600D01*
Y14933D01*
X238599Y18932D02*
Y17599D01*
X237932Y16932D01*
X235266D01*
X234600Y17599D01*
Y18932D01*
X235266Y19598D01*
X237932D01*
X238599Y18932D01*
X234600Y22930D02*
X238599D01*
X236599Y20931D01*
Y23597D01*
X238599Y27595D02*
X237932Y26263D01*
X236599Y24930D01*
X235266D01*
X234600Y25596D01*
Y26929D01*
X235266Y27595D01*
X235933D01*
X236599Y26929D01*
Y24930D01*
X208599Y13600D02*
X205266D01*
X204600Y14266D01*
Y15599D01*
X205266Y16266D01*
X208599D01*
X207932Y17599D02*
X208599Y18265D01*
Y19598D01*
X207932Y20265D01*
X205266D01*
X204600Y19598D01*
Y18265D01*
X205266Y17599D01*
X207932D01*
X208599Y21597D02*
Y24263D01*
Y22930D01*
X204600D01*
X208599Y25596D02*
X204600Y28262D01*
X208599D02*
X204600Y25596D01*
X208599Y29595D02*
X204600D01*
Y31594D01*
X205266Y32261D01*
X207932D01*
X208599Y31594D01*
Y29595D01*
X218599Y13600D02*
X215266D01*
X214600Y14266D01*
Y15599D01*
X215266Y16266D01*
X218599D01*
X217932Y17599D02*
X218599Y18265D01*
Y19598D01*
X217932Y20265D01*
X215266D01*
X214600Y19598D01*
Y18265D01*
X215266Y17599D01*
X217932D01*
X214600Y21597D02*
X218599D01*
Y23597D01*
X217932Y24263D01*
X216599D01*
X215933Y23597D01*
Y21597D01*
Y22930D02*
X214600Y24263D01*
X218599Y25596D02*
X214600Y28262D01*
X218599D02*
X214600Y25596D01*
X218599Y29595D02*
X214600D01*
Y31594D01*
X215266Y32261D01*
X217932D01*
X218599Y31594D01*
Y29595D01*
X267932Y86266D02*
X268599Y85599D01*
Y84266D01*
X267932Y83600D01*
X265266D01*
X264600Y84266D01*
Y85599D01*
X265266Y86266D01*
X266599D01*
Y84933D01*
X264600Y87599D02*
X268599D01*
X264600Y90264D01*
X268599D01*
Y91597D02*
X264600D01*
Y93597D01*
X265266Y94263D01*
X267932D01*
X268599Y93597D01*
Y91597D01*
X256599Y79600D02*
Y82266D01*
X257932Y80933D02*
X255266D01*
X257932Y83599D02*
X258599Y84265D01*
Y85598D01*
X257932Y86264D01*
X257266D01*
X256599Y85598D01*
Y84932D01*
Y85598D01*
X255933Y86264D01*
X255266D01*
X254600Y85598D01*
Y84265D01*
X255266Y83599D01*
X258599Y87597D02*
X255933D01*
X254600Y88930D01*
X255933Y90263D01*
X258599D01*
X257932Y91596D02*
X258599Y92263D01*
Y93595D01*
X257932Y94262D01*
X257266D01*
X256599Y93595D01*
Y92929D01*
Y93595D01*
X255933Y94262D01*
X255266D01*
X254600Y93595D01*
Y92263D01*
X255266Y91596D01*
X248599Y84600D02*
Y85933D01*
Y85266D01*
X244600D01*
Y84600D01*
Y85933D01*
X248599Y89932D02*
Y88599D01*
X247932Y87932D01*
X245266D01*
X244600Y88599D01*
Y89932D01*
X245266Y90598D01*
X247932D01*
X248599Y89932D01*
X247932Y91931D02*
X248599Y92597D01*
Y93930D01*
X247932Y94597D01*
X245266D01*
X244600Y93930D01*
Y92597D01*
X245266Y91931D01*
X247932D01*
X238599Y85600D02*
Y86933D01*
Y86266D01*
X234600D01*
Y85600D01*
Y86933D01*
X238599Y90932D02*
Y89599D01*
X237932Y88932D01*
X235266D01*
X234600Y89599D01*
Y90932D01*
X235266Y91598D01*
X237932D01*
X238599Y90932D01*
X234600Y92931D02*
Y94264D01*
Y93597D01*
X238599D01*
X237932Y92931D01*
X227599Y84600D02*
Y85933D01*
Y85266D01*
X223600D01*
Y84600D01*
Y85933D01*
X227599Y89932D02*
Y88599D01*
X226932Y87932D01*
X224266D01*
X223600Y88599D01*
Y89932D01*
X224266Y90598D01*
X226932D01*
X227599Y89932D01*
X223600Y94597D02*
Y91931D01*
X226266Y94597D01*
X226932D01*
X227599Y93930D01*
Y92597D01*
X226932Y91931D01*
X217599Y84600D02*
Y85933D01*
Y85266D01*
X213600D01*
Y84600D01*
Y85933D01*
X217599Y89932D02*
Y88599D01*
X216932Y87932D01*
X214266D01*
X213600Y88599D01*
Y89932D01*
X214266Y90598D01*
X216932D01*
X217599Y89932D01*
X216932Y91931D02*
X217599Y92597D01*
Y93930D01*
X216932Y94597D01*
X216266D01*
X215599Y93930D01*
Y93264D01*
Y93930D01*
X214933Y94597D01*
X214266D01*
X213600Y93930D01*
Y92597D01*
X214266Y91931D01*
X207599Y84600D02*
Y85933D01*
Y85266D01*
X203600D01*
Y84600D01*
Y85933D01*
X207599Y89932D02*
Y88599D01*
X206932Y87932D01*
X204267D01*
X203600Y88599D01*
Y89932D01*
X204267Y90598D01*
X206932D01*
X207599Y89932D01*
X203600Y93930D02*
X207599D01*
X205599Y91931D01*
Y94597D01*
X197599Y84600D02*
Y85933D01*
Y85266D01*
X193600D01*
Y84600D01*
Y85933D01*
X197599Y89932D02*
Y88599D01*
X196932Y87932D01*
X194266D01*
X193600Y88599D01*
Y89932D01*
X194266Y90598D01*
X196932D01*
X197599Y89932D01*
Y94597D02*
Y91931D01*
X195599D01*
X196266Y93264D01*
Y93930D01*
X195599Y94597D01*
X194266D01*
X193600Y93930D01*
Y92597D01*
X194266Y91931D01*
X188599Y84600D02*
Y85933D01*
Y85266D01*
X184600D01*
Y84600D01*
Y85933D01*
X188599Y89932D02*
Y88599D01*
X187932Y87932D01*
X185266D01*
X184600Y88599D01*
Y89932D01*
X185266Y90598D01*
X187932D01*
X188599Y89932D01*
Y94597D02*
X187932Y93264D01*
X186599Y91931D01*
X185266D01*
X184600Y92597D01*
Y93930D01*
X185266Y94597D01*
X185933D01*
X186599Y93930D01*
Y91931D01*
X178599Y84600D02*
Y85933D01*
Y85266D01*
X174600D01*
Y84600D01*
Y85933D01*
X178599Y89932D02*
Y88599D01*
X177932Y87932D01*
X175267D01*
X174600Y88599D01*
Y89932D01*
X175267Y90598D01*
X177932D01*
X178599Y89932D01*
Y91931D02*
Y94597D01*
X177932D01*
X175267Y91931D01*
X174600D01*
X168599Y84600D02*
Y85933D01*
Y85266D01*
X164600D01*
Y84600D01*
Y85933D01*
X168599Y89932D02*
Y88599D01*
X167932Y87932D01*
X165267D01*
X164600Y88599D01*
Y89932D01*
X165267Y90598D01*
X167932D01*
X168599Y89932D01*
X167932Y91931D02*
X168599Y92597D01*
Y93930D01*
X167932Y94597D01*
X167266D01*
X166599Y93930D01*
X165933Y94597D01*
X165267D01*
X164600Y93930D01*
Y92597D01*
X165267Y91931D01*
X165933D01*
X166599Y92597D01*
X167266Y91931D01*
X167932D01*
X166599Y92597D02*
Y93930D01*
X158599Y84600D02*
Y85933D01*
Y85266D01*
X154600D01*
Y84600D01*
Y85933D01*
X158599Y89932D02*
Y88599D01*
X157932Y87932D01*
X155266D01*
X154600Y88599D01*
Y89932D01*
X155266Y90598D01*
X157932D01*
X158599Y89932D01*
X155266Y91931D02*
X154600Y92597D01*
Y93930D01*
X155266Y94597D01*
X157932D01*
X158599Y93930D01*
Y92597D01*
X157932Y91931D01*
X157266D01*
X156599Y92597D01*
Y94597D01*
X148599Y81600D02*
Y82933D01*
Y82266D01*
X144600D01*
Y81600D01*
Y82933D01*
X148599Y86932D02*
Y85599D01*
X147932Y84932D01*
X145266D01*
X144600Y85599D01*
Y86932D01*
X145266Y87598D01*
X147932D01*
X148599Y86932D01*
X144600Y88931D02*
Y90264D01*
Y89597D01*
X148599D01*
X147932Y88931D01*
Y92263D02*
X148599Y92930D01*
Y94263D01*
X147932Y94929D01*
X145266D01*
X144600Y94263D01*
Y92930D01*
X145266Y92263D01*
X147932D01*
X138599Y82600D02*
Y83933D01*
Y83266D01*
X134600D01*
Y82600D01*
Y83933D01*
X138599Y87932D02*
Y86599D01*
X137932Y85932D01*
X135266D01*
X134600Y86599D01*
Y87932D01*
X135266Y88598D01*
X137932D01*
X138599Y87932D01*
X134600Y89931D02*
Y91264D01*
Y90597D01*
X138599D01*
X137932Y89931D01*
X134600Y93263D02*
Y94596D01*
Y93930D01*
X138599D01*
X137932Y93263D01*
X127599Y81600D02*
Y82933D01*
Y82266D01*
X123600D01*
Y81600D01*
Y82933D01*
X127599Y86932D02*
Y85599D01*
X126932Y84932D01*
X124267D01*
X123600Y85599D01*
Y86932D01*
X124267Y87598D01*
X126932D01*
X127599Y86932D01*
X123600Y88931D02*
Y90264D01*
Y89597D01*
X127599D01*
X126932Y88931D01*
X123600Y94929D02*
Y92263D01*
X126266Y94929D01*
X126932D01*
X127599Y94263D01*
Y92930D01*
X126932Y92263D01*
X117599Y81600D02*
Y82933D01*
Y82266D01*
X113600D01*
Y81600D01*
Y82933D01*
X117599Y86932D02*
Y85599D01*
X116932Y84932D01*
X114267D01*
X113600Y85599D01*
Y86932D01*
X114267Y87598D01*
X116932D01*
X117599Y86932D01*
X113600Y88931D02*
Y90264D01*
Y89597D01*
X117599D01*
X116932Y88931D01*
Y92263D02*
X117599Y92930D01*
Y94263D01*
X116932Y94929D01*
X116266D01*
X115599Y94263D01*
Y93596D01*
Y94263D01*
X114933Y94929D01*
X114267D01*
X113600Y94263D01*
Y92930D01*
X114267Y92263D01*
X107599Y81600D02*
Y82933D01*
Y82266D01*
X103600D01*
Y81600D01*
Y82933D01*
X107599Y86932D02*
Y85599D01*
X106932Y84932D01*
X104267D01*
X103600Y85599D01*
Y86932D01*
X104267Y87598D01*
X106932D01*
X107599Y86932D01*
X103600Y88931D02*
Y90264D01*
Y89597D01*
X107599D01*
X106932Y88931D01*
X103600Y94263D02*
X107599D01*
X105599Y92263D01*
Y94929D01*
X97599Y81600D02*
Y82933D01*
Y82266D01*
X93600D01*
Y81600D01*
Y82933D01*
X97599Y86932D02*
Y85599D01*
X96932Y84932D01*
X94266D01*
X93600Y85599D01*
Y86932D01*
X94266Y87598D01*
X96932D01*
X97599Y86932D01*
X93600Y88931D02*
Y90264D01*
Y89597D01*
X97599D01*
X96932Y88931D01*
X97599Y94929D02*
Y92263D01*
X95599D01*
X96266Y93596D01*
Y94263D01*
X95599Y94929D01*
X94266D01*
X93600Y94263D01*
Y92930D01*
X94266Y92263D01*
X67599Y81600D02*
Y82933D01*
Y82266D01*
X63600D01*
Y81600D01*
Y82933D01*
X67599Y86932D02*
Y85599D01*
X66932Y84932D01*
X64266D01*
X63600Y85599D01*
Y86932D01*
X64266Y87598D01*
X66932D01*
X67599Y86932D01*
X63600Y88931D02*
Y90264D01*
Y89597D01*
X67599D01*
X66932Y88931D01*
Y92263D02*
X67599Y92930D01*
Y94263D01*
X66932Y94929D01*
X66266D01*
X65599Y94263D01*
X64933Y94929D01*
X64266D01*
X63600Y94263D01*
Y92930D01*
X64266Y92263D01*
X64933D01*
X65599Y92930D01*
X66266Y92263D01*
X66932D01*
X65599Y92930D02*
Y94263D01*
X77599Y81600D02*
Y82933D01*
Y82266D01*
X73600D01*
Y81600D01*
Y82933D01*
X77599Y86932D02*
Y85599D01*
X76932Y84932D01*
X74266D01*
X73600Y85599D01*
Y86932D01*
X74266Y87598D01*
X76932D01*
X77599Y86932D01*
X73600Y88931D02*
Y90264D01*
Y89597D01*
X77599D01*
X76932Y88931D01*
X77599Y92263D02*
Y94929D01*
X76932D01*
X74266Y92263D01*
X73600D01*
X87599Y81600D02*
Y82933D01*
Y82266D01*
X83600D01*
Y81600D01*
Y82933D01*
X87599Y86932D02*
Y85599D01*
X86932Y84932D01*
X84266D01*
X83600Y85599D01*
Y86932D01*
X84266Y87598D01*
X86932D01*
X87599Y86932D01*
X83600Y88931D02*
Y90264D01*
Y89597D01*
X87599D01*
X86932Y88931D01*
X87599Y94929D02*
X86932Y93596D01*
X85599Y92263D01*
X84266D01*
X83600Y92930D01*
Y94263D01*
X84266Y94929D01*
X84933D01*
X85599Y94263D01*
Y92263D01*
X55599Y83600D02*
Y86266D01*
X56932Y84933D02*
X54266D01*
X57599Y90264D02*
Y87599D01*
X55599D01*
X56266Y88932D01*
Y89598D01*
X55599Y90264D01*
X54266D01*
X53600Y89598D01*
Y88265D01*
X54266Y87599D01*
X57599Y91597D02*
X54933D01*
X53600Y92930D01*
X54933Y94263D01*
X57599D01*
X47932Y86266D02*
X48599Y85599D01*
Y84266D01*
X47932Y83600D01*
X45266D01*
X44600Y84266D01*
Y85599D01*
X45266Y86266D01*
X46599D01*
Y84933D01*
X44600Y87599D02*
X48599D01*
X44600Y90264D01*
X48599D01*
Y91597D02*
X44600D01*
Y93597D01*
X45266Y94263D01*
X47932D01*
X48599Y93597D01*
Y91597D01*
X34600Y87600D02*
X38599D01*
X34600Y90266D01*
X38599D01*
X37932Y94265D02*
X38599Y93598D01*
Y92265D01*
X37932Y91599D01*
X35266D01*
X34600Y92265D01*
Y93598D01*
X35266Y94265D01*
M02*
